<?xml version="1.0" encoding="UTF-8"?>
<svg width="112px" height="507px" viewBox="0 0 112 507" version="1.1" xmlns="http://www.w3.org/2000/svg" xmlns:xlink="http://www.w3.org/1999/xlink">
    <!-- Generator: Sketch 52.6 (67491) - http://www.bohemiancoding.com/sketch -->
    <title>Group</title>
    <desc>Created with Sketch.</desc>
    <defs>
        <linearGradient x1="25.0803744%" y1="42.7702141%" x2="139.153125%" y2="156.885512%" id="linearGradient-1">
            <stop stop-color="#FFB92D" offset="0%"></stop>
            <stop stop-color="#F59500" offset="100%"></stop>
        </linearGradient>
        <linearGradient x1="40.2235134%" y1="57.9185501%" x2="74.6092575%" y2="92.3151582%" id="linearGradient-2">
            <stop stop-color="#FFB92D" offset="0%"></stop>
            <stop stop-color="#F59500" offset="100%"></stop>
        </linearGradient>
        <linearGradient x1="-7.34965607e-05%" y1="50.0010581%" x2="99.9981884%" y2="50.0010581%" id="linearGradient-3">
            <stop stop-color="#FFF465" offset="0%"></stop>
            <stop stop-color="#FFE600" offset="100%"></stop>
        </linearGradient>
    </defs>
    <g id="Mi-Monte-V2" stroke="none" stroke-width="1" fill="none" fill-rule="evenodd">
        <g id="MiM-02-registro-08-cuenta-creada" transform="translate(-223.000000, -185.000000)">
            <g id="Group" transform="translate(223.000000, 185.000000)">
                <circle id="Oval-3" fill="#DFE0E0" cx="56" cy="140" r="6"></circle>
                <circle id="Oval-3" fill="#DFE0E0" cx="56" cy="175" r="6"></circle>
                <circle id="Oval-3" fill="#DFE0E0" cx="56" cy="289" r="6"></circle>
                <circle id="Oval-3" fill="#DFE0E0" cx="56" cy="325" r="6"></circle>
                <circle id="Oval-3" fill="#DFE0E0" cx="56" cy="360" r="6"></circle>
                <circle id="Oval-2" fill="#DFE0E0" cx="56" cy="104" r="6"></circle>
                <g id="gears" transform="translate(18.000000, 0.000000)" fill-rule="nonzero">
                    <ellipse id="Oval" fill="#DFEEF4" cx="37.012987" cy="36.9272237" rx="37.012987" ry="36.9272237"></ellipse>
                    <path d="M40.3299959,73.8544474 C58.5219497,72.2636931 72.9407618,57.5427152 74.025974,39.2376285 L48.8819199,14.1318216 L42.2544717,16.0386466 L38.6714339,12.4610385 L36.8843999,14.8023884 L34.1608803,18.2589421 L28.7025563,22.0954162 L33.455297,26.8409547 L30.0421084,32.3392557 L34.7390043,37.029034 L34.6317996,37.0738155 L43.6312055,45.9076157 L42.7998991,46.7376624 L30.5005856,34.4569871 L29.511872,36.2626926 L25.7254202,32.4819787 L22.33972,37.2202944 L13.7085137,44.480675 L18.8732907,49.6376255 L17.8669267,51.4257073 L40.3299959,73.8544474 Z" id="Shape" fill="#CBDFE7"></path>
                    <path d="M33.1239728,41.4624785 C32.917271,40.1053473 32.4055968,38.8482884 31.6618185,37.7619751 L32.7438098,36.6824685 L30.5563119,34.4999941 L29.5050936,35.5487983 C28.4168606,34.7600952 27.1451506,34.2096251 25.7652996,33.9712473 L25.7652996,32.5202711 L22.6714489,32.5202711 L22.6714489,33.9712473 C21.2918881,34.2096251 20.0201782,34.76024 18.9316548,35.5487983 L17.8804365,34.4999941 L15.6929386,36.6824685 L16.77493,37.7619751 C16.0312968,38.8482884 15.5197678,40.1053473 15.3127756,41.4624785 L13.7085137,41.4624785 L13.7085137,44.5492244 L15.3775151,44.5492244 C15.6322635,45.8559574 16.1705012,47.0607355 16.9261823,48.098678 L15.6930838,49.3289448 L17.8805817,51.5114192 L19.1444532,50.2504501 C20.1844945,50.9589215 21.3810138,51.4540695 22.6714489,51.6769513 L22.6714489,53.491287 L25.7652996,53.491287 L25.7652996,51.6769513 C27.0557346,51.4540695 28.252399,50.9589215 29.2922952,50.2504501 L30.5561667,51.5114192 L32.7436646,49.3289448 L31.5105661,48.098678 C32.2659569,47.0605906 32.8044849,45.8556678 33.0592333,44.5490796 L34.7282347,44.5490796 L34.7282347,41.4624785 L33.1239728,41.4624785 Z M24.2186645,47.3182298 C21.7311296,47.3182298 19.7144801,45.3062114 19.7144801,42.8243889 C19.7144801,40.3425665 21.7311296,38.3305481 24.2186645,38.3305481 C26.7061995,38.3305481 28.722849,40.3425665 28.722849,42.8243889 C28.722849,45.3062114 26.7061995,47.3182298 24.2186645,47.3182298 Z" id="Shape" fill="#E09112"></path>
                    <path d="M34.7282347,44.5489348 L34.7282347,41.4621889 L33.1155126,41.4621889 C32.9077206,40.1050577 32.3933481,38.8479987 31.6456473,37.7616855 L32.7330528,36.6824685 L30.5340189,34.4999941 L29.4772569,35.5487983 C28.3832849,34.7600952 27.1048684,34.2096251 25.7177406,33.9712473 L25.7177406,32.5202711 L24.0660574,32.5202711 L24.0660574,38.3353272 C24.0984519,38.3346031 24.1302628,38.3304033 24.1629491,38.3304033 C26.6636024,38.3304033 28.690887,40.3424217 28.690887,42.8242441 C28.690887,45.3060666 26.6636024,47.318085 24.1629491,47.318085 C24.1302628,47.318085 24.0985978,47.3138851 24.0660574,47.313161 L24.0660574,53.491287 L25.7180324,53.491287 L25.7180324,51.6769513 C27.0152727,51.4540695 28.2182479,50.9589215 29.2636281,50.2504501 L30.5341648,51.5114192 L32.7331988,49.3289448 L31.4935973,48.098678 C32.2529718,47.0605906 32.7943398,45.8556678 33.0504317,44.5490796 L34.7282347,44.5489348 Z" id="Shape" fill="#FF5419"></path>
                    <path d="M52.3135062,49.1993784 C52.1457157,48.0978182 51.7305322,47.077855 51.1268937,46.1961132 L52.0049928,45.3200338 L50.2295852,43.5487098 L49.3763709,44.3999617 C48.4930329,43.759962 47.4609681,43.3132108 46.3412972,43.1196719 L46.3412972,41.9420319 L43.8302597,41.9420319 L43.8302597,43.1196719 C42.7105887,43.3132108 41.6785239,43.759962 40.7951859,44.3999617 L39.9419716,43.5487098 L38.166564,45.3200338 L39.0446632,46.1961132 C38.4410246,47.0777098 38.0258412,48.0978182 37.8580506,49.1993784 L36.5560366,49.1993784 L36.5560366,51.7046403 L37.9104397,51.7046403 C38.117231,52.7651116 38.5542432,53.7429696 39.1673409,54.5852196 L38.166564,55.5836946 L39.9419716,57.3550185 L40.9677788,56.3315708 C41.8116795,56.9068155 42.7827692,57.3084124 43.8302597,57.4894649 L43.8302597,58.9619868 L46.3412972,58.9619868 L46.3412972,57.4894649 C47.3886421,57.3085576 48.3598773,56.9068155 49.203778,56.3315708 L50.2295852,57.3550185 L52.0049928,55.5836946 L51.0042159,54.5852196 C51.6173136,53.7426792 52.0543258,52.7651116 52.2611172,51.7046403 L53.6155203,51.7046403 L53.6155203,49.1993784 L52.3135062,49.1993784 Z M45.0858512,54.1839131 C42.9383357,54.1839131 41.1972721,52.4468541 41.1972721,50.304278 C41.1972721,48.161702 42.9383357,46.424643 45.0858512,46.424643 C47.2333667,46.424643 48.9744303,48.161702 48.9744303,50.304278 C48.9742848,52.4471445 47.2335122,54.1839131 45.0858512,54.1839131 Z" id="Shape" fill="#FFC61B"></path>
                    <path d="M52.0108355,49.1993784 C51.8432979,48.0978182 51.4287404,47.077855 50.8260119,46.1961132 L51.7027872,45.3200338 L49.9300563,43.5487098 L49.0781283,44.3999617 C48.196122,43.759962 47.1656132,43.3132108 46.0476303,43.1196719 L46.0476303,41.9420319 L44.7811448,41.9420319 L44.7811448,46.4258045 C44.7856493,46.4258045 44.7897178,46.4250786 44.7942223,46.4250786 C46.9385002,46.4250786 48.6769389,48.1621376 48.6769389,50.3047136 C48.6769389,52.4472896 46.9385002,54.1843486 44.7942223,54.1843486 C44.7897178,54.1843486 44.7856493,54.1839131 44.7811448,54.1836227 L44.7811448,58.9619868 L46.0476303,58.9619868 L46.0476303,57.4894649 C47.0933962,57.3085576 48.0631672,56.9068155 48.9057956,56.3315708 L49.9300563,57.3550185 L51.7027872,55.5836946 L50.7035191,54.5852196 C51.3156925,53.7426792 51.7520459,52.7651116 51.9585254,51.7046403 L53.3108866,51.7046403 L53.3108866,49.1993784 L52.0108355,49.1993784 Z" id="Shape" fill="#EAA22F"></path>
                    <path d="M52.8625696,28.2117736 C53.3073489,26.5307567 53.3475216,24.8131084 53.0318996,23.1771983 L54.8340548,22.4664076 L53.3935978,18.8307165 L51.6427023,19.5211085 C50.7761819,18.0577245 49.576185,16.7789335 48.0933954,15.8087071 L48.8258629,14.1225187 L45.2306238,12.567772 L44.4981562,14.2539604 C42.7744746,13.8376566 41.0188275,13.8383748 39.3560528,14.2078481 L38.6640459,12.4610385 L35.0198508,13.8978468 L35.732304,15.6957966 C34.3196367,16.5842849 33.0906981,17.7879458 32.1652865,19.2610982 L30.3009285,18.4550662 L28.7425451,22.0419157 L30.681921,22.8807003 C30.318207,24.5270971 30.3356296,26.1976274 30.6895524,27.7835467 L28.635562,28.5936009 L30.076019,32.2290048 L32.1814132,31.3988392 C33.032095,32.7447158 34.1726248,33.9213702 35.5596623,34.8289642 L34.6437539,36.9372025 L38.238993,38.4919493 L39.1549014,36.383711 C40.7671363,36.7730082 42.4075929,36.7990092 43.9736076,36.4983453 L44.8057148,38.5988264 L48.44991,37.1617308 L47.637961,35.1125335 C49.0399732,34.2859593 50.2738074,33.1564228 51.2294565,31.7661577 L53.1688323,32.6049423 L54.7272157,29.0180929 L52.8625696,28.2117736 Z M38.784132,32.3206548 C34.9078281,30.6443784 33.1277031,26.1506532 34.8079003,22.2836822 C36.4880976,18.4167111 40.9926217,16.6408838 44.8687816,18.3168729 C48.7450856,19.9931493 50.5252106,24.4868745 48.8450133,28.3538455 C47.16496,32.2209602 42.660436,33.9970749 38.784132,32.3206548 Z" id="Shape" fill="#FF7F4F"></path>
                    <path d="M53.015034,23.1139714 L54.8340548,22.4002466 L53.3804078,18.7495476 L51.6131264,19.4427895 C50.7384965,17.9733647 49.5272693,16.6892949 48.0306029,15.715352 L48.7699253,14.0222031 L45.1410398,12.4610385 L44.4017174,14.1541874 C43.5157513,13.9412816 42.6213558,13.8384349 41.7350991,13.8361269 L41.7350991,17.6003469 C42.7515765,17.6038088 43.7837502,17.8070501 44.7755206,18.2334386 C48.6881014,19.9166346 50.4848859,24.4289096 48.7889643,28.3118433 C47.5315203,31.1908312 44.7066315,32.9138388 41.7348084,32.9271094 L41.7348084,36.6908966 C42.4556732,36.6891656 43.1711605,36.6238226 43.8716783,36.4896747 L44.7115729,38.5988264 L48.3898726,37.156087 L47.570325,35.0984307 C48.9854581,34.2684445 50.2308392,33.1345338 51.1954318,31.7382413 L53.1529575,32.5804884 L54.7259251,28.9788326 L52.8441193,28.1694734 C53.2933517,26.4816616 53.333755,24.7567787 53.015034,23.1139714 Z" id="Shape" fill="#D35933"></path>
                </g>
                <polygon id="Rectangle-4" fill="#DFE0E0" points="54 39 57 39 57 500 54 500"></polygon>
                <g id="ico-nope" transform="translate(29.000000, 205.000000)">
                    <g id="Group">
                        <path d="M53.2987013,26.5876011 C53.2987013,41.2714273 41.36728,53.1752022 26.6493506,53.1752022 C11.9314213,53.1752022 0,41.2714273 0,26.5876011 C0,11.9037749 11.9314213,0 26.6493506,0 C41.36728,0 53.2987013,11.9037749 53.2987013,26.5876011 Z" id="Shape" fill="#E84C48" fill-rule="nonzero"></path>
                        <path d="M41.5714286,23.3571429 L30.6428571,23.3571429 L30.6428571,12.4285714 C30.6428571,11.0875446 29.5553125,10 28.2142857,10 L25.7857143,10 C24.4446875,10 23.3571429,11.0875446 23.3571429,12.4285714 L23.3571429,23.3571429 L12.4285714,23.3571429 C11.0875446,23.3571429 10,24.4446875 10,25.7857143 L10,28.2142857 C10,29.5553125 11.0875446,30.6428571 12.4285714,30.6428571 L23.3571429,30.6428571 L23.3571429,41.5714286 C23.3571429,42.9124554 24.4446875,44 25.7857143,44 L28.2142857,44 C29.5553125,44 30.6428571,42.9124554 30.6428571,41.5714286 L30.6428571,30.6428571 L41.5714286,30.6428571 C42.9124554,30.6428571 44,29.5553125 44,28.2142857 L44,25.7857143 C44,24.4446875 42.9124554,23.3571429 41.5714286,23.3571429 Z" id="Shape" fill="#FFFFFF" fill-rule="nonzero" transform="translate(27.000000, 27.000000) rotate(45.000000) translate(-27.000000, -27.000000) "></path>
                    </g>
                </g>
                <circle id="Oval" fill="#DFEEF4" cx="56" cy="451" r="56"></circle>
                <g id="003-warn" transform="translate(14.000000, 405.000000)" fill-rule="nonzero">
                    <path d="M71.7428906,78.3851469 L12.2566172,78.3851469 C3.15705469,78.3851469 -2.76133594,69.4473937 1.30807031,61.8511687 L31.051125,6.33034062 C35.5621875,-2.09030938 48.4371562,-2.09030938 52.9482187,6.33034062 L82.6912734,61.8510156 C86.7610078,69.4473937 80.8426172,78.3851469 71.7428906,78.3851469 Z" id="Shape" fill="url(#linearGradient-1)"></path>
                    <path d="M71.7428906,78.3851469 L12.2566172,78.3851469 C3.15705469,78.3851469 -2.76133594,69.4473937 1.30807031,61.8511687 L31.051125,6.33034062 C35.5621875,-2.09030938 48.4371562,-2.09030938 52.9482187,6.33034062 L82.6912734,61.8510156 C86.7610078,69.4473937 80.8426172,78.3851469 71.7428906,78.3851469 Z" id="Shape" fill="url(#linearGradient-2)"></path>
                    <path d="M79.7450391,63.225925 L50.0019844,7.70525 C48.4535625,4.8148625 45.4620469,3.08929687 41.9998359,3.08929687 C38.537625,3.08929687 35.5461094,4.8148625 33.9976875,7.70525 L4.25446875,63.225925 C2.85764062,65.8333375 3.00398437,68.8705719 4.64608594,71.3502781 C6.2881875,73.8301375 9.13335937,75.3107031 12.2566172,75.3107031 L71.7430547,75.3107031 C74.8663125,75.3107031 77.7114844,73.8301375 79.3535859,71.3502781 C80.9955234,68.8705719 81.1420312,65.8334906 79.7450391,63.225925 Z M76.5515625,69.7338906 C75.5140312,71.3006656 73.7165625,72.2361062 71.7432187,72.2361062 L12.2566172,72.2361062 C10.2832734,72.2361062 8.48564062,71.3006656 7.44827344,69.7338906 C6.41074219,68.1672687 6.31821094,66.2483062 7.20086719,64.6008344 L36.9439219,9.0803125 C37.9368281,7.2268875 39.7794141,6.16389375 41.9996719,6.16389375 C44.2199297,6.16389375 46.0626797,7.2268875 47.0554219,9.0803125 L76.7984766,64.6009875 C77.6812969,66.2483062 77.5889297,68.1672687 76.5515625,69.7338906 Z" id="Shape" fill="url(#linearGradient-3)"></path>
                    <path d="M37.4315156,62.5855562 C37.4315156,61.5172031 37.8984375,60.6097844 38.8321172,59.8628406 C39.7659609,59.1155906 40.9009453,58.7410469 42.2349375,58.7410469 C43.4097891,58.7410469 44.4253359,59.1155906 45.2817422,59.8628406 C46.1383125,60.6097844 46.5679922,61.5172031 46.5679922,62.5855562 C46.5679922,63.6108812 46.1386406,64.5077344 45.2817422,65.2764219 C44.4253359,66.0454156 43.409625,66.4297594 42.2349375,66.4297594 C40.9007813,66.4297594 39.7659609,66.0452625 38.8321172,65.2764219 C37.8984375,64.5077344 37.4315156,63.6110344 37.4315156,62.5855562 Z M37.8808828,24.9452875 C37.8808828,23.8573344 38.2774219,23.0169844 39.0709922,22.4250031 C39.8642344,21.8330219 40.8915938,21.536725 42.1530703,21.536725 C43.4145469,21.536725 44.3413359,21.8449656 44.9322891,22.4608344 C45.5230781,23.0767031 45.8192109,23.90465 45.8192109,24.9452875 C45.8192109,28.3552281 45.7558828,29.9391531 45.6320156,37.6558875 C45.5068359,45.3729281 45.4449844,47.8045531 45.4449844,51.2131156 C45.4449844,51.9243812 45.0881484,52.4811437 44.3754609,52.8829437 C43.661625,53.2848969 42.9208828,53.4861031 42.1532344,53.4861031 C39.9044297,53.4861031 38.7797812,52.7290531 38.7797812,51.2131156 C38.7797812,47.8045531 38.6298281,45.3729281 38.3304141,37.6558875 C38.0305078,29.939 37.8808828,28.355075 37.8808828,24.9452875 Z" id="Shape" fill="#FFFFFF"></path>
                </g>
            </g>
        </g>
    </g>
</svg>