<svg width="46px" height="31px" viewBox="0 0 46 31" version="1.1" xmlns="http://www.w3.org/2000/svg" xmlns:xlink="http://www.w3.org/1999/xlink">
    <!-- Generator: Sketch 50.2 (55047) - http://www.bohemiancoding.com/sketch -->
    <title>ico-card-cvv</title>
    <desc>Created with Sketch.</desc>
    <defs></defs>
    <g id="Mi-Monte-V2" stroke="none" stroke-width="1" fill="none" fill-rule="evenodd">
        <g id="MiM-07-registro-tarjetas-01-sin-tarjeta" transform="translate(-1138.000000, -485.000000)">
            <g id="ico-card-cvv" transform="translate(1138.000000, 485.000000)">
                <path d="M41.1280351,0 L4.7822963,0 C2.14630799,0 0,2.16963743 0,4.83436842 L0,26.1053538 C0,28.7699942 2.14630799,30.9396316 4.7822963,30.9396316 L41.1279454,30.9396316 C43.7639337,30.9396316 45.9102417,28.7699942 45.9102417,26.1053538 L45.9102417,4.83436842 C45.9103314,2.16963743 43.7640234,0 41.1280351,0 Z M43.9974308,26.1052632 C43.9974308,27.7044825 42.7100585,29.005848 41.1280351,29.005848 L4.7822963,29.005848 C3.2002729,29.005848 1.91290058,27.7044825 1.91290058,26.1052632 L1.91290058,4.83436842 C1.91290058,3.23514912 3.2002729,1.93378363 4.7822963,1.93378363 L41.1279454,1.93378363 C42.7099688,1.93378363 43.9973411,3.23514912 43.9973411,4.83436842 L43.9973411,26.1052632 L43.9974308,26.1052632 Z" id="Shape" fill="#474D56" fill-rule="nonzero"></path>
                <path d="M44.9538363,5.80116959 L0.956495127,5.80116959 C0.428526316,5.80116959 0,6.2343538 0,6.7680614 L0,12.569231 C0,13.1029386 0.428526316,13.5361228 0.956495127,13.5361228 L44.9539259,13.5361228 C45.4818947,13.5361228 45.9104211,13.1029386 45.9104211,12.569231 L45.9104211,6.7680614 C45.9103314,6.2343538 45.4818051,5.80116959 44.9538363,5.80116959 Z" id="Shape" fill="#474D56" fill-rule="nonzero"></path>
                <rect id="Rectangle" fill="#D8D8D8" fill-rule="evenodd" x="24.9278752" y="18.4005848" width="16.7680312" height="6.25438596"></rect>
                <ellipse id="Oval" fill="#BD2D4C" fill-rule="evenodd" cx="28.3352827" cy="21.5730994" rx="1.97270955" ry="1.99415205"></ellipse>
                <ellipse id="Oval" fill="#BD2D4C" fill-rule="evenodd" cx="33.2670565" cy="21.5730994" rx="1.97270955" ry="1.99415205"></ellipse>
                <ellipse id="Oval" fill="#BD2D4C" fill-rule="evenodd" cx="38.1988304" cy="21.5730994" rx="1.97270955" ry="1.99415205"></ellipse>
            </g>
        </g>
    </g>
</svg>