<svg width="80px" height="80px" viewBox="0 0 80 80" version="1.1" xmlns="http://www.w3.org/2000/svg" xmlns:xlink="http://www.w3.org/1999/xlink">
    <!-- Generator: Sketch 50.2 (55047) - http://www.bohemiancoding.com/sketch -->
    <title>ico-exito</title>
    <desc>Created with Sketch.</desc>
    <defs></defs>
    <g id="Bocetos2" stroke="none" stroke-width="1" fill="none" fill-rule="evenodd" opacity="0.800000012">
        <g id="Layout-modal-exito" transform="translate(-39.000000, -122.000000)">
            <g id="ico-exito" transform="translate(39.000000, 122.000000)">
                <g id="001-checked">
                    <circle id="Oval" fill="#32BA7C" fill-rule="nonzero" cx="39.9370079" cy="39.9370079" r="39.9370079"></circle>
                    <path d="M29.7322835,57.9527559 L50.2677165,78.488189 C67.2755906,73.9527559 79.8740157,58.4566929 79.8740157,39.9370079 C79.8740157,39.5590551 79.8740157,39.1811024 79.8740157,38.8031496 L63.7480315,23.9370079 L29.7322835,57.9527559 Z" id="Shape" fill="#0AA06E" fill-rule="nonzero"></path>
                    <g id="Group" transform="translate(13.385827, 19.685039)" fill="#FFFFFF" fill-rule="nonzero">
                        <path d="M27.5590551,29.1968504 C29.3228346,30.9606299 29.3228346,33.984252 27.5590551,35.7480315 L23.9055118,39.4015748 C22.1417323,41.1653543 19.1181102,41.1653543 17.3543307,39.4015748 L1.35433071,23.2755906 C-0.409448819,21.511811 -0.409448819,18.488189 1.35433071,16.7244094 L5.00787402,13.0708661 C6.77165354,11.3070866 9.79527559,11.3070866 11.5590551,13.0708661 L27.5590551,29.1968504 Z" id="Shape"></path>
                        <path d="M41.5433071,1.35433071 C43.3070866,-0.409448819 46.3307087,-0.409448819 48.0944882,1.35433071 L51.7480315,5.00787402 C53.511811,6.77165354 53.511811,9.79527559 51.7480315,11.5590551 L24.0314961,39.1496063 C22.2677165,40.9133858 19.2440945,40.9133858 17.480315,39.1496063 L13.8267717,35.496063 C12.0629921,33.7322835 12.0629921,30.7086614 13.8267717,28.9448819 L41.5433071,1.35433071 Z" id="Shape"></path>
                    </g>
                </g>
            </g>
        </g>
    </g>
</svg>