<?xml version="1.0" encoding="UTF-8" standalone="no"?>
<svg width="52px" height="52px" viewBox="0 0 52 52" version="1.1" xmlns="http://www.w3.org/2000/svg" xmlns:xlink="http://www.w3.org/1999/xlink">
    <!-- Generator: Sketch 50.2 (55047) - http://www.bohemiancoding.com/sketch -->
    <title>ico-usuario-plata</title>
    <desc>Created with Sketch.</desc>
    <defs>
        <circle id="path-1" cx="26" cy="26" r="26"></circle>
        <path d="M20.1442827,51.337918 C8.60485351,48.6819018 0,38.3458365 0,26 C0,11.6405965 11.6405965,0 26,0 C40.3594035,0 52,11.6405965 52,26 C52,27.7236824 51.8322676,29.4081889 51.5122345,31.0380876 C46.864898,24.2499219 44.1158083,20.8558391 43.2649656,20.8558391 C33.2384972,20.8558391 14.9135483,39.7567839 14.9135483,42.3341855 C14.9135483,43.4673103 16.6571264,46.4685544 20.1442827,51.337918 Z" id="path-3"></path>
    </defs>
    <g id="ico-usuario-plata" stroke="none" stroke-width="1" fill="none" fill-rule="evenodd">
        <mask id="mask-2" fill="white">
            <use xlink:href="#path-1"></use>
        </mask>
        <use id="Mask" fill="#B0BEC5" fill-rule="nonzero" xlink:href="#path-1"></use>
        <mask id="mask-4" fill="white">
            <use xlink:href="#path-3"></use>
        </mask>
        <use id="Combined-Shape" fill="#CFD8DC" fill-rule="nonzero" xlink:href="#path-3"></use>
        <g id="Group" transform="translate(8.000000, 8.000000)" fill-rule="nonzero">
            <path d="M35.1052174,12.7844273 L23.4755652,11.6750012 L18.855913,0.641291925 C18.5324348,-0.131299379 17.4674783,-0.131299379 17.144087,0.641291925 L12.5244348,11.6749118 L0.894782609,12.7844273 C0.0804347826,12.8620621 -0.248608696,13.9038708 0.36573913,14.4590311 L9.14034783,22.3876174 L6.57243478,34.1069814 C6.3926087,34.9276025 7.25426087,35.5713988 7.9573913,35.1419925 L18,29.008487 L28.0426087,35.1419925 C28.7458261,35.5714882 29.6073043,34.9276025 29.4275652,34.1069814 L26.8595652,22.3876174 L35.6342609,14.4590311 C36.2486087,13.9038708 35.9194783,12.8620621 35.1052174,12.7844273 Z" id="Shape" fill="#F2F2F2"></path>
            <path d="M20.5357391,4.65361491 L18.8558261,0.641291925 C18.5323478,-0.131299379 17.4673913,-0.131299379 17.144,0.641291925 L12.5243478,11.6749118 L0.894782609,12.7844273 C0.0804347826,12.8620621 -0.248608696,13.9038708 0.36573913,14.4590311 L9.14034783,22.3876174 L6.57243478,34.1069814 C6.3926087,34.9276025 7.25426087,35.5713988 7.9573913,35.1419925 L9.294,34.3256646 C11.4852174,19.7360497 17.6453913,9.02620621 20.5357391,4.65361491 Z" id="Shape" fill="#FFFFFF"></path>
        </g>
    </g>
</svg>