<?xml version="1.0" encoding="UTF-8" standalone="no"?>
<svg width="52px" height="52px" viewBox="0 0 52 52" version="1.1" xmlns="http://www.w3.org/2000/svg" xmlns:xlink="http://www.w3.org/1999/xlink">
    <!-- Generator: Sketch 50.2 (55047) - http://www.bohemiancoding.com/sketch -->
    <title>ico-usuario-oro-mas-especial</title>
    <desc>Created with Sketch.</desc>
    <defs>
        <circle id="path-1" cx="26" cy="26" r="26"></circle>
        <path d="M20.1442827,51.337918 C8.60485351,48.6819018 0,38.3458365 0,26 C0,11.6405965 11.6405965,0 26,0 C40.3594035,0 52,11.6405965 52,26 C52,27.7236824 51.8322676,29.4081889 51.5122345,31.0380876 C46.864898,24.2499219 44.1158083,20.8558391 43.2649656,20.8558391 C33.2384972,20.8558391 14.9135483,39.7567839 14.9135483,42.3341855 C14.9135483,43.4673103 16.6571264,46.4685544 20.1442827,51.337918 Z" id="path-3"></path>
    </defs>
    <g id="ico-usuario-oro-mas-especial" stroke="none" stroke-width="1" fill="none" fill-rule="evenodd">
        <mask id="mask-2" fill="white">
            <use xlink:href="#path-1"></use>
        </mask>
        <use id="Mask" fill="#B0BEC5" fill-rule="nonzero" xlink:href="#path-1"></use>
        <mask id="mask-4" fill="white">
            <use xlink:href="#path-3"></use>
        </mask>
        <use id="Combined-Shape" fill="#CFD8DC" fill-rule="nonzero" xlink:href="#path-3"></use>
        <g id="Group" transform="translate(8.000000, 8.000000)" fill-rule="nonzero">
            <path d="M35.1052174,12.7844273 L23.4755652,11.6750012 L18.855913,0.641291925 C18.5324348,-0.131299379 17.4674783,-0.131299379 17.144087,0.641291925 L12.5244348,11.6749118 L0.894782609,12.7844273 C0.0804347826,12.8620621 -0.248608696,13.9038708 0.36573913,14.4590311 L9.14034783,22.3876174 L6.57243478,34.1069814 C6.3926087,34.9276025 7.25426087,35.5713988 7.9573913,35.1419925 L18,29.008487 L28.0426087,35.1419925 C28.7458261,35.5714882 29.6073043,34.9276025 29.4275652,34.1069814 L26.8595652,22.3876174 L35.6342609,14.4590311 C36.2486087,13.9038708 35.9194783,12.8620621 35.1052174,12.7844273 Z" id="Shape" fill="#FFBE31"></path>
            <path d="M20.5357391,4.65361491 L18.8558261,0.641291925 C18.5323478,-0.131299379 17.4673913,-0.131299379 17.144,0.641291925 L12.5243478,11.6749118 L0.894782609,12.7844273 C0.0804347826,12.8620621 -0.248608696,13.9038708 0.36573913,14.4590311 L9.14034783,22.3876174 L6.57243478,34.1069814 C6.3926087,34.9276025 7.25426087,35.5713988 7.9573913,35.1419925 L9.294,34.3256646 C11.4852174,19.7360497 17.6453913,9.02620621 20.5357391,4.65361491 Z" id="Shape" fill="#FFFFFF" opacity="0.262178309"></path>
        </g>
        <path d="M39.5,17.0578704 C39.3994792,17.0578704 39.3101042,16.992961 39.2779167,16.8966508 C38.8282292,15.548939 38.4916667,15.2084811 37.159375,14.7535889 C37.0641667,14.7210289 37,14.6306195 37,14.5289352 C37,14.4272509 37.0641667,14.3368415 37.159375,14.3042814 C38.4916667,13.8494946 38.8282292,13.5089313 39.2779167,12.1612196 C39.3101042,12.0649093 39.3994792,12 39.5,12 C39.6005208,12 39.6898958,12.0649093 39.7220833,12.1612196 C40.1717708,13.5089313 40.5083333,13.8493892 41.840625,14.3042814 C41.9358333,14.3368415 42,14.4272509 42,14.5289352 C42,14.6306195 41.9358333,14.7210289 41.840625,14.7535889 C40.5083333,15.2084811 40.1717708,15.548939 39.7220833,16.8966508 C39.6898958,16.992961 39.6005208,17.0578704 39.5,17.0578704 Z" id="Shape" fill="#FFFFFF" fill-rule="nonzero"></path>
        <path d="M26.5000391,7 C26.3994906,7 26.3101142,6.93585837 26.2780043,6.84062251 C25.8283098,5.50825794 25.4917421,5.17169018 24.1594556,4.72207378 C24.0641416,4.68988578 24,4.60050938 24,4.49996094 C24,4.39941249 24.0641416,4.31003609 24.1593775,4.27792622 C25.4916639,3.82830982 25.8282317,3.49166393 26.2779262,2.15937749 C26.3101142,2.06414163 26.3994125,2 26.4999609,2 C26.6005094,2 26.6898858,2.06414163 26.7219957,2.15937749 C27.1716902,3.49166393 27.5082579,3.82830982 28.8405444,4.27792622 C28.9357802,4.31011422 29,4.39941249 29,4.49996094 C29,4.60050938 28.9358584,4.68988578 28.8405444,4.72207378 C27.5082579,5.17169018 27.1716902,5.50825794 26.7219957,6.84062251 C26.6899639,6.93585837 26.6005875,7 26.5000391,7 Z" id="Shape" fill="#FFFFFF" fill-rule="nonzero"></path>
        <path d="M13.5,17 C13.3995098,17 13.31,16.9358824 13.2778431,16.8406863 C12.8282353,15.5083333 12.4915686,15.1717647 11.1593137,14.7221569 C11.0642157,14.689902 11,14.6005882 11,14.5 C11,14.3995098 11.0642157,14.310098 11.1593137,14.2779412 C12.4916667,13.8283333 12.8282353,13.4916667 13.2778431,12.1594118 C13.31,12.0641176 13.3994118,12 13.5,12 C13.6005882,12 13.6898039,12.0641176 13.7221569,12.1594118 C14.1717647,13.4916667 14.5084314,13.8282353 15.8406863,14.2779412 C15.9357843,14.310098 16,14.3995098 16,14.5 C16,14.6005882 15.9357843,14.689902 15.8406863,14.7221569 C14.5083333,15.1718627 14.1717647,15.5083333 13.7221569,16.8406863 C13.6898039,16.9358824 13.6004902,17 13.5,17 Z" id="Shape" fill="#FFFFFF" fill-rule="nonzero"></path>
        <path d="M32.1177143,24.0952381 L27.9047619,24.0952381 L27.9047619,19.8822857 C27.9047619,18.8472381 27.0354286,18 26,18 C24.9645714,18 24.0952381,18.8472381 24.0952381,19.8822857 L24.0952381,24.0952381 L19.8822857,24.0952381 C18.8472381,24.0952381 18,24.9645714 18,26 C18,27.0354286 18.8472381,27.9047619 19.8822857,27.9047619 L24.0952381,27.9047619 L24.0952381,32.1177143 C24.0952381,33.1527619 24.9645714,34 26,34 C27.0354286,34 27.9047619,33.1527619 27.9047619,32.1177143 L27.9047619,27.9047619 L32.1177143,27.9047619 C33.1527619,27.9047619 34,27.0354286 34,26 C34,24.9645714 33.1527619,24.0952381 32.1177143,24.0952381 Z" id="Shape" fill="#FFFFFF" fill-rule="nonzero"></path>
    </g>
</svg>