<svg width="80px" height="81px" viewBox="0 0 80 81" version="1.1" xmlns="http://www.w3.org/2000/svg" xmlns:xlink="http://www.w3.org/1999/xlink">
    <!-- Generator: Sketch 50.2 (55047) - http://www.bohemiancoding.com/sketch -->
    <title>ico-warning</title>
    <desc>Created with Sketch.</desc>
    <defs>
        <linearGradient x1="25.0803744%" y1="42.7702141%" x2="139.153125%" y2="156.885512%" id="linearGradient-1">
            <stop stop-color="#FFB92D" offset="0%"></stop>
            <stop stop-color="#F59500" offset="100%"></stop>
        </linearGradient>
        <linearGradient x1="40.2235134%" y1="57.9185501%" x2="74.6092575%" y2="92.3151582%" id="linearGradient-2">
            <stop stop-color="#FFB92D" offset="0%"></stop>
            <stop stop-color="#F59500" offset="100%"></stop>
        </linearGradient>
        <linearGradient x1="-7.34965607e-05%" y1="50.0010581%" x2="99.9981884%" y2="50.0010581%" id="linearGradient-3">
            <stop stop-color="#FFF465" offset="0%"></stop>
            <stop stop-color="#FFE600" offset="100%"></stop>
        </linearGradient>
        <linearGradient x1="68.3974896%" y1="73.0103902%" x2="-33.0569969%" y2="-3.81078661%" id="linearGradient-4">
            <stop stop-color="#BE3F45" stop-opacity="0" offset="0%"></stop>
            <stop stop-color="#BE3F45" offset="100%"></stop>
        </linearGradient>
        <linearGradient x1="60.8137893%" y1="77.577472%" x2="5.7062694%" y2="5.04806239%" id="linearGradient-5">
            <stop stop-color="#BE3F45" stop-opacity="0" offset="0%"></stop>
            <stop stop-color="#BE3F45" offset="100%"></stop>
        </linearGradient>
    </defs>
    <g id="Bocetos2" stroke="none" stroke-width="1" fill="none" fill-rule="evenodd">
        <g id="Layout-modal-warning" transform="translate(-39.000000, -122.000000)">
            <g id="ico-warning" transform="translate(39.000000, 122.000000)">
                <g id="002-cancel" fill="#E4F0F5">
                    <ellipse id="Oval" fill-rule="nonzero" cx="39.9370079" cy="40.0157791" rx="39.9370079" ry="40.0157791"></ellipse>
                </g>
                <g id="003-warn" transform="translate(10.000000, 8.000000)">
                    <path d="M51.2449219,55.9893906 L8.75472656,55.9893906 C2.25503906,55.9893906 -1.97238281,49.6052812 0.934335937,44.1794062 L22.179375,4.52167187 C25.4015625,-1.49307813 34.5979687,-1.49307813 37.8201562,4.52167187 L59.0651953,44.1792969 C61.9721484,49.6052812 57.7447266,55.9893906 51.2449219,55.9893906 Z" id="Shape" fill="url(#linearGradient-1)" fill-rule="nonzero"></path>
                    <path d="M51.2449219,55.9893906 L8.75472656,55.9893906 C2.25503906,55.9893906 -1.97238281,49.6052812 0.934335937,44.1794062 L22.179375,4.52167187 C25.4015625,-1.49307813 34.5979687,-1.49307813 37.8201562,4.52167187 L59.0651953,44.1792969 C61.9721484,49.6052812 57.7447266,55.9893906 51.2449219,55.9893906 Z" id="Shape" fill="url(#linearGradient-2)" fill-rule="nonzero"></path>
                    <path d="M56.9607422,45.161375 L35.7157031,5.50375 C34.6096875,3.4391875 32.4728906,2.20664063 29.9998828,2.20664063 C27.526875,2.20664063 25.3900781,3.4391875 24.2840625,5.50375 L3.03890625,45.161375 C2.04117187,47.0238125 2.14570312,49.1932656 3.31863281,50.9644844 C4.4915625,52.7358125 6.52382812,53.7933594 8.75472656,53.7933594 L51.2450391,53.7933594 C53.4759375,53.7933594 55.5082031,52.7358125 56.6811328,50.9644844 C57.8539453,49.1932656 57.9585937,47.0239219 56.9607422,45.161375 Z M54.6796875,49.8099219 C53.9385937,50.9290469 52.6546875,51.5972188 51.2451562,51.5972188 L8.75472656,51.5972188 C7.34519531,51.5972188 6.06117187,50.9290469 5.32019531,49.8099219 C4.57910156,48.6909063 4.51300781,47.3202188 5.14347656,46.1434531 L26.3885156,6.4859375 C27.0977344,5.1620625 28.4138672,4.40278125 29.9997656,4.40278125 C31.5856641,4.40278125 32.9019141,5.1620625 33.6110156,6.4859375 L54.8560547,46.1435625 C55.4866406,47.3202188 55.4206641,48.6909063 54.6796875,49.8099219 Z" id="Shape" fill="url(#linearGradient-3)" fill-rule="nonzero"></path>
                    <path d="M51.2444531,55.9889531 L47.8986328,55.9889531 L28.5587109,37.9383594 C27.9869531,37.6770625 27.6998438,37.2257813 27.6998438,36.5812344 C27.6998438,34.1457813 27.5927344,32.4086875 27.3786328,26.8965156 C27.1645312,21.3854375 27.0574219,20.2534063 27.0574219,17.8179531 C27.0574219,17.0405156 27.3408984,16.4410313 27.9079688,16.0182969 C28.4738672,15.5944687 29.2079297,15.3835937 30.1091016,15.3835937 C31.0102734,15.3835937 31.6726172,15.6032187 32.0937891,16.0435625 C32.175,16.1270156 49.8055078,32.5766875 55.8912891,38.2545625 L59.0654297,44.1795156 C61.9726172,49.6049531 57.7444922,55.9889531 51.2444531,55.9889531 Z" id="Shape" fill="url(#linearGradient-4)" fill-rule="nonzero"></path>
                    <path d="M46.5198047,55.9889531 L37.7692969,55.9889531 L27.7375781,46.6260156 C27.0705469,46.0769531 26.7364453,45.4368906 26.7364453,44.7044063 C26.7364453,43.9412969 27.0705469,43.292375 27.7375781,42.7587344 C28.4046094,42.2250938 29.2151953,41.9582188 30.1681641,41.9582188 C31.0069922,41.9582188 31.7328516,42.2250938 32.3445703,42.7587344 L46.5198047,55.9889531 Z" id="Shape" fill="url(#linearGradient-5)" fill-rule="nonzero"></path>
                    <path d="M26.7367969,44.7039688 C26.7367969,43.9408594 27.0703125,43.2927031 27.7372266,42.7591719 C28.4042578,42.2254219 29.2149609,41.9578906 30.1678125,41.9578906 C31.0069922,41.9578906 31.7323828,42.2254219 32.3441016,42.7591719 C32.9559375,43.2927031 33.2628516,43.9408594 33.2628516,44.7039688 C33.2628516,45.4363438 32.9561719,46.0769531 32.3441016,46.6260156 C31.7323828,47.1752969 31.006875,47.4498281 30.1678125,47.4498281 C29.2148438,47.4498281 28.4042578,47.1751875 27.7372266,46.6260156 C27.0703125,46.0769531 26.7367969,45.4364531 26.7367969,44.7039688 Z M27.0577734,17.8180625 C27.0577734,17.0409531 27.3410156,16.4407031 27.9078516,16.0178594 C28.4744531,15.5950156 29.2082813,15.383375 30.1093359,15.383375 C31.0103906,15.383375 31.6723828,15.6035469 32.0944922,16.0434531 C32.5164844,16.4833594 32.7280078,17.07475 32.7280078,17.8180625 C32.7280078,20.2537344 32.6827734,21.3851094 32.5942969,26.8970625 C32.5048828,32.4092344 32.4607031,34.1461094 32.4607031,36.5807969 C32.4607031,37.0888437 32.2058203,37.4865312 31.6967578,37.7735312 C31.186875,38.0606406 30.6577734,38.2043594 30.1094531,38.2043594 C28.5031641,38.2043594 27.6998437,37.6636094 27.6998437,36.5807969 C27.6998437,34.1461094 27.5927344,32.4092344 27.3788672,26.8970625 C27.1646484,21.385 27.0577734,20.253625 27.0577734,17.8180625 Z" id="Shape" fill="#FFFFFF" fill-rule="nonzero"></path>
                </g>
            </g>
        </g>
    </g>
</svg>