<?xml version="1.0" encoding="UTF-8" standalone="no"?>
<svg width="52px" height="52px" viewBox="0 0 52 52" version="1.1" xmlns="http://www.w3.org/2000/svg" xmlns:xlink="http://www.w3.org/1999/xlink">
    <!-- Generator: Sketch 50.2 (55047) - http://www.bohemiancoding.com/sketch -->
    <title>ico-usuario-bronce</title>
    <desc>Created with Sketch.</desc>
    <defs>
        <circle id="path-1" cx="26" cy="26" r="26"></circle>
        <path d="M20.1442827,51.337918 C8.60485351,48.6819018 0,38.3458365 0,26 C0,11.6405965 11.6405965,0 26,0 C40.3594035,0 52,11.6405965 52,26 C52,27.7236824 51.8322676,29.4081889 51.5122345,31.0380876 C46.864898,24.2499219 44.1158083,20.8558391 43.2649656,20.8558391 C33.2384972,20.8558391 14.9135483,39.7567839 14.9135483,42.3341855 C14.9135483,43.4673103 16.6571264,46.4685544 20.1442827,51.337918 Z" id="path-3"></path>
    </defs>
    <g id="ico-usuario-bronce" stroke="none" stroke-width="1" fill="none" fill-rule="evenodd">
        <mask id="mask-2" fill="white">
            <use xlink:href="#path-1"></use>
        </mask>
        <use id="Mask" fill="#B0BEC5" fill-rule="nonzero" xlink:href="#path-1"></use>
        <mask id="mask-4" fill="white">
            <use xlink:href="#path-3"></use>
        </mask>
        <use id="Combined-Shape" fill="#CFD8DC" fill-rule="nonzero" xlink:href="#path-3"></use>
        <path d="M43.1052174,20.7844273 L31.4755652,19.6750012 L26.855913,8.64129193 C26.5324348,7.86870062 25.4674783,7.86870062 25.144087,8.64129193 L20.5244348,19.6749118 L8.89478261,20.7844273 C8.08043478,20.8620621 7.7513913,21.9038708 8.36573913,22.4590311 L17.1403478,30.3876174 L14.5724348,42.1069814 C14.3926087,42.9276025 15.2542609,43.5713988 15.9573913,43.1419925 L26,37.008487 L36.0426087,43.1419925 C36.7458261,43.5714882 37.6073043,42.9276025 37.4275652,42.1069814 L34.8595652,30.3876174 L43.6342609,22.4590311 C44.2486087,21.9038708 43.9194783,20.8620621 43.1052174,20.7844273 Z" id="Shape" fill="#CD7532" fill-rule="nonzero"></path>
        <path d="M28.5357391,12.6536149 L26.8558261,8.64129193 C26.5323478,7.86870062 25.4673913,7.86870062 25.144,8.64129193 L20.5243478,19.6749118 L8.89478261,20.7844273 C8.08043478,20.8620621 7.7513913,21.9038708 8.36573913,22.4590311 L17.1403478,30.3876174 L14.5724348,42.1069814 C14.3926087,42.9276025 15.2542609,43.5713988 15.9573913,43.1419925 L17.294,42.3256646 C19.4852174,27.7360497 25.6453913,17.0262062 28.5357391,12.6536149 Z" id="Shape" fill="#FFFFFF" fill-rule="nonzero" opacity="0.140912224"></path>
    </g>
</svg>