<?xml version="1.0" encoding="UTF-8" standalone="no"?>
<svg width="136px" height="136px" viewBox="0 0 136 136" version="1.1" xmlns="http://www.w3.org/2000/svg" xmlns:xlink="http://www.w3.org/1999/xlink">
    <!-- Generator: Sketch 50.2 (55047) - http://www.bohemiancoding.com/sketch -->
    <title>ico-no-movimientos</title>
    <desc>Created with Sketch.</desc>
    <defs></defs>
    <g id="Mi-Monte-V2" stroke="none" stroke-width="1" fill="none" fill-rule="evenodd">
        <g id="MiM-06-Movimientos-nope" transform="translate(-375.000000, -428.000000)">
            <g id="ico-no-movimientos" transform="translate(375.000000, 428.000000)">
                <circle id="Oval" fill="#E4F0F5" fill-rule="nonzero" cx="68" cy="68" r="68"></circle>
                <path d="M68,136 C105.555363,136 136,105.555363 136,68 L112,29 C54,46.629758 25,67.9630913 25,93 C25,117 30.444637,136 68,136 Z" id="Oval" fill="#C6D8E0" fill-rule="nonzero"></path>
                <g id="receipt" stroke-width="1" fill-rule="evenodd" transform="translate(20.000000, 25.000000)">
                    <path d="M94.8275862,0.862068966 L5.17241379,0.862068966 C2.32758621,0.862068966 0,3.18965517 0,6.03448276 C0,8.87931034 2.32758621,11.2068966 5.17241379,11.2068966 L5.17241379,6.03448276 L94.8275862,6.03448276 L94.8275862,11.2068966 C97.6724138,11.2068966 100,8.87931034 100,6.03448276 C100,3.18965517 97.6724138,0.862068966 94.8275862,0.862068966 Z" id="Shape" fill="#3D465B" fill-rule="nonzero"></path>
                    <polygon id="Shape" fill="#F0EDE0" fill-rule="nonzero" points="8.62068966 88.7931034 18.9655172 99.137931 29.3103448 88.7931034 39.6551724 99.137931 50 88.7931034 60.3448276 99.137931 70.6896552 88.7931034 81.0344828 99.137931 91.3793103 88.7931034 94.8275862 92.2413793 94.8275862 6.03448276 5.17241379 6.03448276 5.17241379 92.2413793"></polygon>
                    <path d="M74.137931,71.5517241 L48.2758621,71.5517241 C47.3241379,71.5517241 46.5517241,70.7810345 46.5517241,69.8275862 C46.5517241,68.8741379 47.3241379,68.1034483 48.2758621,68.1034483 L74.137931,68.1034483 C75.0896552,68.1034483 75.862069,68.8741379 75.862069,69.8275862 C75.862069,70.7810345 75.0896552,71.5517241 74.137931,71.5517241 Z" id="Shape" fill="#D4C3A5" fill-rule="nonzero"></path>
                    <path d="M82.7586207,71.5517241 C82.3103448,71.5517241 81.862069,71.362069 81.5344828,71.0517241 C81.2241379,70.7241379 81.0344828,70.2758621 81.0344828,69.8275862 C81.0344828,69.3603448 81.2241379,68.9293103 81.5344828,68.6034483 C82.1896552,67.9655172 83.3275862,67.9655172 83.9827586,68.6034483 C84.2931034,68.9293103 84.4827586,69.3603448 84.4827586,69.8275862 C84.4827586,70.2758621 84.2931034,70.7241379 83.9827586,71.0517241 C83.6551724,71.362069 83.2068966,71.5517241 82.7586207,71.5517241 Z" id="Shape" fill="#D4C3A5" fill-rule="nonzero"></path>
                    <path d="M82.7586207,47.4137931 L56.8965517,47.4137931 C55.9448276,47.4137931 55.1724138,46.6431034 55.1724138,45.6896552 C55.1724138,44.7362069 55.9448276,43.9655172 56.8965517,43.9655172 L82.7586207,43.9655172 C83.7103448,43.9655172 84.4827586,44.7362069 84.4827586,45.6896552 C84.4827586,46.6431034 83.7103448,47.4137931 82.7586207,47.4137931 Z" id="Shape" fill="#D4C3A5" fill-rule="nonzero"></path>
                    <path d="M82.7586207,59.4827586 L65.5172414,59.4827586 C64.5655172,59.4827586 63.7931034,58.712069 63.7931034,57.7586207 C63.7931034,56.8051724 64.5655172,56.0344828 65.5172414,56.0344828 L82.7586207,56.0344828 C83.7103448,56.0344828 84.4827586,56.8051724 84.4827586,57.7586207 C84.4827586,58.712069 83.7103448,59.4827586 82.7586207,59.4827586 Z" id="Shape" fill="#D4C3A5" fill-rule="nonzero"></path>
                    <path d="M51.7241379,59.4827586 L48.2758621,59.4827586 C47.3241379,59.4827586 46.5517241,58.712069 46.5517241,57.7586207 C46.5517241,56.8051724 47.3241379,56.0344828 48.2758621,56.0344828 L51.7241379,56.0344828 C52.6758621,56.0344828 53.4482759,56.8051724 53.4482759,57.7586207 C53.4482759,58.712069 52.6758621,59.4827586 51.7241379,59.4827586 Z" id="Shape" fill="#D4C3A5" fill-rule="nonzero"></path>
                    <path d="M74.137931,35.3448276 L48.2758621,35.3448276 C47.3241379,35.3448276 46.5517241,34.5741379 46.5517241,33.6206897 C46.5517241,32.6672414 47.3241379,31.8965517 48.2758621,31.8965517 L74.137931,31.8965517 C75.0896552,31.8965517 75.862069,32.6672414 75.862069,33.6206897 C75.862069,34.5741379 75.0896552,35.3448276 74.137931,35.3448276 Z" id="Shape" fill="#D4C3A5" fill-rule="nonzero"></path>
                    <path d="M82.7586207,35.3448276 C82.3103448,35.3448276 81.862069,35.1551724 81.5344828,34.8448276 C81.2241379,34.5172414 81.0344828,34.0689655 81.0344828,33.6206897 C81.0344828,33.1534483 81.2241379,32.7224138 81.5344828,32.3965517 C82.1724138,31.7586207 83.3448276,31.7586207 83.9827586,32.3965517 C84.2931034,32.7224138 84.4827586,33.1724138 84.4827586,33.6206897 C84.4827586,34.0689655 84.2931034,34.5172414 83.9827586,34.8448276 C83.6551724,35.1551724 83.2241379,35.3448276 82.7586207,35.3448276 Z" id="Shape" fill="#D4C3A5" fill-rule="nonzero"></path>
                    <path d="M50,47.4137931 C49.5517241,47.4137931 49.1034483,47.2241379 48.7758621,46.9137931 C48.4655172,46.5862069 48.2758621,46.1551724 48.2758621,45.6896552 C48.2758621,45.2224138 48.4655172,44.7913793 48.7758621,44.4655172 C49.4310345,43.8275862 50.5862069,43.8275862 51.2241379,44.4655172 C51.5344828,44.7913793 51.7241379,45.2224138 51.7241379,45.6896552 C51.7241379,46.1551724 51.5344828,46.5862069 51.2241379,46.9137931 C50.8965517,47.2241379 50.4482759,47.4137931 50,47.4137931 Z" id="Shape" fill="#D4C3A5" fill-rule="nonzero"></path>
                    <path d="M58.6206897,59.4827586 C58.1724138,59.4827586 57.7241379,59.2931034 57.3965517,58.9827586 C57.0862069,58.6551724 56.8965517,58.2068966 56.8965517,57.7586207 C56.8965517,57.3103448 57.0862069,56.8603448 57.3965517,56.5344828 C58.0517241,55.8965517 59.2068966,55.8965517 59.8448276,56.5344828 C60.1551724,56.8448276 60.3448276,57.2913793 60.3448276,57.7586207 C60.3448276,58.2241379 60.1551724,58.6551724 59.8448276,58.9827586 C59.5172414,59.2931034 59.0689655,59.4827586 58.6206897,59.4827586 Z" id="Shape" fill="#D4C3A5" fill-rule="nonzero"></path>
                    <path d="M31.0344828,43.9655172 C31.0344828,44.9189655 31.8068966,45.6896552 32.7586207,45.6896552 C33.7103448,45.6896552 34.4827586,44.9189655 34.4827586,43.9655172 C34.4827586,39.8034483 31.5155172,36.3206897 27.5862069,35.5189655 L27.5862069,33.6206897 C27.5862069,32.6672414 26.8137931,31.8965517 25.862069,31.8965517 C24.9103448,31.8965517 24.137931,32.6672414 24.137931,33.6206897 L24.137931,35.5241379 C22.2568966,35.9068966 20.5431034,36.9051724 19.2793103,38.4 C18.2258621,39.6448276 17.737931,41.237931 17.9103448,42.887931 C18.0862069,44.5758621 18.9551724,46.1413793 20.2948276,47.1827586 L24.137931,50.1724138 L24.137931,59.5482759 C22.1362069,58.8344828 20.6896552,56.937931 20.6896552,54.6931034 C20.6896552,53.7396552 19.9172414,52.9689655 18.9655172,52.9689655 C18.0137931,52.9689655 17.2413793,53.7396552 17.2413793,54.6931034 C17.2413793,58.8551724 20.2086207,62.337931 24.137931,63.1396552 L24.137931,64.6551724 C24.137931,65.6086207 24.9103448,66.3793103 25.862069,66.3793103 C26.8137931,66.3793103 27.5862069,65.6086207 27.5862069,64.6551724 L27.5862069,63.1344828 C29.4672414,62.7517241 31.1810345,61.7534483 32.4465517,60.2586207 C33.5,59.0103448 33.9862069,57.4172414 33.8137931,55.7672414 C33.6362069,54.0810345 32.7689655,52.5172414 31.4293103,51.4775862 L27.5862069,48.487931 L27.5862069,39.112069 C29.587931,39.8241379 31.0344828,41.7206897 31.0344828,43.9655172 Z M29.312069,54.1982759 C29.9137931,54.6655172 30.3051724,55.3706897 30.3844828,56.1258621 C30.4586207,56.8327586 30.2551724,57.5103448 29.8137931,58.0310345 C29.2137931,58.7396552 28.437931,59.2362069 27.5862069,59.5396552 L27.5862069,52.8534483 L29.312069,54.1982759 Z M22.412069,44.462069 C21.8086207,43.9931034 21.4189655,43.287931 21.3396552,42.5310345 C21.2672414,41.8258621 21.4689655,41.15 21.9103448,40.6275862 C22.5103448,39.9189655 23.2862069,39.4224138 24.137931,39.1189655 L24.137931,45.8034483 L22.412069,44.462069 Z" id="Shape" fill="#24AE5F" fill-rule="nonzero"></path>
                    <g id="Group" transform="translate(8.620690, 15.517241)" fill="#A5A5A4" fill-rule="nonzero">
                        <path d="M1.72413793,4.31034483 C1.27586207,4.31034483 0.827586207,4.12068966 0.5,3.81034483 C0.189655172,3.48275862 0,3.03448276 0,2.5862069 C0,2.13793103 0.189655172,1.68793103 0.5,1.36206897 C1.15517241,0.724137931 2.31034483,0.724137931 2.94827586,1.36206897 C3.25862069,1.68793103 3.44827586,2.13793103 3.44827586,2.5862069 C3.44827586,3.03448276 3.25862069,3.48275862 2.94827586,3.81034483 C2.62068966,4.12068966 2.17241379,4.31034483 1.72413793,4.31034483 Z" id="Shape"></path>
                        <path d="M72.7068966,2.5862069 C72.7068966,1.63793103 73.4655172,0.862068966 74.4310345,0.862068966 C75.3793103,0.862068966 76.1551724,1.63793103 76.1551724,2.5862069 C76.1551724,3.53448276 75.3793103,4.31034483 74.4310345,4.31034483 C73.4655172,4.31034483 72.7068966,3.53448276 72.7068966,2.5862069 Z M66.0862069,2.5862069 C66.0862069,1.63793103 66.862069,0.862068966 67.8103448,0.862068966 C68.7758621,0.862068966 69.5344828,1.63793103 69.5344828,2.5862069 C69.5344828,3.53448276 68.7758621,4.31034483 67.8103448,4.31034483 C66.862069,4.31034483 66.0862069,3.53448276 66.0862069,2.5862069 Z M59.4827586,2.5862069 C59.4827586,1.63793103 60.2586207,0.862068966 61.2068966,0.862068966 C62.1551724,0.862068966 62.9310345,1.63793103 62.9310345,2.5862069 C62.9310345,3.53448276 62.1551724,4.31034483 61.2068966,4.31034483 C60.2586207,4.31034483 59.4827586,3.53448276 59.4827586,2.5862069 Z M52.8793103,2.5862069 C52.8793103,1.63793103 53.637931,0.862068966 54.6034483,0.862068966 C55.5517241,0.862068966 56.3275862,1.63793103 56.3275862,2.5862069 C56.3275862,3.53448276 55.5517241,4.31034483 54.6034483,4.31034483 C53.637931,4.31034483 52.8793103,3.53448276 52.8793103,2.5862069 Z M46.2586207,2.5862069 C46.2586207,1.63793103 47.0344828,0.862068966 47.9827586,0.862068966 C48.9482759,0.862068966 49.7068966,1.63793103 49.7068966,2.5862069 C49.7068966,3.53448276 48.9482759,4.31034483 47.9827586,4.31034483 C47.0344828,4.31034483 46.2586207,3.53448276 46.2586207,2.5862069 Z M39.6551724,2.5862069 C39.6551724,1.63793103 40.4310345,0.862068966 41.3793103,0.862068966 C42.3275862,0.862068966 43.1034483,1.63793103 43.1034483,2.5862069 C43.1034483,3.53448276 42.3275862,4.31034483 41.3793103,4.31034483 C40.4310345,4.31034483 39.6551724,3.53448276 39.6551724,2.5862069 Z M33.0517241,2.5862069 C33.0517241,1.63793103 33.8103448,0.862068966 34.7758621,0.862068966 C35.7241379,0.862068966 36.5,1.63793103 36.5,2.5862069 C36.5,3.53448276 35.7241379,4.31034483 34.7758621,4.31034483 C33.8103448,4.31034483 33.0517241,3.53448276 33.0517241,2.5862069 Z M26.4310345,2.5862069 C26.4310345,1.63793103 27.2068966,0.862068966 28.1551724,0.862068966 C29.1206897,0.862068966 29.8793103,1.63793103 29.8793103,2.5862069 C29.8793103,3.53448276 29.1206897,4.31034483 28.1551724,4.31034483 C27.2068966,4.31034483 26.4310345,3.53448276 26.4310345,2.5862069 Z M19.8275862,2.5862069 C19.8275862,1.63793103 20.6034483,0.862068966 21.5517241,0.862068966 C22.5,0.862068966 23.2758621,1.63793103 23.2758621,2.5862069 C23.2758621,3.53448276 22.5,4.31034483 21.5517241,4.31034483 C20.6034483,4.31034483 19.8275862,3.53448276 19.8275862,2.5862069 Z M13.2241379,2.5862069 C13.2241379,1.63793103 13.9827586,0.862068966 14.9482759,0.862068966 C15.8965517,0.862068966 16.6724138,1.63793103 16.6724138,2.5862069 C16.6724138,3.53448276 15.8965517,4.31034483 14.9482759,4.31034483 C13.9827586,4.31034483 13.2241379,3.53448276 13.2241379,2.5862069 Z M6.60344828,2.5862069 C6.60344828,1.63793103 7.37931034,0.862068966 8.32758621,0.862068966 C9.29310345,0.862068966 10.0517241,1.63793103 10.0517241,2.5862069 C10.0517241,3.53448276 9.29310345,4.31034483 8.32758621,4.31034483 C7.37931034,4.31034483 6.60344828,3.53448276 6.60344828,2.5862069 Z" id="Shape"></path>
                        <path d="M81.0344828,4.31034483 C80.5689655,4.31034483 80.137931,4.12068966 79.8103448,3.79310345 C79.5,3.48275862 79.3103448,3.03448276 79.3103448,2.5862069 C79.3103448,2.13793103 79.5,1.68793103 79.8103448,1.36206897 C80.4310345,0.724137931 81.6034483,0.724137931 82.2586207,1.36206897 C82.5689655,1.68793103 82.7586207,2.13793103 82.7586207,2.5862069 C82.7586207,3.03448276 82.5689655,3.48275862 82.2586207,3.81034483 C81.9310345,4.12068966 81.4827586,4.31034483 81.0344828,4.31034483 Z" id="Shape"></path>
                    </g>
                </g>
            </g>
        </g>
    </g>
</svg>