<svg width="80px" height="81px" viewBox="0 0 80 81" version="1.1" xmlns="http://www.w3.org/2000/svg" xmlns:xlink="http://www.w3.org/1999/xlink">
    <!-- Generator: Sketch 50.2 (55047) - http://www.bohemiancoding.com/sketch -->
    <title>ico-error</title>
    <desc>Created with Sketch.</desc>
    <defs></defs>
    <g id="Bocetos2" stroke="none" stroke-width="1" fill="none" fill-rule="evenodd">
        <g id="Layout-modal-error" transform="translate(-39.000000, -122.000000)">
            <g id="ico-errir" transform="translate(39.000000, 122.000000)">
                <g id="002-cancel">
                    <ellipse id="Oval" fill="#F15249" fill-rule="nonzero" cx="39.9370079" cy="40.0157791" rx="39.9370079" ry="40.0157791"></ellipse>
                    <path d="M23.1811024,58.0670611 L44.7244094,79.65286 C62.8661417,77.5069034 77.2283465,63.2426036 79.496063,45.0650888 L57.8267717,23.3530572 L23.1811024,58.0670611 Z" id="Shape" fill="#AD0E0E" fill-rule="nonzero"></path>
                    <path d="M58.8346457,48.852071 C60.5984252,50.6193294 60.5984252,53.6489152 58.8346457,55.4161736 L55.3070866,58.9506903 C53.5433071,60.7179487 50.519685,60.7179487 48.7559055,58.9506903 L21.0393701,31.1794872 C19.2755906,29.4122288 19.2755906,26.382643 21.0393701,24.6153846 L24.6929134,20.9546351 C26.4566929,19.1873767 29.480315,19.1873767 31.2440945,20.9546351 L58.8346457,48.852071 Z" id="Shape" fill="#FFFFFF" fill-rule="nonzero"></path>
                    <path d="M44.2204724,34.0828402 L34.015748,44.3076923 L48.7559055,58.9506903 C50.519685,60.7179487 53.5433071,60.7179487 55.3070866,58.9506903 L58.9606299,55.2899408 C60.7244094,53.5226824 60.7244094,50.4930966 58.9606299,48.7258383 L44.2204724,34.0828402 Z" id="Shape" fill="#D6D6D6" fill-rule="nonzero"></path>
                    <path d="M48.7559055,21.0808679 C50.519685,19.3136095 53.5433071,19.3136095 55.3070866,21.0808679 L58.9606299,24.7416174 C60.7244094,26.5088757 60.7244094,29.5384615 58.9606299,31.3057199 L31.1181102,58.9506903 C29.3543307,60.7179487 26.3307087,60.7179487 24.5669291,58.9506903 L21.0393701,55.4161736 C19.2755906,53.6489152 19.2755906,50.6193294 21.0393701,48.852071 L48.7559055,21.0808679 Z" id="Shape" fill="#FFFFFF" fill-rule="nonzero"></path>
                </g>
            </g>
        </g>
    </g>
</svg>