<svg width="80px" height="80px" viewBox="0 0 80 80" version="1.1" xmlns="http://www.w3.org/2000/svg" xmlns:xlink="http://www.w3.org/1999/xlink">
    <!-- Generator: Sketch 50.2 (55047) - http://www.bohemiancoding.com/sketch -->
    <title>ico-pregunta</title>
    <desc>Created with Sketch.</desc>
    <defs>
        <path d="M0,16.5486486 C0,14.0414414 0.804864865,11.5009009 2.41495495,8.92756757 C4.0245045,6.35423423 6.37405405,4.22306306 9.46198198,2.53369369 C12.5500901,0.844864865 16.1527928,0 20.2700901,0 C24.0967568,0 27.4754955,0.706486486 30.4052252,2.11801802 C33.334955,3.53027027 35.5976577,5.45045045 37.194955,7.87837838 C38.7915315,10.307027 39.5900901,12.9459459 39.5900901,15.7963964 C39.5900901,18.04 39.1347748,20.0066667 38.2241441,21.6953153 C37.3135135,23.3846847 36.230991,24.8428829 34.9776577,26.0699099 C33.7237838,27.2972973 31.4738739,29.3627027 28.2275676,32.2659459 C27.3300901,33.0843243 26.6104505,33.8037838 26.0699099,34.4237838 C25.5286486,35.0441441 25.1259459,35.6115315 24.8623423,36.1259459 C24.5981982,36.6407207 24.3933333,37.1553153 24.2486486,37.6700901 C24.1032432,38.1845045 23.8855856,39.089009 23.5954955,40.381982 C23.0938739,43.1272072 21.5232432,44.4994595 18.8843243,44.4994595 C17.5117117,44.4994595 16.3567568,44.050991 15.4201802,43.1533333 C14.4830631,42.2562162 14.0147748,40.9232432 14.0147748,39.1547748 C14.0147748,36.9376577 14.3574775,35.0174775 15.0441441,33.3944144 C15.7302703,31.770991 16.6407207,30.3457658 17.7758559,29.1187387 C18.9102703,27.8913514 20.4414414,26.4333333 22.3682883,24.743964 C24.0571171,23.2661261 25.2781982,22.1508108 26.0304505,21.3985586 C26.7827027,20.6463063 27.416036,19.8088288 27.9308108,18.8845045 C28.4454054,17.9609009 28.7028829,16.9581982 28.7028829,15.8756757 C28.7028829,13.7643243 27.9172973,11.9828829 26.3472072,10.530991 C24.7765766,9.07981982 22.7506306,8.35351351 20.2700901,8.35351351 C17.3663063,8.35351351 15.2284685,9.08594595 13.8563964,10.5508108 C12.4837838,12.0156757 11.3227027,14.1733333 10.3724324,17.0237838 C9.47495495,20.0066667 7.77243243,21.4974775 5.26522523,21.4974775 C3.78666667,21.4974775 2.53963964,20.9765766 1.52396396,19.9336937 C0.507927928,18.8911712 0,17.7628829 0,16.5486486 Z M19.32,59.9396396 C17.7097297,59.9396396 16.3043243,59.418018 15.1036036,58.3756757 C13.9023423,57.3335135 13.3021622,55.8753153 13.3021622,54.0010811 C13.3021622,52.3381982 13.8823423,50.9396396 15.0441441,49.8045045 C16.2052252,48.6699099 17.6304505,48.1021622 19.3198198,48.1021622 C20.9827027,48.1021622 22.3812613,48.6699099 23.5163964,49.8045045 C24.6508108,50.9396396 25.2187387,52.3381982 25.2187387,54.0010811 C25.2187387,55.8488288 24.6248649,57.3005405 23.4371171,58.356036 C22.2493694,59.4115315 20.8771171,59.9396396 19.32,59.9396396 Z" id="path-1"></path>
    </defs>
    <g id="ico-pregunta" stroke="none" stroke-width="1" fill="none" fill-rule="evenodd">
        <path d="M80,40 C80,62.0916748 62.0916748,80 40,80 C17.9083252,80 0,62.0916748 0,40 C0,17.9083252 17.9083252,0 40,0 C62.0916748,0 80,17.9083252 80,40 Z" id="Shape" fill="#E84C48" fill-rule="nonzero"></path>
        <path d="M52.5299072,14.7766113 L36.0260009,13.3203125 L22.3809814,27.1502686 L37.8515625,42.4841309 L36.0260009,57.2216797 L41.8072509,62.9553222 L37.2698975,69.3811034 L47.2351075,79.3457031 C65.1751709,76.0681153 78.9361572,60.8233642 79.9401856,42.1868897 L52.5299072,14.7766113 Z" id="Shape" fill="#D33632" fill-rule="nonzero"></path>
        <g id="Rectangle" transform="translate(20.000000, 12.000000)">
            <mask id="mask-2" fill="white">
                <use xlink:href="#path-1"></use>
            </mask>
            <use id="Mask" fill="#FFFFFF" fill-rule="nonzero" xlink:href="#path-1"></use>
        </g>
    </g>
</svg>