<svg width="120px" height="120px" viewBox="0 0 120 120" version="1.1" xmlns="http://www.w3.org/2000/svg" xmlns:xlink="http://www.w3.org/1999/xlink">
    <defs></defs>
    <g id="Estilos" stroke="none" stroke-width="1" fill="none" fill-rule="evenodd">
        <g id="MiM-02-registro-02-modal" transform="translate(-378.000000, -344.000000)" fill="#BD2D4C" fill-rule="nonzero">
            <path d="M498,404 C498,437.144435 471.134758,464 438,464 C404.865242,464 378,437.144435 378,404 C378,370.874919 404.865242,344 438,344 C471.134758,344 498,370.874919 498,404 Z M438,417 C432.477174,417 428,421.477174 428,427 C428,432.522826 432.477174,437 438,437 C443.522826,437 448,432.522826 448,427 C448,421.477174 443.522826,417 438,417 Z M428.004163,374.1635 L429.701988,408.1635 C429.781409,409.7545 430.985771,411 432.444418,411 L443.555583,411 C445.01423,411 446.218592,409.7545 446.298013,408.1635 L447.995838,374.1635 C448.081668,372.445 446.829012,371 445.253408,371 L430.746363,371 C429.17076,371 427.918333,372.445 428.004163,374.1635 Z" id="Shape"></path>
        </g>
    </g>
</svg>