<?xml version="1.0" encoding="UTF-8" standalone="no"?>
<svg width="120px" height="120px" viewBox="0 0 120 120" version="1.1" xmlns="http://www.w3.org/2000/svg" xmlns:xlink="http://www.w3.org/1999/xlink">
    <!-- Generator: Sketch 50.2 (55047) - http://www.bohemiancoding.com/sketch -->
    <title>icon-mas-boletas</title>
    <desc>Created with Sketch.</desc>
    <defs></defs>
    <g id="Mi-Monte-V2" stroke="none" stroke-width="1" fill="none" fill-rule="evenodd">
        <g id="MiM-05-pagar-04-sin-tarjeta" transform="translate(-283.000000, -262.000000)">
            <g id="icon-mas-boletas" transform="translate(283.000000, 262.000000)">
                <circle id="Oval" fill="#DFEEF4" fill-rule="evenodd" cx="60" cy="60" r="60"></circle>
                <g id="contract" stroke-width="1" fill-rule="evenodd" transform="translate(28.000000, 13.000000)">
                    <path d="M70,89.4011299 C70,90.8305085 68.8333333,92 67.4074074,92 L2.59259259,92 C1.16666667,92 0,90.8305085 0,89.4011299 L0,2.59887006 C0,1.16949153 1.16666667,0 2.59259259,0 L52.3703704,0 C53.7962963,0 55.7879259,0.826960452 56.7961852,1.83766102 L68.1665185,13.2355254 C69.175037,14.2464859 70,16.2429379 70,17.6723164 L70,89.4011299 Z" id="Shape" fill="#FFFFFF" fill-rule="nonzero"></path>
                    <path d="M70,89.4011299 C70,90.8305085 68.8333333,92 67.4074074,92 L2.59259259,92 C1.16666667,92 0,90.8305085 0,89.4011299 L0,2.59887006 C0,1.16949153 1.16666667,0 2.59259259,0 L52.3703704,0 C53.7962963,0 55.7879259,0.826960452 56.7961852,1.83766102 L68.1665185,13.2355254 C69.175037,14.2464859 70,16.2429379 70,17.6723164 L70,89.4011299 Z" id="Shape" fill="#FFFFFF" fill-rule="nonzero"></path>
                    <path d="M67.8360638,13.2178015 L56.7821985,2.1639362 C56.3378461,1.71958377 55.6966478,1.31303784 55,1 L55,12.4795665 C55,13.8658049 56.1341951,15 57.5204335,15 L69,15 C68.6869622,14.3031001 68.2801642,13.6619018 67.8360638,13.2178015 Z" id="Shape" fill="#BDC3C7" fill-rule="nonzero"></path>
                    <path d="M5.64377682,24 L64.3562232,24 C64.7118455,24 65,23.7762 65,23.5 C65,23.2238 64.7118455,23 64.3562232,23 L5.64377682,23 C5.28815451,23 5,23.2238 5,23.5 C5,23.7762 5.28815451,24 5.64377682,24 Z" id="Shape" fill="#BDC3C7" fill-rule="nonzero"></path>
                    <path d="M5.64377682,27 L64.3562232,27 C64.7118455,27 65,26.7762 65,26.5 C65,26.2238 64.7118455,26 64.3562232,26 L5.64377682,26 C5.28815451,26 5,26.2238 5,26.5 C5,26.7762 5.28815451,27 5.64377682,27 Z" id="Shape" fill="#BDC3C7" fill-rule="nonzero"></path>
                    <path d="M5.65326633,30 L56.3467337,30 C56.707598,30 57,29.7762 57,29.5 C57,29.2238 56.707598,29 56.3467337,29 L5.65326633,29 C5.29240201,29 5,29.2238 5,29.5 C5,29.7762 5.29240201,30 5.65326633,30 Z" id="Shape" fill="#BDC3C7" fill-rule="nonzero"></path>
                    <path d="M5.64814815,37 L60.3518519,37 C60.7098889,37 61,36.7762 61,36.5 C61,36.2238 60.7098889,36 60.3518519,36 L5.64814815,36 C5.29011111,36 5,36.2238 5,36.5 C5,36.7762 5.29011111,37 5.64814815,37 Z" id="Shape" fill="#BDC3C7" fill-rule="nonzero"></path>
                    <path d="M5.64285714,44 L58.3571429,44 C58.7122571,44 59,43.7762 59,43.5 C59,43.2238 58.7122571,43 58.3571429,43 L5.64285714,43 C5.28774286,43 5,43.2238 5,43.5 C5,43.7762 5.28774286,44 5.64285714,44 Z" id="Shape" fill="#BDC3C7" fill-rule="nonzero"></path>
                    <path d="M5.65028902,52 L49.349711,52 C49.7089306,52 50,51.7762 50,51.5 C50,51.2238 49.7089306,51 49.349711,51 L5.65028902,51 C5.29106936,51 5,51.2238 5,51.5 C5,51.7762 5.29106936,52 5.65028902,52 Z" id="Shape" fill="#BDC3C7" fill-rule="nonzero"></path>
                    <path d="M5.65028902,55 L49.349711,55 C49.7089306,55 50,54.7762 50,54.5 C50,54.2238 49.7089306,54 49.349711,54 L5.65028902,54 C5.29106936,54 5,54.2238 5,54.5 C5,54.7762 5.29106936,55 5.65028902,55 Z" id="Shape" fill="#BDC3C7" fill-rule="nonzero"></path>
                    <path d="M5.64864865,58 L52.3513514,58 C52.7096649,58 53,57.7762 53,57.5 C53,57.2238 52.7096649,57 52.3513514,57 L5.64864865,57 C5.29033514,57 5,57.2238 5,57.5 C5,57.7762 5.29033514,58 5.64864865,58 Z" id="Shape" fill="#BDC3C7" fill-rule="nonzero"></path>
                    <path d="M5.64864865,64 L52.3513514,64 C52.7096649,64 53,63.7762 53,63.5 C53,63.2238 52.7096649,63 52.3513514,63 L5.64864865,63 C5.29033514,63 5,63.2238 5,63.5 C5,63.7762 5.29033514,64 5.64864865,64 Z" id="Shape" fill="#BDC3C7" fill-rule="nonzero"></path>
                    <path d="M5.65028902,72 L49.349711,72 C49.7089306,72 50,71.7762 50,71.5 C50,71.2238 49.7089306,71 49.349711,71 L5.65028902,71 C5.29106936,71 5,71.2238 5,71.5 C5,71.7762 5.29106936,72 5.65028902,72 Z" id="Shape" fill="#BDC3C7" fill-rule="nonzero"></path>
                    <path d="M5.65028902,75 L49.349711,75 C49.7089306,75 50,74.7762 50,74.5 C50,74.2238 49.7089306,74 49.349711,74 L5.65028902,74 C5.29106936,74 5,74.2238 5,74.5 C5,74.7762 5.29106936,75 5.65028902,75 Z" id="Shape" fill="#BDC3C7" fill-rule="nonzero"></path>
                    <path d="M5.64864865,78 L52.3513514,78 C52.7096649,78 53,77.7762 53,77.5 C53,77.2238 52.7096649,77 52.3513514,77 L5.64864865,77 C5.29033514,77 5,77.2238 5,77.5 C5,77.7762 5.29033514,78 5.64864865,78 Z" id="Shape" fill="#BDC3C7" fill-rule="nonzero"></path>
                    <path d="M5.64864865,84 L52.3513514,84 C52.7096649,84 53,83.7762 53,83.5 C53,83.2238 52.7096649,83 52.3513514,83 L5.64864865,83 C5.29033514,83 5,83.2238 5,83.5 C5,83.7762 5.29033514,84 5.64864865,84 Z" id="Shape" fill="#BDC3C7" fill-rule="nonzero"></path>
                    <rect id="Rectangle-path" fill="#8E2334" fill-rule="nonzero" x="5" y="10" width="41" height="5"></rect>
                    <path d="M5.64814815,41 L60.3518519,41 C60.7098889,41 61,40.7762 61,40.5 C61,40.2238 60.7098889,40 60.3518519,40 L5.64814815,40 C5.29011111,40 5,40.2238 5,40.5 C5,40.7762 5.29011111,41 5.64814815,41 Z" id="Shape" fill="#BDC3C7" fill-rule="nonzero"></path>
                    <path d="M5.64814815,41 L60.3518519,41 C60.7098889,41 61,40.7762 61,40.5 C61,40.2238 60.7098889,40 60.3518519,40 L5.64814815,40 C5.29011111,40 5,40.2238 5,40.5 C5,40.7762 5.29011111,41 5.64814815,41 Z" id="Shape" fill="#BDC3C7" fill-rule="nonzero"></path>
                </g>
                <path d="M113,74 C113,82.2842146 106.284215,89 98,89 C89.7157854,89 83,82.2842146 83,74 C83,65.7157854 89.7157854,59 98,59 C106.284215,59 113,65.7157854 113,74 Z" id="Shape" fill="#EEEEEE" fill-rule="evenodd"></path>
                <path d="M110,74 C110,80.6273717 104.627372,86 98,86 C91.3726283,86 86,80.6273717 86,74 C86,67.3726283 91.3726283,62 98,62 C104.627372,62 110,67.3726283 110,74 Z" id="Shape" fill="#7ED321" fill-rule="nonzero"></path>
                <path d="M102.355094,72.3810013 C102.794937,72.3810013 103.15164,72.7377045 103.15164,73.177547 L103.15164,73.9740927 C103.15164,74.4139353 102.794937,74.7706384 102.355094,74.7706384 L98.7706384,74.7706384 L98.7706384,78.3550941 C98.7706384,78.7949367 98.4139353,79.1516398 97.9740927,79.1516398 L97.177547,79.1516398 C96.7377045,79.1516398 96.3810013,78.7949367 96.3810013,78.3550941 L96.3810013,74.7706384 L92.7965457,74.7706384 C92.3567031,74.7706384 92,74.4139353 92,73.9740927 L92,73.177547 C92,72.7377045 92.3567031,72.3810013 92.7965457,72.3810013 L96.3810013,72.3810013 L96.3810013,68.7965457 C96.3810013,68.3567031 96.7377045,68 97.177547,68 L97.9740927,68 C98.4139353,68 98.7706384,68.3567031 98.7706384,68.7965457 L98.7706384,72.3810013 L102.355094,72.3810013 Z" id="Shape" fill="#FFFFFF" fill-rule="nonzero"></path>
            </g>
        </g>
    </g>
</svg>