<svg width="33px" height="39px" viewBox="0 0 33 39" version="1.1" xmlns="http://www.w3.org/2000/svg" xmlns:xlink="http://www.w3.org/1999/xlink">
    <!-- Generator: Sketch 50.2 (55047) - http://www.bohemiancoding.com/sketch -->
    <title>shield</title>
    <desc>Created with Sketch.</desc>
    <defs></defs>
    <g id="Mi-Monte-V2" stroke="none" stroke-width="1" fill="none" fill-rule="evenodd">
        <g id="MiM-07-registro-tarjetas-01-sin-tarjeta" transform="translate(-354.000000, -601.000000)" fill-rule="nonzero">
            <g id="shield" transform="translate(354.000000, 601.000000)">
                <path d="M31.2568495,26.0439307 C30.2152696,28.8849052 28.6400388,31.3551366 26.5743222,33.3852966 C24.2230065,35.6960432 21.1440924,37.5322029 17.4230236,38.8420028 C17.3009196,38.8848495 17.1734938,38.91996 17.0454768,38.9458465 C16.8763641,38.9794693 16.704295,38.9976196 16.5337041,39 L16.5002954,39 C16.3184699,39 16.1357573,38.9815521 15.9545229,38.9458465 C15.8265059,38.91996 15.700854,38.8848495 15.5793413,38.8428954 C11.8538377,37.5351783 8.77108021,35.6999112 6.41739914,33.3891648 C4.35079569,31.3590047 2.77586051,28.890261 1.73575883,26.0492866 C-0.155523416,20.8838786 -0.04790622,15.1935985 0.0387196295,10.6209031 L0.0401978677,10.5506822 C0.0576413209,10.1730956 0.0688760374,9.77646601 0.0750847741,9.33847749 C0.10671942,7.18810866 1.80553256,5.40907785 3.94250109,5.28916657 C8.39796807,5.03892995 11.8446725,3.57648866 14.7896563,0.687609265 L14.815378,0.663805541 C15.3043854,0.212427374 15.920523,-0.00894725571 16.5337041,0.000276725288 C17.125007,0.00801295452 17.7139446,0.229089981 18.1855087,0.663805541 L18.210639,0.687609265 C21.1562142,3.57648866 24.6029185,5.03892995 29.0583856,5.28916657 C31.195354,5.40907785 32.8941672,7.18810866 32.9258019,9.33847749 C32.9320106,9.77944151 32.9432453,10.175476 32.9606887,10.5506822 L32.9615757,10.5804368 C33.0479059,15.161761 33.1549318,20.8633479 31.2568495,26.0439307 Z" id="Shape" fill="#00DD80"></path>
                <path d="M31.2532816,26.0438388 C30.2095697,28.8848334 28.6311146,31.3550824 26.5611698,33.3852568 C24.2050412,35.6960197 21.1198251,37.5321925 17.3911398,38.8420016 C17.2687859,38.8848487 17.1410992,38.9199594 17.0128202,38.9458461 C16.8433613,38.9794692 16.67094,38.9976196 16.5,39 L16.5,0 C17.0925132,0.00773628412 17.6826563,0.228814879 18.1551856,0.663533524 L18.1803673,0.687337416 C21.1319717,3.57623731 24.5857309,5.03868897 29.0503177,5.28892738 C31.1916602,5.4088395 32.8939506,7.18788294 32.92565,9.33826703 C32.9318714,9.77923417 32.9431291,10.1752715 32.9606083,10.5504803 L32.9614971,10.5802352 C33.048004,15.1615918 33.1552489,20.8632192 31.2532816,26.0438388 Z" id="Shape" fill="#00AA63"></path>
                <path d="M27,20.2498507 C27,25.6142684 22.644414,29.9808979 17.2844734,30 L17.2501493,30 C11.8743897,30 7.5,25.6259088 7.5,20.2498507 C7.5,14.8740911 11.8743897,10.5 17.2501493,10.5 L17.2844734,10.5 C22.644414,10.5191021 27,14.8857315 27,20.2498507 Z" id="Shape" fill="#FFFFFF"></path>
                <path d="M25.5,20.2498507 C25.5,25.6142684 21.4651931,29.9808979 16.5,30 L16.5,10.5 C21.4651931,10.5191021 25.5,14.8857315 25.5,20.2498507 Z" id="Shape" fill="#E1EBF0"></path>
                <path d="M20.6872764,18.4245972 L16.6031308,22.737993 L15.72062,23.6699141 C15.5121375,23.8900691 15.2386952,24 14.9655305,24 C14.6920882,24 14.4189235,23.8900691 14.2101635,23.6699141 L12.3127236,21.6653605 C11.8957588,21.2250505 11.8957588,20.5118188 12.3127236,20.0712157 C12.7291332,19.6309057 13.4053825,19.6309057 13.8223473,20.0712157 L14.9655305,21.2784037 L19.1776527,16.8304523 C19.5946175,16.3898492 20.2708668,16.3898492 20.6872764,16.8304523 C21.1042412,17.2707623 21.1042412,17.9848735 20.6872764,18.4245972 Z" id="Shape" fill="#B4D2D7"></path>
                <path d="M20.6799413,18.3511696 L16.5,22.5 L16.5,19.4325047 L19.1349086,16.8178448 C19.5616536,16.3940517 20.2537646,16.3940517 20.6799413,16.8178448 C21.1066862,17.241356 21.1066862,17.9282223 20.6799413,18.3511696 Z" id="Shape" fill="#6FA5AA"></path>
            </g>
        </g>
    </g>
</svg>