<svg width="120px" height="120px" viewBox="0 0 120 120" version="1.1" xmlns="http://www.w3.org/2000/svg" xmlns:xlink="http://www.w3.org/1999/xlink">
    <!-- Generator: Sketch 50.2 (55047) - http://www.bohemiancoding.com/sketch -->
    <title>icon-tarjetas</title>
    <desc>Created with Sketch.</desc>
    <defs></defs>
    <g id="Mi-Monte-V2" stroke="none" stroke-width="1" fill="none" fill-rule="evenodd">
        <g id="MiM-07-registro-tarjetas-01-sin-tarjeta" transform="translate(-281.000000, -294.000000)">
            <g id="icon-tarjetas" transform="translate(281.000000, 294.000000)">
                <circle id="Oval" fill="#DFEEF4" cx="60" cy="60" r="60"></circle>
                <g id="debit-card" stroke-width="1" transform="translate(8.470588, 12.705882)">
                    <path d="M85.5273695,26.2642084 L69.1764706,9.88235294 L69.1764706,75.5294118 L91.0588235,75.5294118 L91.0588235,39.5654185 C91.0588235,34.571782 89.0674523,29.7845187 85.5273695,26.2642084 Z" id="Shape" fill="#FFB782" fill-rule="nonzero"></path>
                    <path d="M12.9015176,63.0529487 L0.423363721,30.9687802 C-0.829040921,27.7480427 0.791114306,24.1301705 4.04470944,22.8891249 L62.9415475,0.419321773 C66.1933311,-0.821125794 69.8460775,0.783561137 71.0984823,4.006093 L83.5766362,36.0902614 C84.829041,39.310999 83.2088858,42.9288712 79.9552905,44.1699166 L21.0602641,66.6397199 C17.8066688,67.8801673 14.1557338,66.2736862 12.9015176,63.0529487 Z" id="Shape" fill="#E84C48" fill-rule="nonzero"></path>
                    <polygon id="Shape" fill="#7A4930" fill-rule="nonzero" points="75.7965545 16.2352941 5.64705882 43.0855105 10.3180933 55.0588235 80.4705882 28.2210458"></polygon>
                    <path d="M0,40.3763915 L0,6.21184395 C0,2.78142267 2.79196722,0 6.23539351,0 L68.5881359,0 C72.0315622,0 74.8235294,2.78142267 74.8235294,6.21184395 L74.8235294,40.3763915 C74.8235294,43.8068126 72.0315622,46.5882353 68.5881359,46.5882353 L6.23539351,46.5882353 C2.79196722,46.5882353 0,43.8068126 0,40.3763915 Z" id="Shape" fill="#BD2D4C" fill-rule="nonzero"></path>
                    <path d="M68.5489411,0 L61.8823411,0 L14.8235294,46.5882353 L68.5489411,46.5882353 C72.0140123,46.5882353 74.8235294,43.8068126 74.8235294,40.3763915 L74.8235294,6.21184395 C74.8235294,2.78142267 72.0140123,0 68.5489411,0 Z" id="Shape" fill="#802331" fill-rule="nonzero"></path>
                    <polygon id="Shape" fill="#FFFFFF" fill-rule="nonzero" points="6.35294118 24.7058824 12.7058824 24.7058824 12.7058824 28.2352941 6.35294118 28.2352941"></polygon>
                    <polygon id="Shape" fill="#FFFFFF" fill-rule="nonzero" points="6.35294118 34.5882353 12.7058824 34.5882353 12.7058824 38.1176471 6.35294118 38.1176471"></polygon>
                    <polygon id="Shape" fill="#FFFFFF" fill-rule="nonzero" points="34.5882353 34.5882353 40.9411765 34.5882353 40.9411765 38.1176471 34.5882353 38.1176471"></polygon>
                    <polygon id="Shape" fill="#FFFFFF" fill-rule="nonzero" points="16.2352941 24.7058824 22.5882353 24.7058824 22.5882353 28.2352941 16.2352941 28.2352941"></polygon>
                    <polygon id="Shape" fill="#FFFFFF" fill-rule="nonzero" points="24.7058824 24.7058824 31.0588235 24.7058824 31.0588235 28.2352941 24.7058824 28.2352941"></polygon>
                    <polygon id="Shape" fill="#FFFFFF" fill-rule="nonzero" points="34.5882353 24.7058824 40.9411765 24.7058824 40.9411765 28.2352941 34.5882353 28.2352941"></polygon>
                    <polygon id="Shape" fill="#FFFFFF" fill-rule="nonzero" points="64.2352941 6.35294118 67.7647059 6.35294118 67.7647059 10.5882353 64.2352941 10.5882353"></polygon>
                    <polygon id="Shape" fill="#FFFFFF" fill-rule="nonzero" points="58.5882353 6.35294118 62.1176471 6.35294118 62.1176471 10.5882353 58.5882353 10.5882353"></polygon>
                    <polygon id="Shape" fill="#FFFFFF" fill-rule="nonzero" points="52.2352941 6.35294118 55.7647059 6.35294118 55.7647059 10.5882353 52.2352941 10.5882353"></polygon>
                    <polygon id="Shape" fill="#FFFFFF" fill-rule="nonzero" points="45.8823529 6.35294118 49.4117647 6.35294118 49.4117647 10.5882353 45.8823529 10.5882353"></polygon>
                    <polygon id="Shape" fill="#474D56" fill-rule="nonzero" points="62.8235294 74.8235294 91.0588235 74.8235294 91.0588235 91.0588235 62.8235294 91.0588235"></polygon>
                    <path d="M57.999361,28.7972269 C55.3820281,26.158874 51.1465789,26.1666409 48.5386949,28.814553 C46.0170315,31.3746396 45.9296296,35.4881044 48.3396782,38.1563299 L60.9851993,52.1128345 C57.1843974,58.8425463 57.3467995,67.1411701 61.406264,73.7137517 L62.5283156,75.5294118 L82.5882353,75.5294118 L82.5882353,53.6739796 L57.999361,28.7972269 Z" id="Shape" fill="#FFB782" fill-rule="nonzero"></path>
                    <polygon id="Shape" fill="#E84C48" fill-rule="nonzero" points="67.0588235 79.7647059 70.5882353 79.7647059 70.5882353 83.2941176 67.0588235 83.2941176"></polygon>
                    <path d="M6.35294118,16.5175255 L6.35294118,8.89423933 C6.35294118,7.49017361 7.49022801,6.35294118 8.89436074,6.35294118 L16.5180118,6.35294118 C17.9221447,6.35294118 19.0588235,7.49017361 19.0588235,8.89423933 L19.0588235,16.5175255 C19.0588235,17.9215911 17.9221447,19.0588235 16.5180118,19.0588235 L8.89436074,19.0588235 C7.49022801,19.0588235 6.35294118,17.9215911 6.35294118,16.5175255 Z" id="Shape" fill="#FDB62F" fill-rule="nonzero"></path>
                    <polygon id="Shape" fill="#FD7B2F" fill-rule="nonzero" points="6.35294118 10.5882353 10.5882353 10.5882353 10.5882353 14.1176471 6.35294118 14.1176471"></polygon>
                    <polygon id="Shape" fill="#FD7B2F" fill-rule="nonzero" points="14.1176471 10.5882353 18.3529412 10.5882353 18.3529412 14.1176471 14.1176471 14.1176471"></polygon>
                    <path d="M81.6440361,54.3529412 C81.2069203,54.3529412 80.7862276,54.1792424 80.4773407,53.8691112 L73.8751198,47.2672958 C73.2415542,46.6122937 73.2598726,45.5675747 73.91681,44.9334164 C74.5573241,44.3163122 75.5705237,44.3163122 76.2091427,44.9334164 L82.8113634,51.5352317 C83.4550357,52.1807595 83.4550357,53.2254783 82.8113634,53.8691112 C82.5005816,54.1792424 82.081784,54.3529412 81.6440361,54.3529412 Z" id="Shape" fill="#F2A46F" fill-rule="nonzero"></path>
                </g>
            </g>
        </g>
    </g>
</svg>