<svg width="100px" height="100px" viewBox="0 0 100 100" version="1.1" xmlns="http://www.w3.org/2000/svg" xmlns:xlink="http://www.w3.org/1999/xlink">
    <!-- Generator: Sketch 50.2 (55047) - http://www.bohemiancoding.com/sketch -->
    <title>icon-card-check</title>
    <desc>Created with Sketch.</desc>
    <defs></defs>
    <g id="Mi-Monte-V2" stroke="none" stroke-width="1" fill="none" fill-rule="evenodd">
        <g id="MiM-07-registro-tarjetas-04-eliminar-tarjeta" transform="translate(-486.000000, -408.000000)">
            <g id="icon-card-delete" transform="translate(486.000000, 408.000000)">
                <circle id="Oval" fill="#E4F0F5" fill-rule="nonzero" cx="50" cy="50" r="50"></circle>
                <g id="Group-2" stroke-width="1" fill-rule="evenodd" transform="translate(7.000000, 18.000000)">
                    <path d="M86,5.36363636 L86,53.6363636 C86,56.5997204 83.5946351,59 80.625,59 L5.375,59 C2.40536491,59 0,56.5997204 0,53.6363636 L0,5.36363636 C0,2.40027957 2.40536491,0 5.375,0 L80.625,0 C83.5946351,0 86,2.40027957 86,5.36363636 Z" id="Shape" fill="#8E2334" fill-rule="nonzero"></path>
                    <g id="Group" transform="translate(13.000000, 13.000000)" fill="#FFFFFF" fill-rule="nonzero">
                        <polygon id="Shape" points="0 0 10.7272727 0 10.7272727 5 0 5"></polygon>
                        <polygon id="Shape" points="16.0909091 0 26.8181818 0 26.8181818 5 16.0909091 5"></polygon>
                        <polygon id="Shape" points="32.1818182 0 42.9090909 0 42.9090909 5 32.1818182 5"></polygon>
                        <polygon id="Shape" points="48.2727273 0 59 0 59 5 48.2727273 5"></polygon>
                    </g>
                    <path d="M43,53.6 C41.6512696,41.4743896 31.350078,32 18.882225,32 C11.2482004,32 4.45054683,35.5371583 0,41.0722901 L0,59 L43,59 L43,53.6 Z" id="Shape" fill="#580E19" fill-rule="nonzero"></path>
                    <path d="M38,57 C38,67.4933385 29.4933385,76 19,76 C8.50666151,76 0,67.4933385 0,57 C0,46.5066615 8.50666151,38 19,38 C29.4933385,38 38,46.5066615 38,57 Z" id="Shape" fill="#E84C48" fill-rule="nonzero"></path>
                    <path d="M26.7142857,55.0714286 L20.9285714,55.0714286 L20.9285714,49.2857143 C20.9285714,48.5757589 20.3528125,48 19.6428571,48 L18.3571429,48 C17.6471875,48 17.0714286,48.5757589 17.0714286,49.2857143 L17.0714286,55.0714286 L11.2857143,55.0714286 C10.5757589,55.0714286 10,55.6471875 10,56.3571429 L10,57.6428571 C10,58.3528125 10.5757589,58.9285714 11.2857143,58.9285714 L17.0714286,58.9285714 L17.0714286,64.7142857 C17.0714286,65.4242411 17.6471875,66 18.3571429,66 L19.6428571,66 C20.3528125,66 20.9285714,65.4242411 20.9285714,64.7142857 L20.9285714,58.9285714 L26.7142857,58.9285714 C27.4242411,58.9285714 28,58.3528125 28,57.6428571 L28,56.3571429 C28,55.6471875 27.4242411,55.0714286 26.7142857,55.0714286 Z" id="Shape" fill="#FFFFFF" fill-rule="nonzero" transform="translate(19.000000, 57.000000) rotate(45.000000) translate(-19.000000, -57.000000) "></path>
                </g>
            </g>
        </g>
    </g>
</svg>