<svg width="50px" height="38px" viewBox="0 0 50 38" version="1.1" xmlns="http://www.w3.org/2000/svg" xmlns:xlink="http://www.w3.org/1999/xlink">
    <!-- Generator: Sketch 50.2 (55047) - http://www.bohemiancoding.com/sketch -->
    <title>logo-mastercard</title>
    <desc>Created with Sketch.</desc>
    <defs></defs>
    <g id="Page-1" stroke="none" stroke-width="1" fill="none" fill-rule="evenodd">
        <g id="logo-mastercard">
            <path d="M9.12393162,37.690989 L9.12393162,35.1854945 C9.15416244,34.7592244 8.99521875,34.3408544 8.68765006,34.0371187 C8.38008136,33.7333829 7.95363086,33.5736538 7.51709402,33.5986813 C6.94180946,33.5618288 6.39159381,33.8338486 6.08119658,34.3085714 C5.79820338,33.8480028 5.28003347,33.5756122 4.73076923,33.5986813 C4.25252879,33.5750574 3.79724853,33.800672 3.53418803,34.1916484 L3.53418803,33.6989011 L2.64529915,33.6989011 L2.64529915,37.690989 L3.54273504,37.690989 L3.54273504,35.4945055 C3.50408477,35.2181036 3.5937084,34.93927 3.78714839,34.7340961 C3.98058839,34.5289222 4.25765351,34.4188239 4.54273504,34.4338462 C5.13247863,34.4338462 5.43162393,34.8096703 5.43162393,35.4861538 L5.43162393,37.7076923 L6.32905983,37.7076923 L6.32905983,35.4945055 C6.29199554,35.2184179 6.38216719,34.9404878 6.57524853,34.7356943 C6.76832988,34.5309007 7.04442867,34.4203427 7.32905983,34.4338462 C7.93589744,34.4338462 8.22649573,34.8096703 8.22649573,35.4861538 L8.22649573,37.7076923 L9.12393162,37.690989 Z M22.4017094,33.6989011 L20.9401709,33.6989011 L20.9401709,32.4879121 L20.042735,32.4879121 L20.042735,33.6989011 L19.2307692,33.6989011 L19.2307692,34.4923077 L20.0598291,34.4923077 L20.0598291,36.3296703 C20.0598291,37.2567033 20.4273504,37.8079121 21.4786325,37.8079121 C21.8713925,37.8092013 22.2565417,37.7020875 22.5897436,37.4989011 L22.3333333,36.7556044 C22.0949587,36.8945381 21.8244149,36.972122 21.5470085,36.9810989 C21.1196581,36.9810989 20.957265,36.7138462 20.957265,36.312967 L20.957265,34.4923077 L22.4102564,34.4923077 L22.4017094,33.6989011 Z M29.982906,33.5986813 C29.5414177,33.5859941 29.1281979,33.8103134 28.9059829,34.1832967 L28.9059829,33.6989011 L28.025641,33.6989011 L28.025641,37.690989 L28.9145299,37.690989 L28.9145299,35.4527473 C28.9145299,34.792967 29.2051282,34.4254945 29.7692308,34.4254945 C29.9593522,34.4229533 30.1481261,34.4570073 30.3247863,34.5257143 L30.5982906,33.6905495 C30.3952872,33.6195872 30.1814124,33.5828734 29.965812,33.581978 L29.982906,33.5986813 Z M18.5213675,34.0162637 C18.0182158,33.7239465 17.4397222,33.5790052 16.8547009,33.5986813 C15.8205128,33.5986813 15.1452991,34.0830769 15.1452991,34.8764835 C15.1452991,35.5279121 15.6410256,35.9287912 16.5555556,36.0540659 L16.982906,36.1125275 C17.4700855,36.1793407 17.7008547,36.3046154 17.7008547,36.5301099 C17.7008547,36.8391209 17.3760684,37.0145055 16.7692308,37.0145055 C16.2811122,37.0283117 15.8024373,36.8812256 15.4102564,36.5969231 L14.982906,37.2734066 C15.5006897,37.6266774 16.120864,37.8081843 16.7521368,37.7912088 C17.9316239,37.7912088 18.6153846,37.2483516 18.6153846,36.4883516 C18.6153846,35.7283516 18.0769231,35.4193407 17.1880342,35.2940659 L16.7606838,35.2356044 C16.3760684,35.1854945 16.0683761,35.1103297 16.0683761,34.8430769 C16.0683761,34.5758242 16.3589744,34.3753846 16.8461538,34.3753846 C17.2964426,34.3804959 17.7378615,34.4983925 18.1282051,34.7178022 L18.5213675,34.0162637 Z M42.3290598,33.5986813 C41.8875715,33.5859941 41.4743517,33.8103134 41.2521368,34.1832967 L41.2521368,33.6989011 L40.3717949,33.6989011 L40.3717949,37.690989 L41.2606838,37.690989 L41.2606838,35.4527473 C41.2606838,34.792967 41.5512821,34.4254945 42.1153846,34.4254945 C42.3055061,34.4229533 42.4942799,34.4570073 42.6709402,34.5257143 L42.9444444,33.6905495 C42.741441,33.6195872 42.5275662,33.5828734 42.3119658,33.581978 L42.3290598,33.5986813 Z M30.8760684,35.6865934 C30.8546913,36.2538519 31.0789337,36.8036525 31.4937537,37.2010431 C31.9085738,37.5984338 32.4755649,37.8066216 33.0555556,37.7745055 C33.5892644,37.8010386 34.1137752,37.6311912 34.525641,37.2984615 L34.0982906,36.5969231 C33.7910132,36.8258882 33.4163174,36.9518373 33.0299145,36.956044 C32.3485901,36.9021772 31.8237557,36.3461688 31.8237557,35.6782418 C31.8237557,35.0103148 32.3485901,34.4543063 33.0299145,34.4004396 C33.4163174,34.4046462 33.7910132,34.5305954 34.0982906,34.7595604 L34.525641,34.058022 C34.1137752,33.7252923 33.5892644,33.5554449 33.0555556,33.581978 C32.4755649,33.549862 31.9085738,33.7580497 31.4937537,34.1554404 C31.0789337,34.552831 30.8546913,35.1026316 30.8760684,35.6698901 L30.8760684,35.6865934 Z M39.2008547,35.6865934 L39.2008547,33.6989011 L38.3119658,33.6989011 L38.3119658,34.1832967 C38.0057279,33.7982649 37.5286223,33.5807047 37.0299145,33.5986813 C35.8498189,33.5986813 34.8931624,34.5334714 34.8931624,35.6865934 C34.8931624,36.8397154 35.8498189,37.7745055 37.0299145,37.7745055 C37.5286223,37.7924821 38.0057279,37.574922 38.3119658,37.1898901 L38.3119658,37.6742857 L39.2008547,37.6742857 L39.2008547,35.6865934 Z M35.8931624,35.6865934 C35.9326902,35.0312682 36.5010435,34.5270123 37.1723891,34.5516347 C37.8437347,34.5762571 38.3718044,35.1207255 38.360947,35.7771023 C38.3500896,36.433479 37.8042879,36.9609869 37.1324786,36.9643956 C36.7904013,36.968625 36.4620617,36.8330567 36.226736,36.5904232 C35.9914103,36.3477897 35.870487,36.0201434 35.8931624,35.6865934 Z M25.1666667,33.5986813 C23.986571,33.614825 23.0433077,34.5627022 23.0598291,35.7158242 C23.0763504,36.8689462 24.0464001,37.7906492 25.2264957,37.7745055 C25.8413416,37.8053435 26.4459852,37.6118749 26.9230769,37.2316484 L26.4957265,36.5885714 C26.1582744,36.8530175 25.7402145,36.9999614 25.3076923,37.0061538 C24.6967378,37.0574957 24.1549488,36.624346 24.0854701,36.029011 L27.1196581,36.029011 C27.1196581,35.9204396 27.1196581,35.8118681 27.1196581,35.6949451 C27.1196581,34.4421978 26.3247863,33.607033 25.1794872,33.607033 L25.1666667,33.5986813 Z M25.1666667,34.3753846 C25.4353004,34.3697883 25.6952008,34.4687267 25.8891619,34.6504227 C26.0831231,34.8321187 26.1952471,35.0816798 26.2008547,35.3441758 L24.0641026,35.3441758 C24.0962942,34.7866295 24.5784095,34.3563376 25.1495726,34.3753846 L25.1666667,34.3753846 Z M47.4358974,35.6949451 L47.4358974,32.0953846 L46.5811966,32.0953846 L46.5811966,34.1832967 C46.2749587,33.7982649 45.7978531,33.5807047 45.2991453,33.5986813 C44.1190497,33.5986813 43.1623932,34.5334714 43.1623932,35.6865934 C43.1623932,36.8397154 44.1190497,37.7745055 45.2991453,37.7745055 C45.7978531,37.7924821 46.2749587,37.574922 46.5811966,37.1898901 L46.5811966,37.6742857 L47.4358974,37.6742857 L47.4358974,35.6949451 Z M48.9188034,37.1105495 C48.9743645,37.1098843 49.0295251,37.1198132 49.0811966,37.1397802 C49.1302747,37.1593498 49.1751985,37.1876705 49.2136752,37.2232967 C49.2512261,37.2593012 49.2816507,37.3017714 49.3034188,37.3485714 C49.3471629,37.4471406 49.3471629,37.5590132 49.3034188,37.6575824 C49.2816507,37.7043824 49.2512261,37.7468526 49.2136752,37.7828571 C49.1751985,37.8184834 49.1302747,37.846804 49.0811966,37.8663736 C49.0300352,37.8884325 48.974724,37.8998108 48.9188034,37.8997802 C48.75344,37.8985623 48.6036379,37.8042298 48.534188,37.6575824 C48.4909505,37.5589111 48.4909505,37.4472427 48.534188,37.3485714 C48.5559561,37.3017714 48.5863807,37.2593012 48.6239316,37.2232967 C48.6624083,37.1876705 48.7073322,37.1593498 48.7564103,37.1397802 C48.8120726,37.1181446 48.8717683,37.1081856 48.9316239,37.1105495 L48.9188034,37.1105495 Z M48.9188034,37.8162637 C48.961457,37.8165169 49.003686,37.8079796 49.042735,37.7912088 C49.0795027,37.7751684 49.112848,37.7525019 49.1410256,37.7243956 C49.2518363,37.6062586 49.2518363,37.4249502 49.1410256,37.3068132 C49.1129152,37.2786293 49.0795538,37.2559519 49.042735,37.24 C49.0036475,37.2233474 48.9614444,37.2148153 48.9188034,37.2149451 C48.8761993,37.2151651 48.8340676,37.2236827 48.7948718,37.24 C48.7564763,37.2553837 48.7216077,37.2780981 48.6923077,37.3068132 C48.581497,37.4249502 48.581497,37.6062586 48.6923077,37.7243956 C48.7216797,37.7530249 48.7565297,37.7757271 48.7948718,37.7912088 C48.8379871,37.8093769 48.8847016,37.8179357 48.9316239,37.8162637 L48.9188034,37.8162637 Z M48.9444444,37.3193407 C48.9843382,37.3174502 49.0236499,37.3292697 49.0555556,37.3527473 C49.082095,37.3742093 49.0964152,37.4068592 49.0940171,37.4404396 C49.0952577,37.4684824 49.0844062,37.4957484 49.0641026,37.5156044 C49.0393325,37.5375884 49.0077336,37.5508213 48.974359,37.5531868 L49.0982906,37.690989 L49,37.690989 L48.8846154,37.5531868 L48.8461538,37.5531868 L48.8461538,37.690989 L48.7649573,37.690989 L48.7649573,37.3235165 L48.9444444,37.3193407 Z M48.8504274,37.3903297 L48.8504274,37.4905495 L48.9444444,37.4905495 C48.9611746,37.4954234 48.9789963,37.4954234 48.9957265,37.4905495 C49.0018217,37.4787299 49.0018217,37.4647866 48.9957265,37.452967 C49.0018217,37.4411475 49.0018217,37.4272042 48.9957265,37.4153846 C48.9789963,37.4105107 48.9611746,37.4105107 48.9444444,37.4153846 L48.8504274,37.3903297 Z M44.1495726,35.6949451 C44.1891004,35.0396199 44.7574538,34.535364 45.4287994,34.5599863 C46.1001449,34.5846087 46.6282146,35.1290772 46.6173572,35.7854539 C46.6064998,36.4418306 46.0606981,36.9693385 45.3888889,36.9727473 C45.0468116,36.9769766 44.7184719,36.8414084 44.4831463,36.5987748 C44.2478206,36.3561413 44.1268972,36.0284951 44.1495726,35.6949451 Z M14.1367521,35.6949451 L14.1367521,33.6989011 L13.2478632,33.6989011 L13.2478632,34.1832967 C12.9416254,33.7982649 12.4645198,33.5807047 11.965812,33.5986813 C10.7857163,33.5986813 9.82905983,34.5334714 9.82905983,35.6865934 C9.82905983,36.8397154 10.7857163,37.7745055 11.965812,37.7745055 C12.4645198,37.7924821 12.9416254,37.574922 13.2478632,37.1898901 L13.2478632,37.6742857 L14.1367521,37.6742857 L14.1367521,35.6949451 Z M10.8290598,35.6949451 C10.8685876,35.0396199 11.436941,34.535364 12.1082865,34.5599863 C12.7796321,34.5846087 13.3077018,35.1290772 13.2968444,35.7854539 C13.285987,36.4418306 12.7401853,36.9693385 12.0683761,36.9727473 C11.7248246,36.9793377 11.3941991,36.8448029 11.1569781,36.6018904 C10.919757,36.358978 10.7976984,36.0299677 10.8205128,35.6949451 L10.8290598,35.6949451 Z" id="Shape" fill="#231F20" fill-rule="nonzero"></path>
            <g id="_Group_" stroke-width="1" fill-rule="evenodd">
                <rect id="Rectangle-path" fill="#FF5F00" fill-rule="nonzero" x="18.2264957" y="3.27802198" width="13.4615385" height="23.6393407"></rect>
                <path d="M19.0811966,15.0997802 C19.0761635,10.4861176 21.2430956,6.12657892 24.957265,3.27802198 C18.6494831,-1.56591244 9.59125526,-0.860351506 4.14846064,4.89885552 C-1.29433399,10.6580626 -1.29433399,19.5373221 4.14846064,25.2965291 C9.59125526,31.0557361 18.6494831,31.7612971 24.957265,26.9173626 C21.2442772,24.06971 19.0774775,19.7119774 19.0811966,15.0997802 Z" id="_Path_" fill="#EB001B" fill-rule="nonzero"></path>
                <path d="M49.8504274,15.0997802 C49.85029,20.8554775 46.486932,26.105854 41.1887843,28.6210546 C35.8906366,31.1362552 29.5878589,30.4747033 24.957265,26.9173626 C28.6686326,24.0672924 30.8355954,19.7101392 30.8355954,15.0976923 C30.8355954,10.4852454 28.6686326,6.12809221 24.957265,3.27802198 C29.5878589,-0.279318718 35.8906366,-0.940870572 41.1887843,1.57433003 C46.486932,4.08953063 49.85029,9.33990709 49.8504274,15.0956044 L49.8504274,15.0997802 Z" id="Shape" fill="#F79E1B" fill-rule="nonzero"></path>
                <path d="M48.3803419,24.4118681 L48.3803419,23.9274725 L48.5811966,23.9274725 L48.5811966,23.8272527 L48.0726496,23.8272527 L48.0726496,23.9274725 L48.2905983,23.9274725 L48.2905983,24.4118681 L48.3803419,24.4118681 Z M49.3675214,24.4118681 L49.3675214,23.8272527 L49.2136752,23.8272527 L49.034188,24.2448352 L48.8547009,23.8272527 L48.7179487,23.8272527 L48.7179487,24.4118681 L48.8290598,24.4118681 L48.8290598,23.9734066 L48.9957265,24.3534066 L49.1111111,24.3534066 L49.2777778,23.9734066 L49.2777778,24.416044 L49.3675214,24.4118681 Z" id="Shape" fill="#F79E1B" fill-rule="nonzero"></path>
            </g>
        </g>
    </g>
</svg>