<svg width="75px" height="25px" viewBox="0 0 75 25" version="1.1" xmlns="http://www.w3.org/2000/svg" xmlns:xlink="http://www.w3.org/1999/xlink">
    <!-- Generator: Sketch 50.2 (55047) - http://www.bohemiancoding.com/sketch -->
    <title>logo-visa</title>
    <desc>Created with Sketch.</desc>
    <defs></defs>
    <g id="Page-1" stroke="none" stroke-width="1" fill="none" fill-rule="evenodd">
        <g id="logo-visa" fill="#191F71" fill-rule="nonzero">
            <polygon id="polygon9" points="32.4689521 24.6129481 26.3992167 24.6129481 30.1956641 0.438201982 36.2650676 0.438201982"></polygon>
            <path d="M54.4722823,1.02920555 C53.2750638,0.540063788 51.3761763,-8.87420525e-06 49.0282073,-8.87420525e-06 C43.0341486,-8.87420525e-06 38.8131815,3.29169982 38.7872921,7.99785198 C38.7375048,11.4700406 41.8093811,13.3985786 44.1068989,14.5563166 C46.4551998,15.7393492 47.2534561,16.5115164 47.2534561,17.5660254 C47.2295582,19.1855597 45.3558962,19.9320905 43.6083621,19.9320905 C41.1850484,19.9320905 39.8865956,19.5472033 37.9133591,18.6461707 L37.114107,18.2599162 L36.2647357,23.686621 C37.6883205,24.3545336 40.3111153,24.9472463 43.0341486,24.9732245 C49.4029397,24.9732245 53.5492259,21.7324467 53.5983493,16.7172909 C53.6225791,13.9653131 52.000509,11.856637 48.5034492,10.1335317 C46.3805188,9.02740821 45.0804065,8.28156103 45.0804065,7.14980117 C45.1053002,6.12092857 46.180042,5.06710324 48.5764706,5.06710324 C50.5497071,5.0154887 51.9995132,5.50394682 53.097821,5.99274676 L53.646809,6.24945219 L54.4722823,1.02920555 Z" id="path11"></path>
            <path d="M62.5394841,16.0486946 C63.0393486,14.6598875 64.9627979,9.28479727 64.9627979,9.28479727 C64.9375723,9.33641181 65.4616666,7.87035381 65.7613861,6.97034665 L66.1855739,9.05338639 C66.1855739,9.05338639 67.3349966,14.8400257 67.584597,16.0486946 C66.635983,16.0486946 63.7383623,16.0486946 62.5394841,16.0486946 Z M70.0318086,0.438201982 L65.3368664,0.438201982 C63.8890518,0.438201982 62.7890845,0.875045565 62.1644198,2.44399083 L53.1486041,24.6126063 L59.5173952,24.6126063 C59.5173952,24.6126063 60.5659157,21.6288758 60.7912862,20.9862577 C61.4899679,20.9862577 67.6854992,20.9862577 68.5843259,20.9862577 C68.7585814,21.8349921 69.3085651,24.6126063 69.3085651,24.6126063 L74.9285553,24.6126063 L70.0318086,0.438201982 Z" id="path13"></path>
            <path d="M21.3295422,0.438201982 L15.3852708,16.9230654 L14.7357125,13.5797422 C13.6367409,9.72198268 10.1901322,5.53060864 6.34389753,3.44654344 L11.7886364,24.5873118 L18.2072148,24.5873118 L27.7477887,0.438201982 L21.3295422,0.438201982 Z" id="path15"></path>
            <path d="M9.86551904,0.438201982 L0.0999065793,0.438201982 L6.87962061e-08,0.926660105 C7.61778851,2.93279077 12.6629013,7.768492 14.7357125,13.5807677 L12.6127821,2.47031083 C12.2632753,0.926318286 11.1891973,0.489132885 9.86551904,0.438201982 Z" id="path17"></path>
        </g>
    </g>
</svg>