<?xml version="1.0" encoding="UTF-8" standalone="no"?>
<svg width="115px" height="22px" viewBox="0 0 115 22" version="1.1" xmlns="http://www.w3.org/2000/svg" xmlns:xlink="http://www.w3.org/1999/xlink">
    <!-- Generator: Sketch 50.2 (55047) - http://www.bohemiancoding.com/sketch -->
    <title>Group</title>
    <desc>Created with Sketch.</desc>
    <defs></defs>
    <g id="Mi-Monte-V2" stroke="none" stroke-width="1" fill="none" fill-rule="evenodd">
        <g id="MiM-05-pagar-01-sin-tarjeta" transform="translate(-734.000000, -343.000000)" fill-rule="nonzero">
            <g id="Group" transform="translate(734.000000, 343.142857)">
                <path d="M48.6923034,13.8945767 L48.6923034,9.40823859 C48.6923034,7.71539366 47.661607,6.57586377 46.0027853,6.56090931 C45.0406067,6.49574276 44.120723,6.98385948 43.6016338,7.83502935 C43.1285321,7.00895107 42.26202,6.52009063 41.343238,6.56090931 C40.5441478,6.52048095 39.7841422,6.92537919 39.3446577,7.6256669 L39.3446577,6.72839927 L37.8571429,6.72839927 L37.8571429,13.8945767 L39.3589332,13.8945767 L39.3589332,9.92566292 C39.3589332,8.68145181 40.0156096,8.02345555 41.0320305,8.02345555 C42.0484514,8.02345555 42.5195453,8.69640627 42.5195453,9.91070846 L42.5195453,13.8945767 L44.0127703,13.8945767 L44.0127703,9.92566292 C44.0127703,8.68145181 44.6979979,8.02345555 45.6858676,8.02345555 C46.6737373,8.02345555 47.187658,8.69640627 47.187658,9.91070846 L47.187658,13.8945767 L48.6923034,13.8945767 Z M70.9136618,6.73438106 L68.4839591,6.73438106 L68.4839591,4.56299339 L66.9821687,4.56299339 L66.9821687,6.73438106 L65.5945829,6.73438106 L65.5945829,8.15804569 L66.9821687,8.15804569 L66.9821687,11.421109 C66.9821687,13.084045 67.5960184,14.0740303 69.3547691,14.0740303 C70.011658,14.0762533 70.6558451,13.8844836 71.2134488,13.5207152 L70.7851816,12.1867774 C70.3860978,12.4357955 69.9332443,12.5747165 69.4689737,12.5905478 C68.7266439,12.5905478 68.481104,12.112005 68.481104,11.3941909 L68.481104,8.15804569 L70.9108067,8.15804569 L70.9136618,6.73438106 Z M83.5989367,6.55492753 C82.8600908,6.53236627 82.1687193,6.93523764 81.7973593,7.60473066 L81.7973593,6.73438106 L80.3241201,6.73438106 L80.3241201,13.8945767 L81.8116349,13.8945767 L81.8116349,9.88079954 C81.8116349,8.6844427 82.2970044,8.03841001 83.2705985,8.03841001 C83.5890963,8.03358359 83.9053792,8.09456348 84.201366,8.21786354 L84.6581843,6.74933552 C84.318209,6.62196437 83.9599984,6.55622052 83.5989367,6.55492753 Z M64.4211308,7.30265055 C63.5789399,6.77850662 62.6106914,6.51896353 61.6316836,6.55492753 C59.9014841,6.55492753 58.7765688,7.42527713 58.7765688,8.84595088 C58.7765688,10.0153897 59.6045521,10.7332038 61.1348937,10.9575207 L61.8343968,11.0622019 C62.6481045,11.1818376 63.0364001,11.4061545 63.0364001,11.8099249 C63.0364001,12.36324 62.4939283,12.6802745 61.4775074,12.6802745 C60.6574917,12.7075623 59.8526889,12.4441011 59.1934156,11.9325515 L58.5167534,13.1438628 C59.382991,13.7783337 60.4209282,14.104418 61.4775074,14.0740303 C63.4503917,14.0740303 64.5952928,13.0989994 64.5952928,11.7381435 C64.5952928,10.478978 63.6930765,9.8209817 62.2084168,9.59666479 L61.5089137,9.49198357 C60.8665129,9.40225681 60.3497371,9.26766666 60.3497371,8.78912393 C60.3497371,8.26571781 60.8351066,7.95167414 61.6516694,7.95167414 C62.3998257,7.96325699 63.1328382,8.17426726 63.7815851,8.56480702 L64.4211308,7.30265055 Z M104.255692,6.55492753 C103.516846,6.53236627 102.825475,6.93523764 102.454115,7.60473066 L102.454115,6.73438106 L100.980876,6.73438106 L100.980876,13.8945767 L102.46839,13.8945767 L102.46839,9.88079954 C102.46839,8.6844427 102.95376,8.03841001 103.927354,8.03841001 C104.245852,8.03358359 104.562135,8.09456348 104.858121,8.21786354 L105.31494,6.74933552 C104.974964,6.62196437 104.616754,6.55622052 104.255692,6.55492753 Z M85.1007271,10.3144789 C85.1007271,12.4858666 86.5454152,14.0740303 88.7467087,14.0740303 C89.639321,14.1202924 90.5161775,13.8151739 91.2049625,13.2186351 L90.4911838,11.9594696 C89.9769809,12.3696815 89.3501778,12.5951949 88.703882,12.6025114 C87.5161542,12.6025114 86.6453442,11.6872984 86.6453442,10.311488 C86.6453442,8.93567764 87.5190093,8.03541912 88.703882,8.02046466 C89.3501778,8.02778106 89.9769809,8.25329452 90.4911838,8.66350646 L91.2049625,7.40434089 C90.5161775,6.80780208 89.639321,6.50268356 88.7467087,6.54894575 C86.5454152,6.54894575 85.1007271,8.13710945 85.1007271,10.3084971 L85.1007271,10.3144789 Z M99.027977,10.3144789 L99.027977,6.72540838 L97.5404622,6.72540838 L97.5404622,7.59575798 C97.0258535,6.90012388 96.2213617,6.50884707 95.3819954,6.54595485 C93.4662134,6.54595485 91.9558577,8.1191641 91.9558577,10.3055062 C91.9558577,12.4918483 93.4576481,14.0650576 95.3819954,14.0650576 C96.2213617,14.1021654 97.0258535,13.7108886 97.5404622,13.0152545 L97.5404622,13.8826132 L99.027977,13.8826132 L99.027977,10.3144789 Z M93.4947646,10.3144789 C93.4947646,9.05531332 94.2799211,8.02345555 95.5675779,8.02345555 C96.7981324,8.02345555 97.6261156,9.01344083 97.6261156,10.3144789 C97.6261156,11.615517 96.7981324,12.6055022 95.5675779,12.6055022 C94.2799211,12.6055022 93.4947646,11.5706536 93.4947646,10.3144789 Z M75.5475131,6.55492753 C73.5489327,6.55492753 72.1442162,8.08327339 72.1442162,10.3144789 C72.1442162,12.5905478 73.6031799,14.0740303 75.6474421,14.0740303 C76.6681686,14.1114937 77.6662971,13.753734 78.4511648,13.0690905 L77.7231105,11.9146062 C77.1552627,12.3905475 76.4517197,12.653762 75.7245302,12.6623292 C74.7652116,12.6623292 73.8944016,12.1987409 73.680268,10.9096664 L78.7566621,10.9096664 C78.7709376,10.7152584 78.7852132,10.5208505 78.7852132,10.311488 C78.7852132,8.0802825 77.4547297,6.55193664 75.5389477,6.55193664 L75.5475131,6.55492753 Z M75.5189619,7.94868325 C76.4782805,7.94868325 77.0921302,8.57677059 77.2491615,9.68639156 L73.705964,9.68639156 C73.8629953,8.65154289 74.4625694,7.94868325 75.521817,7.94868325 L75.5189619,7.94868325 Z M112.821037,10.3144789 L112.821037,3.85714286 L111.333522,3.85714286 L111.333522,7.60173976 C110.818913,6.90610567 110.014421,6.51482885 109.175055,6.55193664 C107.259273,6.55193664 105.748917,8.12514588 105.748917,10.311488 C105.748917,12.4978301 107.250708,14.0710394 109.175055,14.0710394 C110.014421,14.1081472 110.818913,13.7168703 111.333522,13.0212362 L111.333522,13.888595 L112.821037,13.888595 L112.821037,10.3144789 Z M114.559801,13.2335896 C114.618628,13.2333478 114.676895,13.2455555 114.731108,13.2694803 C114.783284,13.29281 114.830758,13.3263026 114.871009,13.3681797 C114.910902,13.4092719 114.942887,13.4580093 114.965228,13.5117426 C115.011591,13.6243715 115.011591,13.7520388 114.965228,13.8646678 C114.942825,13.9183651 114.910847,13.9670908 114.871009,14.0082306 C114.830628,14.049942 114.783186,14.0834122 114.731108,14.1069301 C114.676967,14.1310967 114.618651,14.1433144 114.559801,14.1428208 C114.38183,14.1451483 114.219845,14.0355583 114.148665,13.8646678 C114.102638,13.7519664 114.102638,13.624444 114.148665,13.5117426 C114.193317,13.4019224 114.27741,13.3149052 114.382784,13.2694803 C114.44063,13.2442712 114.502877,13.2320447 114.565512,13.2335896 L114.559801,13.2335896 Z M114.559801,14.0411305 C114.604895,14.0418723 114.649635,14.0327024 114.691137,14.0142124 C114.730473,13.9963697 114.766296,13.9710139 114.796776,13.9394401 C114.928906,13.8005465 114.928906,13.5758639 114.796776,13.4369702 C114.766427,13.4052301 114.730572,13.3798516 114.691137,13.3621979 C114.649587,13.3438753 114.60488,13.3347124 114.559801,13.3352799 C114.513793,13.3346414 114.46814,13.3437992 114.425611,13.3621979 C114.322237,13.4084353 114.247383,13.5052382 114.225668,13.6207687 C114.203954,13.7362992 114.23819,13.8556024 114.317117,13.9394401 C114.348356,13.9714402 114.385193,13.996828 114.425611,14.0142124 C114.469884,14.0335129 114.517581,14.0426901 114.565512,14.0411305 L114.559801,14.0411305 Z M114.585497,13.472861 C114.62825,13.469723 114.670695,13.4824269 114.705412,13.5087517 C114.733916,13.5325985 114.74983,13.5692744 114.748239,13.6074511 C114.749282,13.6401838 114.736794,13.6717967 114.713978,13.694187 C114.687799,13.7185818 114.654696,13.7332934 114.619759,13.7360595 L114.751094,13.8945767 L114.64831,13.8945767 L114.52554,13.7360595 L114.485568,13.7360595 L114.485568,13.8945767 L114.399915,13.8945767 L114.399915,13.4758518 L114.585497,13.472861 Z M114.485568,13.5506241 L114.485568,13.664278 L114.585497,13.664278 C114.603212,13.6696783 114.62203,13.6696783 114.639745,13.664278 C114.652914,13.6549199 114.660485,13.6390569 114.65973,13.6224056 C114.660485,13.6057542 114.652914,13.5898913 114.639745,13.5805331 C114.62203,13.5751328 114.603212,13.5751328 114.585497,13.5805331 L114.485568,13.5506241 Z M107.293534,10.3144789 C107.293534,9.05531332 108.078691,8.02345555 109.366348,8.02345555 C110.596902,8.02345555 111.424885,9.01344083 111.424885,10.3144789 C111.424885,11.615517 110.596902,12.6055022 109.366348,12.6055022 C108.078691,12.6055022 107.293534,11.5706536 107.293534,10.3144789 Z M57.0720653,10.3144789 L57.0720653,6.72540838 L55.5845505,6.72540838 L55.5845505,7.59575798 C55.0699215,6.90613323 54.2695296,6.51864 53.4346491,6.55492753 C51.5188671,6.55492753 50.0085114,8.12813677 50.0085114,10.3144789 C50.0085114,12.500821 51.5103017,14.0740303 53.4346491,14.0740303 C54.2740153,14.111138 55.0785071,13.7198612 55.5931159,13.0242271 L55.5931159,13.8915858 L57.0806307,13.8915858 L57.0720653,10.3144789 Z M51.5388529,10.3144789 C51.5388529,9.05531332 52.3240094,8.02345555 53.6116662,8.02345555 C54.8422207,8.02345555 55.670204,9.01344083 55.670204,10.3144789 C55.670204,11.615517 54.8422207,12.6055022 53.6116662,12.6055022 C52.3240094,12.6055022 51.5388529,11.5736445 51.5388529,10.3144789 Z" id="Shape" fill="#231F20"></path>
                <rect id="Rectangle-path" fill="#FF5F00" x="11.5714286" y="2.57142857" width="9" height="16.7142857"></rect>
                <path d="M12.7684949,10.9270536 C12.7659975,7.57416012 14.2210076,4.40625282 16.7142857,2.3361167 C12.4785985,-1.185241 6.3959817,-0.672324803 2.74113501,3.51440158 C-0.913711671,7.70112797 -0.913711671,14.1560149 2.74113501,18.3427413 C6.3959817,22.5294677 12.4785985,23.0423839 16.7142857,19.5210262 C14.2202141,17.4502326 12.7651152,14.2810124 12.7684949,10.9270536 Z" id="_Path_" fill="#EB001B"></path>
                <path d="M33.4285711,10.9300892 C33.4284789,15.1138113 31.170183,18.9302239 27.6127904,20.758482 C24.0553978,22.5867402 19.8234555,22.105869 16.7142857,19.5200963 C19.2062494,17.4484269 20.6612368,14.2812836 20.6612368,10.9285715 C20.6612368,7.57585945 19.2062494,4.40871616 16.7142857,2.3370468 C19.8238625,-0.249064547 24.0564628,-0.729696126 27.6140811,1.09932402 C31.1716993,2.92834417 33.4295777,6.74581952 33.4285711,10.9300892 Z" id="Shape" fill="#F79E1B"></path>
                <path d="M32.4418605,17.3525836 L32.4418605,16.8237082 L32.6426198,16.8237082 L32.6426198,16.718845 L32.1428571,16.718845 L32.1428571,16.8282675 L32.3436165,16.8282675 L32.3436165,17.3571429 L32.4418605,17.3525836 Z M33.4285714,17.3525836 L33.4285714,16.7142857 L33.2961557,16.7142857 L33.1167537,17.1702128 L32.9373517,16.7142857 L32.7793071,16.7142857 L32.7793071,17.3525836 L32.8690081,17.3525836 L32.8690081,16.8738602 L33.0355956,17.2887538 L33.1509255,17.2887538 L33.3175131,16.8738602 L33.3175131,17.3571429 L33.4285714,17.3525836 Z" id="Shape" fill="#F79E1B"></path>
            </g>
        </g>
    </g>
</svg>