<?xml version="1.0" encoding="UTF-8"?>
<svg width="860px" height="280px" viewBox="0 0 860 280" version="1.1" xmlns="http://www.w3.org/2000/svg" xmlns:xlink="http://www.w3.org/1999/xlink">
    <!-- Generator: Sketch 47.1 (45422) - http://www.bohemiancoding.com/sketch -->
    <title>logo_inversion_social</title>
    <desc>Created with Sketch.</desc>
    <defs></defs>
    <g id="Page-1" stroke="none" stroke-width="1" fill="none" fill-rule="evenodd">
        <g id="logo_inversion_social">
            <g id="Group">
                <g id="Shape" fill-rule="nonzero">
                    <g>
                        <g fill="#782834">
                            <polygon points="87.161 177.383 90.546 177.54 90.546 205.222 98.588 206.62 98.588 172.685 87.161 172.379"></polygon>
                            <polygon points="87.161 115.523 90.546 114.754 90.546 138.426 98.588 137.519 98.588 107.939 87.161 110.709"></polygon>
                            <path d="M87.161,81.772 L90.546,80.522 L90.546,105.457 C93.261,104.778 95.932,104.099 98.588,103.434 L98.588,72.265 L87.161,76.71 L87.161,81.772 Z"></path>
                            <polygon points="93.495 59.664 90.677 66.551 87.161 68.03 87.161 72.17 98.588 67.558 98.588 63.216 96.548 64.061"></polygon>
                            <polygon points="87.161 147.961 90.546 147.687 90.546 168.302 98.588 168.423 98.588 141.982 87.161 143.138"></polygon>
                            <polygon points="52.444 175.868 55.123 175.976 55.123 199.059 63.386 200.489 63.386 171.732 52.444 171.431"></polygon>
                            <path d="M52.444,94.687 L55.123,93.694 L55.123,114.467 C57.888,113.77 60.639,113.078 63.386,112.372 L63.386,85.971 L52.444,90.237 L52.444,94.687 L52.444,94.687 Z"></path>
                            <polygon points="58.202 74.661 55.447 81.385 52.444 82.662 52.444 86.187 63.386 81.768 63.386 78.041 61.201 78.958"></polygon>
                            <polygon points="52.444 123.372 55.123 122.769 55.123 142.423 63.386 141.497 63.386 116.436 52.444 119.088"></polygon>
                            <polygon points="52.444 150.928 55.123 150.703 55.123 167.763 63.386 167.875 63.386 145.52 52.444 146.613"></polygon>
                            <polygon points="70.794 176.668 72.843 176.758 72.843 202.139 80.98 203.559 80.98 172.218 70.794 171.921"></polygon>
                            <path d="M70.794,87.886 L72.844,87.131 L72.844,109.967 C75.573,109.275 78.297,108.582 80.981,107.895 L80.981,79.116 L70.794,83.09 L70.794,87.886 Z"></path>
                            <polygon points="75.842 67.171 73.059 73.968 70.794 74.917 70.794 78.778 80.98 74.665 80.98 70.624 78.885 71.527"></polygon>
                            <polygon points="70.794 149.363 72.843 149.193 72.843 168.037 80.98 168.145 80.98 143.767 70.794 144.783"></polygon>
                            <polygon points="70.794 119.249 72.843 118.778 72.843 140.431 80.98 139.505 80.98 112.192 70.794 114.646"></polygon>
                            <polygon points="5.261 97.15 2.596 103.673 0.006 104.752 0.006 107.351 10.588 103.107 10.588 100.306 8.192 101.304"></polygon>
                            <polygon points="0.006 173.548 1.881 173.616 1.881 189.803 10.588 191.304 10.588 170.284 0.006 170.015"></polygon>
                            <polygon points="0.006 155.369 1.881 155.234 1.881 166.949 10.588 167.066 10.588 150.807 0.006 151.863"></polygon>
                            <path d="M0.006,114.179 L1.88,113.495 L1.88,128.105 C4.784,127.368 7.684,126.639 10.587,125.875 L10.587,106.567 L0.005,110.703 L0.005,114.179 L0.006,114.179 Z"></path>
                            <polygon points="0.006 135.275 1.881 134.866 1.881 148.455 10.588 147.476 10.588 129.198 0.006 131.751"></polygon>
                            <path d="M17.713,107.593 L19.628,106.892 L19.628,123.551 C22.487,122.823 25.333,122.085 28.173,121.375 L28.173,99.712 L17.713,103.784 L17.713,107.593 Z"></path>
                            <polygon points="17.713 174.33 19.628 174.407 19.628 192.874 28.174 194.379 28.174 170.77 17.713 170.482"></polygon>
                            <polygon points="22.897 89.634 20.208 96.229 17.713 97.299 17.713 100.225 28.174 95.996 28.174 92.889 25.868 93.855"></polygon>
                            <polygon points="17.713 153.872 19.628 153.679 19.628 167.228 28.174 167.34 28.174 149.035 17.713 150.078"></polygon>
                            <polygon points="17.713 131.261 19.628 130.82 19.628 146.464 28.174 145.48 28.174 124.967 17.713 127.462"></polygon>
                            <path d="M34.777,101.282 L37.317,100.315 L37.317,119.015 C40.149,118.296 42.985,117.577 45.768,116.862 L45.768,92.834 L34.777,97.159 L34.777,101.282 Z"></path>
                            <polygon points="34.777 127.399 37.317 126.824 37.317 144.45 45.768 143.484 45.768 120.702 34.777 123.372"></polygon>
                            <polygon points="40.554 82.15 37.83 88.821 34.777 90.115 34.777 93.33 45.768 88.879 45.768 85.468 43.539 86.42"></polygon>
                            <polygon points="34.777 175.086 37.317 175.193 37.317 195.962 45.768 197.427 45.768 171.251 34.777 170.954"></polygon>
                            <polygon points="34.777 152.42 37.317 152.223 37.317 167.484 45.768 167.615 45.768 147.287 34.777 148.383"></polygon>
                            <polygon points="159.158 99.196 161.792 98.594 161.792 130.375 168.98 129.562 168.98 90.943 159.158 93.294"></polygon>
                            <polygon points="164.049 29.681 161.131 36.851 159.158 37.682 159.158 43.081 168.98 39.112 168.98 33.533 167.258 34.275"></polygon>
                            <polygon points="159.158 141.865 161.792 141.649 161.792 169.385 168.98 169.52 168.98 134.965 159.158 135.931"></polygon>
                            <path d="M159.158,55.025 L161.792,54.045 L161.792,87.445 C164.305,86.811 166.701,86.222 168.98,85.647 L168.98,44.803 L159.158,48.619 L159.158,55.025 L159.158,55.025 Z"></path>
                            <polygon points="159.158 180.57 161.792 180.687 161.792 217.62 168.98 218.897 168.98 174.605 159.158 174.339"></polygon>
                            <polygon points="141.15 143.398 143.946 143.156 143.946 169.125 151.399 169.233 151.399 136.727 141.15 137.748"></polygon>
                            <polygon points="141.15 103.264 143.946 102.644 143.946 132.389 151.399 131.544 151.399 95.168 141.15 97.654"></polygon>
                            <path d="M141.15,61.723 L143.946,60.685 L143.946,91.95 C146.522,91.307 148.99,90.686 151.4,90.066 L151.4,51.663 L141.15,55.65 L141.15,61.723 Z"></path>
                            <polygon points="146.432 37.179 143.514 44.268 141.15 45.275 141.15 50.364 151.399 46.214 151.399 40.951 149.565 41.719"></polygon>
                            <polygon points="141.15 179.756 143.946 179.895 143.946 214.51 151.399 215.795 151.399 174.141 141.15 173.845"></polygon>
                            <polygon points="177.166 95.119 179.616 94.566 179.616 128.343 186.601 127.552 186.601 86.668 177.166 88.947"></polygon>
                            <polygon points="181.702 22.196 178.766 29.42 177.166 30.094 177.166 35.812 186.601 31.996 186.601 26.121 184.925 26.822"></polygon>
                            <polygon points="177.166 181.361 179.616 181.46 179.616 220.722 186.601 221.949 186.601 175.086 177.166 174.834"></polygon>
                            <path d="M177.166,48.309 L179.616,47.396 L179.616,82.981 C182.169,82.334 184.502,81.754 186.601,81.228 L186.601,37.943 L177.165,41.603 L177.165,48.309 L177.166,48.309 Z"></path>
                            <polygon points="177.166 140.337 179.616 140.135 179.616 169.664 186.601 169.79 186.601 133.198 177.166 134.129"></polygon>
                            <polygon points="123.169 107.351 126.131 106.672 126.131 134.398 133.791 133.531 133.791 99.43 123.169 102.015"></polygon>
                            <path d="M123.169,68.412 L126.131,67.288 L126.131,96.44 C128.734,95.802 131.278,95.15 133.791,94.516 L133.791,58.527 L123.169,62.676 L123.169,68.412 L123.169,68.412 Z"></path>
                            <polygon points="123.169 144.922 126.131 144.675 126.131 168.846 133.791 168.972 133.791 138.471 123.169 139.541"></polygon>
                            <polygon points="128.761 44.659 125.915 51.694 123.169 52.854 123.169 57.623 133.791 53.326 133.791 48.372 131.916 49.172"></polygon>
                            <polygon points="123.169 178.97 126.131 179.113 126.131 211.412 133.791 212.77 133.791 173.656 123.169 173.359"></polygon>
                            <polygon points="105.165 146.464 108.316 146.185 108.316 168.59 116.196 168.702 116.196 140.234 105.165 141.335"></polygon>
                            <polygon points="111.125 52.175 108.298 59.125 105.165 60.442 105.165 64.897 116.196 60.442 116.196 55.78 114.232 56.617"></polygon>
                            <polygon points="105.165 111.432 108.316 110.727 108.316 136.426 116.196 135.523 116.196 103.682 105.165 106.353"></polygon>
                            <path d="M105.165,75.092 L108.316,73.919 L108.316,100.954 C110.959,100.289 113.612,99.624 116.196,98.976 L116.196,65.387 L105.164,69.689 L105.164,75.092 L105.165,75.092 Z"></path>
                            <polygon points="105.165 178.196 108.316 178.322 108.316 208.297 116.196 209.699 116.196 173.171 105.165 172.874"></polygon>
                            <polygon points="383.833 156.322 383.833 152.64 373.165 151.44 373.165 170.667 381.136 170.698 381.136 156.052"></polygon>
                            <polygon points="383.833 178.147 383.833 174.079 373.165 174.159 373.165 198.965 381.136 197.805 381.136 178.232"></polygon>
                            <polygon points="383.833 107.993 383.833 103.916 373.165 99.853 373.165 122.724 381.136 124.743 381.136 107.031"></polygon>
                            <polygon points="383.833 97.15 381.643 96.229 378.996 89.774 376.065 93.954 373.165 92.754 373.165 95.968 383.833 100.158"></polygon>
                            <polygon points="383.833 132.641 383.833 128.825 373.165 126.226 373.165 147.763 381.136 148.752 381.136 132.03"></polygon>
                            <polygon points="330.563 120.463 330.563 115.86 319.177 113.077 319.177 206.714 326.936 205.6 326.936 119.654"></polygon>
                            <polygon points="330.563 75.227 328.087 74.207 325.349 67.477 322.315 71.838 319.177 70.525 319.177 74.665 330.563 79.156"></polygon>
                            <polygon points="326.936 87.157 330.563 88.506 330.563 83.593 319.177 79.251 319.177 108.928 330.563 111.837 330.563 106.761 326.936 105.773"></polygon>
                            <polygon points="238.922 99.479 238.922 93.554 229.177 91.185 229.177 129.962 236.302 130.834 236.302 98.877"></polygon>
                            <polygon points="238.922 142.382 238.922 136.48 229.177 135.396 229.177 170.11 236.302 170.123 236.302 142.135"></polygon>
                            <polygon points="238.922 37.525 237.565 36.981 234.674 29.861 231.474 34.459 229.177 33.51 229.177 39.161 238.922 43.032"></polygon>
                            <polygon points="238.922 55.048 238.922 48.62 229.177 44.893 229.177 85.971 236.302 87.818 236.302 54.09"></polygon>
                            <polygon points="238.922 181.397 238.922 175.131 229.177 175.175 229.177 219.67 236.302 218.636 236.302 181.451"></polygon>
                            <polygon points="366.423 128.672 366.423 124.572 355.166 121.834 355.166 145.534 363.082 146.536 363.082 127.885"></polygon>
                            <polygon points="366.423 101.651 366.423 97.272 355.166 92.966 355.166 118.126 363.082 120.144 363.082 100.446"></polygon>
                            <polygon points="366.423 154.632 366.423 150.685 355.166 149.449 355.166 170.59 363.082 170.617 363.082 154.299"></polygon>
                            <polygon points="366.423 178.538 366.423 174.205 355.166 174.29 355.166 201.536 363.082 200.394 363.082 178.61"></polygon>
                            <polygon points="366.423 89.981 363.955 88.969 361.302 82.46 358.376 86.668 355.166 85.346 355.166 88.879 366.423 93.325"></polygon>
                            <polygon points="401.841 104.559 399.539 103.611 396.927 97.227 394.042 101.345 391.191 100.158 391.191 103.062 401.841 107.288"></polygon>
                            <polygon points="401.841 114.579 401.841 110.785 391.191 106.726 391.191 127.314 399.175 129.351 399.175 113.567"></polygon>
                            <polygon points="401.841 158.048 401.841 154.65 391.191 153.463 391.191 170.721 399.175 170.77 399.175 157.801"></polygon>
                            <polygon points="401.841 136.768 401.841 133.212 391.191 130.614 391.191 149.993 399.175 150.982 399.175 136.161"></polygon>
                            <polygon points="401.841 177.76 401.841 173.939 391.191 174.02 391.191 196.367 399.175 195.189 399.175 177.819"></polygon>
                            <polygon points="419.408 140.782 419.408 137.473 409.173 134.983 409.173 152.223 417.152 153.216 417.152 140.279"></polygon>
                            <polygon points="419.408 121.021 419.408 117.487 409.173 113.594 409.173 131.89 417.152 133.945 417.152 120.18"></polygon>
                            <polygon points="419.408 111.792 416.936 110.758 414.36 104.442 411.502 108.515 409.173 107.575 409.173 110.173 419.408 114.21"></polygon>
                            <polygon points="419.408 159.748 419.408 156.61 409.173 155.459 409.173 170.801 417.152 170.829 417.152 159.509"></polygon>
                            <polygon points="419.408 177.369 419.408 173.809 409.173 173.908 409.173 193.75 417.152 192.626 417.152 177.414"></polygon>
                            <polygon points="343.595 75.061 340.601 79.349 337.176 77.942 337.176 81.768 348.891 86.402 348.891 82.779 346.302 81.714"></polygon>
                            <polygon points="337.176 121.96 341.739 122.994 341.739 203.46 348.891 202.435 348.891 120.31 337.176 117.451"></polygon>
                            <polygon points="337.176 90.956 341.739 92.633 341.739 109.747 337.176 108.51 337.176 113.531 348.891 116.534 348.891 90.592 337.176 86.106"></polygon>
                            <polygon points="198.649 0.299 196.788 15.269 194.671 18.712 194.671 28.741 198.626 27.136 198.626 27.136 198.649 27.136 198.649 27.136 198.649 27.136 202.641 28.701 202.641 18.712 200.501 15.278"></polygon>
                            <polygon points="194.68 84.703 194.68 126.64 198.649 126.204 202.609 126.694 202.609 84.703 198.649 83.755"></polygon>
                            <path d="M198.626,33.241 L194.679,34.778 L194.679,79.196 C197.107,78.589 198.495,78.243 198.648,78.202 L198.648,78.175 L198.653,78.202 L198.68,78.202 L198.68,78.202 L202.609,79.196 L202.609,35.902 L202.64,35.902 L202.64,34.765 L198.648,33.241 L198.626,33.241 Z"></path>
                            <polygon points="198.649 169.961 202.609 169.975 202.609 132.43 198.626 131.985 194.68 132.389 194.68 169.898"></polygon>
                            <polyline points="198.626 175.409 194.68 175.301 194.68 223.329 198.717 224.048 202.609 223.487 202.609 175.391 198.649 175.409"></polyline>
                            <polygon points="257.254 61.755 257.254 55.623 247.149 51.752 247.149 90.574 254.445 92.435 254.445 60.721"></polygon>
                            <polygon points="257.254 144.154 257.254 138.517 247.149 137.41 247.149 170.154 254.445 170.195 254.445 143.861"></polygon>
                            <polygon points="257.254 45.077 255.537 44.358 252.651 37.327 249.482 41.868 247.149 40.919 247.149 46.277 257.254 50.251"></polygon>
                            <polygon points="257.254 103.66 257.254 98.018 247.149 95.559 247.149 132.196 254.445 133.086 254.445 103.026"></polygon>
                            <polygon points="257.254 180.984 257.254 174.982 247.149 175.063 247.149 217.081 254.445 216.029 254.445 181.055"></polygon>
                            <polygon points="220.6 29.982 219.179 29.406 216.248 22.236 213.02 26.867 211.146 26.093 211.146 32.077 220.6 35.781"></polygon>
                            <polygon points="220.6 181.828 220.6 175.256 211.146 175.328 211.146 222.255 218.154 221.252 218.154 181.883"></polygon>
                            <polygon points="220.6 48.332 220.6 41.625 211.146 38.011 211.146 81.385 218.154 83.157 218.154 47.469"></polygon>
                            <polygon points="220.6 95.263 220.6 89.086 211.146 86.802 211.146 127.75 218.154 128.618 218.154 94.71"></polygon>
                            <polygon points="220.6 140.634 220.6 134.435 211.146 133.387 211.146 170.024 218.154 170.051 218.154 140.404"></polygon>
                            <polygon points="293.909 147.669 293.909 142.603 283.165 141.407 283.165 170.312 290.748 170.33 290.748 147.359"></polygon>
                            <polygon points="293.909 75.124 293.909 69.604 283.165 65.495 283.165 99.74 290.748 101.691 290.748 73.968"></polygon>
                            <polygon points="293.909 180.174 293.909 174.735 283.165 174.816 283.165 211.884 290.748 210.805 290.748 180.264"></polygon>
                            <polygon points="293.909 112.062 293.909 106.928 283.165 104.325 283.165 136.628 290.748 137.581 290.748 111.311"></polygon>
                            <polygon points="293.909 60.132 291.72 59.251 288.915 52.346 285.808 56.805 283.165 55.731 283.165 60.478 293.909 64.704"></polygon>
                            <polygon points="312.25 116.265 312.25 111.392 301.155 108.69 301.155 138.853 308.856 139.811 308.856 115.501"></polygon>
                            <polygon points="312.25 81.826 312.25 76.576 301.155 72.359 301.155 104.343 308.856 106.303 308.856 80.617"></polygon>
                            <polygon points="312.25 149.427 312.25 144.648 301.155 143.416 301.155 170.375 308.856 170.419 308.856 149.094"></polygon>
                            <polygon points="312.25 179.756 312.25 174.596 301.155 174.668 301.155 209.308 308.856 208.198 308.856 179.842"></polygon>
                            <polygon points="312.25 67.689 310.204 66.87 307.417 59.997 304.311 64.425 301.155 63.117 301.155 67.581 312.25 71.937"></polygon>
                            <polygon points="275.581 52.611 273.644 51.811 270.839 44.906 267.724 49.361 265.166 48.327 265.166 53.38 275.581 57.475"></polygon>
                            <polygon points="275.581 180.583 275.581 174.856 265.166 174.933 265.166 214.482 272.592 213.403 272.592 180.655"></polygon>
                            <polygon points="275.581 68.457 275.581 62.587 265.166 58.631 265.166 95.15 272.592 97.043 272.592 67.36"></polygon>
                            <polygon points="275.581 107.85 275.581 102.469 265.166 99.933 265.166 134.416 272.592 135.329 272.592 107.166"></polygon>
                            <polygon points="275.581 145.911 275.581 140.571 265.166 139.402 265.166 170.249 272.592 170.253 272.592 145.633"></polygon>
                        </g>
                        <g transform="translate(1.000000, 244.000000)" fill="#272425">
                            <polygon points="23.798 0.965 23.798 34.711 17.9 34.711 4.576 5.438 4.482 5.438 4.482 34.711 0.647 34.711 0.647 0.965 6.734 0.965 19.851 29.838 19.945 29.838 19.945 0.965 23.798 0.965"></polygon>
                            <path d="M40.053,31.295 L39.963,31.295 C38.794,34.015 36.969,35.179 34.024,35.179 C29.021,35.179 27.592,31.942 27.592,27.424 C27.592,20.254 34.587,19.935 39.963,20.061 C40.053,16.919 40.102,13.53 35.989,13.53 C33.422,13.53 32.069,15.256 32.303,17.747 L28.131,17.747 C28.316,12.469 31.125,10.636 36.124,10.636 C42.224,10.636 43.793,13.764 43.793,17.747 L43.793,29.102 C43.793,30.967 43.986,32.883 44.274,34.712 L40.053,34.712 L40.053,31.295 Z M31.409,27.699 C31.409,29.987 32.528,32.05 35.095,32.05 C37.451,32.05 40.328,30.602 39.964,22.969 C36.317,23.01 31.409,22.695 31.409,27.699 Z"></path>
                            <path d="M60.345,18.676 C60.426,14.788 58.524,13.763 57.059,13.763 C54.124,13.763 52.11,15.166 52.11,21.626 C52.11,29.281 53.09,32.05 57.059,32.05 C57.949,32.05 60.624,31.106 60.475,26.862 L64.498,26.862 C64.637,33.497 59.701,35.179 57.058,35.179 C52.073,35.179 48.103,33.677 48.103,23.257 C48.103,16.334 48.885,10.635 57.058,10.635 C61.787,10.635 64.547,13.399 64.323,18.677 L60.345,18.677 L60.345,18.676 Z"></path>
                            <path d="M67.771,0.965 L72.069,0.965 L72.069,5.069 L67.771,5.069 L67.771,0.965 Z M71.843,34.711 L68.004,34.711 L68.004,11.102 L71.843,11.102 L71.843,34.711 Z"></path>
                            <path d="M74.545,23.257 C74.545,16.334 75.336,10.635 83.522,10.635 C91.708,10.635 92.504,16.335 92.504,23.257 C92.504,33.677 88.535,35.179 83.522,35.179 C78.524,35.179 74.545,33.677 74.545,23.257 Z M88.481,21.626 C88.481,15.166 86.467,13.763 83.522,13.763 C80.582,13.763 78.569,15.166 78.569,21.626 C78.569,29.281 79.553,32.05 83.522,32.05 C87.492,32.05 88.481,29.281 88.481,21.626 Z"></path>
                            <path d="M108.107,34.711 L108.107,18.339 C108.107,15.831 107.221,13.763 103.944,13.763 C99.736,13.763 99.13,17.512 99.13,20.731 L99.13,34.711 L95.309,34.711 L95.309,16.02 C95.309,14.375 95.201,12.725 95.075,11.102 L99.13,11.102 L99.13,14.141 L99.323,14.141 C100.811,11.479 102.605,10.635 105.634,10.635 C110.678,10.635 111.945,13.665 111.945,18.34 L111.945,34.712 L108.107,34.712 L108.107,34.711 Z"></path>
                            <path d="M127.549,31.295 L127.463,31.295 C126.285,34.015 124.474,35.179 121.52,35.179 C116.517,35.179 115.078,31.942 115.078,27.424 C115.078,20.254 122.091,19.935 127.462,20.061 C127.548,16.919 127.597,13.53 123.489,13.53 C120.922,13.53 119.574,15.256 119.789,17.747 L115.626,17.747 C115.823,12.469 118.624,10.636 123.623,10.636 C129.701,10.636 131.297,13.764 131.297,17.747 L131.297,29.102 C131.297,30.967 131.49,32.883 131.769,34.712 L127.548,34.712 L127.548,31.295 L127.549,31.295 Z M118.914,27.699 C118.914,29.987 120.042,32.05 122.587,32.05 C124.947,32.05 127.837,30.602 127.464,22.969 C123.818,23.01 118.914,22.695 118.914,27.699 Z"></path>
                            <polygon points="139.241 34.711 135.411 34.711 135.411 0.965 139.241 0.965"></polygon>
                            <polygon points="154.202 34.711 150.179 34.711 150.179 0.965 157.133 0.965 165.651 29.281 165.75 29.281 174.345 0.965 181.448 0.965 181.448 34.711 177.15 34.711 177.15 4.701 177.056 4.701 167.611 34.711 163.552 34.711 154.287 4.701 154.201 4.701 154.201 34.711"></polygon>
                            <path d="M184.738,23.257 C184.738,16.334 185.516,10.635 193.693,10.635 C201.875,10.635 202.67,16.335 202.67,23.257 C202.67,33.677 198.687,35.179 193.693,35.179 C188.708,35.179 184.738,33.677 184.738,23.257 Z M198.656,21.626 C198.656,15.166 196.642,13.763 193.693,13.763 C190.749,13.763 188.744,15.166 188.744,21.626 C188.744,29.281 189.724,32.05 193.693,32.05 C197.671,32.05 198.656,29.281 198.656,21.626 Z"></path>
                            <path d="M218.296,34.711 L218.296,18.339 C218.296,15.831 217.392,13.763 214.12,13.763 C209.917,13.763 209.315,17.512 209.315,20.731 L209.315,34.711 L205.476,34.711 L205.476,16.02 C205.476,14.375 205.386,12.725 205.247,11.102 L209.315,11.102 L209.315,14.141 L209.495,14.141 C210.983,11.479 212.767,10.635 215.806,10.635 C220.854,10.635 222.113,13.665 222.113,18.34 L222.113,34.712 L218.296,34.712 L218.296,34.711 Z"></path>
                            <path d="M225.992,11.102 L225.992,6.575 L229.827,4.831 L229.827,11.102 L234.969,11.102 L234.969,13.988 L229.827,13.988 L229.827,28.445 C229.827,29.937 229.827,31.862 233.342,31.862 C233.616,31.862 234.219,31.763 235.068,31.673 L235.068,34.604 C233.8,34.712 232.542,34.977 231.283,34.977 C227.641,34.977 225.992,33.498 225.992,30.774 L225.992,13.988 L222.113,13.988 L222.113,11.102 L225.992,11.102 L225.992,11.102 Z"></path>
                            <path d="M239.037,24.134 C239.037,30.729 240.808,32.05 243.816,32.05 C246.437,32.05 247.785,29.937 247.925,27.546 L252.124,27.546 C252.088,32.788 248.852,35.179 243.902,35.179 C238.894,35.179 234.925,33.677 234.925,23.257 C234.925,16.334 235.72,10.635 243.902,10.635 C250.631,10.635 252.308,14.321 252.308,22.143 L252.308,24.134 L239.037,24.134 L239.037,24.134 Z M248.248,21.239 C248.248,14.375 246.338,13.53 243.541,13.53 C241.109,13.53 239.069,14.689 239.037,21.239 L248.248,21.239 Z"></path>
                            <path d="M274.977,0.965 L278.812,0.965 L278.812,34.711 L274.977,34.711 L274.977,31.897 L274.896,31.897 C273.574,34.1 271.938,35.179 269.474,35.179 C265.693,35.179 261.859,33.677 261.859,23.302 C261.859,17.404 262.03,10.634 269.659,10.634 C271.898,10.634 273.534,11.609 274.846,13.484 L274.976,13.484 L274.976,0.965 L274.977,0.965 Z M270.536,13.763 C266.436,13.763 265.87,17.036 265.87,23.338 C265.87,26.894 265.87,32.05 270.667,32.05 C274.978,32.05 274.978,26.709 274.978,21.963 C274.977,18.816 274.788,13.763 270.536,13.763 Z"></path>
                            <path d="M286.337,24.134 C286.337,30.729 288.126,32.05 291.102,32.05 C293.732,32.05 295.067,29.937 295.229,27.546 L299.432,27.546 C299.383,32.788 296.16,35.179 291.206,35.179 C286.189,35.179 282.233,33.677 282.233,23.257 C282.233,16.334 283.033,10.635 291.206,10.635 C297.927,10.635 299.626,14.321 299.626,22.143 L299.626,24.134 L286.337,24.134 L286.337,24.134 Z M295.543,21.239 C295.543,14.375 293.641,13.53 290.837,13.53 C288.405,13.53 286.4,14.689 286.337,21.239 L295.543,21.239 Z"></path>
                            <path d="M310.791,34.711 L310.791,0.965 L320.784,0.965 C325.324,0.965 330.184,2.641 330.184,10.589 C330.184,18.258 324.205,19.84 320.744,19.84 L315.098,19.84 L315.098,34.71 L310.791,34.71 L310.791,34.711 Z M315.098,16.096 L319.814,16.096 C321.585,16.096 325.797,15.624 325.797,10.342 C325.797,5.213 321.967,4.7 321.046,4.7 L315.099,4.7 L315.099,16.096 L315.098,16.096 Z"></path>
                            <path d="M332.193,0.965 L336.495,0.965 L336.495,5.069 L332.193,5.069 L332.193,0.965 Z M336.257,34.711 L332.418,34.711 L332.418,11.102 L336.257,11.102 L336.257,34.711 Z"></path>
                            <path d="M343.373,24.134 C343.373,30.729 345.14,32.05 348.129,32.05 C350.759,32.05 352.099,29.937 352.252,27.546 L356.459,27.546 C356.418,32.788 353.187,35.179 348.224,35.179 C343.216,35.179 339.256,33.677 339.256,23.257 C339.256,16.334 340.047,10.635 348.224,10.635 C354.962,10.635 356.644,14.321 356.644,22.143 L356.644,24.134 L343.373,24.134 L343.373,24.134 Z M352.57,21.239 C352.57,14.375 350.65,13.53 347.863,13.53 C345.418,13.53 343.413,14.689 343.372,21.239 L352.57,21.239 Z"></path>
                            <path d="M372.206,0.965 L376.032,0.965 L376.032,34.711 L372.206,34.711 L372.206,31.897 L372.125,31.897 C370.803,34.1 369.172,35.179 366.699,35.179 C362.9,35.179 359.08,33.677 359.08,23.302 C359.08,17.404 359.251,10.634 366.87,10.634 C369.118,10.634 370.768,11.609 372.076,13.484 L372.206,13.484 L372.206,0.965 L372.206,0.965 Z M367.769,13.763 C363.661,13.763 363.112,17.036 363.112,23.338 C363.112,26.894 363.112,32.05 367.909,32.05 C372.207,32.05 372.207,26.709 372.207,21.963 C372.206,18.816 372.026,13.763 367.769,13.763 Z"></path>
                            <path d="M391.981,31.295 L391.887,31.295 C390.718,34.015 388.888,35.179 385.94,35.179 C380.964,35.179 379.503,31.942 379.503,27.424 C379.503,20.254 386.511,19.935 391.887,20.061 C391.981,16.919 392.017,13.53 387.918,13.53 C385.351,13.53 383.998,15.256 384.236,17.747 L380.055,17.747 C380.235,12.469 383.04,10.636 388.047,10.636 C394.134,10.636 395.725,13.764 395.725,17.747 L395.725,29.102 C395.725,30.967 395.909,32.883 396.197,34.712 L391.98,34.712 L391.98,31.295 L391.981,31.295 Z M383.327,27.699 C383.327,29.987 384.455,32.05 387.022,32.05 C389.368,32.05 392.263,30.602 391.886,22.969 C388.232,23.01 383.327,22.695 383.327,27.699 Z"></path>
                            <path d="M412.425,0.965 L416.246,0.965 L416.246,34.711 L412.425,34.711 L412.425,31.897 L412.322,31.897 C411,34.1 409.377,35.179 406.9,35.179 C403.111,35.179 399.267,33.677 399.267,23.302 C399.267,17.404 399.456,10.634 407.071,10.634 C409.31,10.634 410.951,11.609 412.268,13.484 L412.425,13.484 L412.425,0.965 L412.425,0.965 Z M407.975,13.763 C403.848,13.763 403.291,17.036 403.291,23.338 C403.291,26.894 403.291,32.05 408.119,32.05 C412.425,32.05 412.425,26.709 412.425,21.963 C412.425,18.816 412.205,13.763 407.975,13.763 Z"></path>
                        </g>
                    </g>
                    <path d="M422.587,270.867 C420.492,270.867 418.784,272.629 418.784,274.778 C418.784,276.945 420.492,278.711 422.587,278.711 C424.704,278.711 426.399,276.944 426.399,274.778 C426.399,272.629 424.704,270.867 422.587,270.867 Z M422.587,278.199 C420.739,278.199 419.278,276.689 419.278,274.778 C419.278,272.876 420.739,271.371 422.587,271.371 C424.439,271.371 425.909,272.877 425.909,274.778 C425.909,276.688 424.439,278.199 422.587,278.199 Z M422.582,273.034 L422.528,273.102 L421.593,275.956 L420.658,273.102 L420.604,273.034 L420.105,273.034 L420.042,273.11 L420.042,276.455 L420.105,276.496 L420.383,276.496 L420.446,276.455 L420.446,273.722 L421.363,276.473 L421.417,276.496 L421.759,276.496 L421.822,276.464 L422.694,273.731 L422.694,276.455 L422.739,276.496 L423.035,276.496 L423.089,276.455 L423.089,273.11 L423.035,273.034 L422.582,273.034 Z M425.208,276.293 C425.208,276.212 425.203,276.149 425.203,276.05 C425.203,275.034 425.203,274.818 424.839,274.697 C425.163,274.575 425.23,274.306 425.23,273.91 C425.23,273.258 425.032,273.033 424.362,273.033 L423.45,273.033 L423.396,273.109 L423.396,276.454 L423.45,276.495 L423.751,276.495 L423.805,276.454 L423.805,274.889 L424.291,274.889 C424.457,274.889 424.579,274.925 424.664,275.006 C424.813,275.163 424.803,275.42 424.799,275.537 L424.799,275.636 C424.804,275.968 424.813,276.364 424.84,276.463 L424.899,276.495 L425.191,276.495 L425.254,276.427 C425.23,276.392 425.221,276.347 425.208,276.293 Z M424.223,274.526 L423.805,274.526 L423.805,273.416 L424.353,273.416 C424.681,273.416 424.812,273.488 424.812,273.911 C424.812,274.441 424.641,274.526 424.223,274.526 Z" fill="#272425"></path>
                </g>
                <path d="M495.581,53.915 L495.581,260.245" id="Shape" stroke="#474546" stroke-width="0.5283"></path>
            </g>
            <g id="Group" transform="translate(555.000000, 142.000000)" fill-rule="nonzero" fill="#272425">
                <polygon id="Shape" points="0.675 37.891 0.675 1.326 8.321 1.326 8.321 37.891"></polygon>
                <path d="M20.031,14.9 L20.135,14.9 C20.845,13.736 21.704,12.976 22.666,12.52 C23.677,12.015 24.846,11.81 26.159,11.81 C29.553,11.81 32.542,13.838 32.542,17.382 L32.542,37.892 L25.399,37.892 L25.399,20.268 C25.399,17.989 24.994,16.218 22.715,16.218 C20.436,16.218 20.031,17.989 20.031,20.268 L20.031,37.892 L12.893,37.892 L12.893,12.318 L20.031,12.318 L20.031,14.9 L20.031,14.9 Z" id="Shape"></path>
                <polygon id="Shape" points="34.389 12.317 41.631 12.317 45.227 31.51 45.33 31.51 49.075 12.317 56.065 12.317 49.025 37.891 41.176 37.891"></polygon>
                <path d="M64.224,26.244 C64.224,29.283 64.328,33.841 67.465,33.841 C70,33.841 70.504,31.409 70.504,29.283 L77.746,29.283 C77.647,32.068 76.735,34.347 75.013,35.916 C73.341,37.487 70.81,38.397 67.465,38.397 C58.25,38.397 57.036,32.776 57.036,24.774 C57.036,17.786 58.047,11.81 67.465,11.81 C77.09,11.81 78.15,18.041 77.899,26.245 L64.224,26.245 L64.224,26.244 Z M70.761,22.243 C70.761,19.762 70.86,16.217 67.466,16.217 C64.176,16.217 64.225,20.065 64.225,22.243 L70.761,22.243 Z" id="Shape"></path>
                <path d="M88.081,12.317 L88.081,15.607 L88.185,15.607 C89.502,12.669 91.934,11.808 94.82,11.808 L94.82,18.189 C88.54,17.784 88.437,21.43 88.437,23.963 L88.437,37.889 L81.298,37.889 L81.298,12.315 L88.081,12.315 L88.081,12.317 Z" id="Shape"></path>
                <path d="M103.419,29.687 C103.369,30.852 103.419,31.966 103.774,32.775 C104.179,33.587 104.939,33.991 106.359,33.991 C107.775,33.991 108.993,33.08 108.993,31.357 C108.993,25.94 96.433,27.154 96.433,19.002 C96.433,13.482 101.899,11.81 106.512,11.81 C111.371,11.81 115.776,14.141 115.372,19.661 L108.382,19.661 C108.382,17.887 108.18,16.825 107.676,16.368 C107.218,15.911 106.61,15.811 105.851,15.811 C104.282,15.811 103.419,16.825 103.419,18.546 C103.419,22.599 115.979,22.394 115.979,30.6 C115.979,35.054 112.333,38.397 106.409,38.397 C100.179,38.397 96.029,36.828 96.434,29.687 L103.419,29.687 L103.419,29.687 Z" id="Shape"></path>
                <path d="M126.349,1.326 L126.349,6.947 L119.206,6.947 L119.206,1.326 L126.349,1.326 Z M126.349,37.891 L119.206,37.891 L119.206,12.317 L126.349,12.317 L126.349,37.891 Z" id="Shape"></path>
                <path d="M130.206,24.774 C130.206,17.786 131.217,11.81 140.635,11.81 C150.057,11.81 151.069,17.787 151.069,24.774 C151.069,32.776 149.856,38.397 140.635,38.397 C131.42,38.397 130.206,32.775 130.206,24.774 Z M147.675,1.326 L139.575,8.568 L136.284,8.568 L140.838,1.326 L147.675,1.326 Z M143.931,24.369 C143.931,19.051 143.675,16.367 140.636,16.367 C137.597,16.367 137.346,19.051 137.346,24.369 C137.346,32.168 138.007,33.84 140.636,33.84 C143.27,33.841 143.931,32.169 143.931,24.369 Z" id="Shape"></path>
                <path d="M161.692,14.9 L161.795,14.9 C162.505,13.736 163.364,12.976 164.326,12.52 C165.337,12.015 166.507,11.81 167.819,11.81 C171.213,11.81 174.202,13.838 174.202,17.382 L174.202,37.892 L167.059,37.892 L167.059,20.268 C167.059,17.989 166.654,16.218 164.375,16.218 C162.096,16.218 161.691,17.989 161.691,20.268 L161.691,37.892 L154.552,37.892 L154.552,12.318 L161.691,12.318 L161.691,14.9 L161.692,14.9 Z" id="Shape"></path>
                <path d="M197.847,38.498 C188.376,38.498 186.605,32.928 187.009,26.599 L194.655,26.599 C194.655,30.092 194.808,33.03 199.011,33.03 C201.591,33.03 202.859,31.358 202.859,28.877 C202.859,22.294 187.463,21.889 187.463,11.001 C187.463,5.278 190.201,0.72 199.519,0.72 C206.963,0.72 210.659,4.062 210.151,11.709 L202.707,11.709 C202.707,8.976 202.253,6.188 199.165,6.188 C196.683,6.188 195.214,7.557 195.214,10.088 C195.214,17.026 210.61,16.42 210.61,27.914 C210.609,37.385 203.669,38.498 197.847,38.498 Z" id="Shape"></path>
                <path d="M213.846,24.774 C213.846,17.786 214.858,11.81 224.275,11.81 C233.697,11.81 234.709,17.787 234.709,24.774 C234.709,32.776 233.495,38.397 224.275,38.397 C215.06,38.397 213.846,32.775 213.846,24.774 Z M227.57,24.369 C227.57,19.051 227.314,16.367 224.275,16.367 C221.236,16.367 220.984,19.051 220.984,24.369 C220.984,32.168 221.645,33.84 224.275,33.84 C226.909,33.841 227.57,32.169 227.57,24.369 Z" id="Shape"></path>
                <path d="M251.225,21.432 C251.225,17.636 250.263,16.368 248.033,16.368 C244.994,16.368 244.742,19.052 244.742,24.37 C244.742,32.169 245.403,33.841 248.033,33.841 C250.263,33.841 251.328,31.813 251.328,28.471 L258.467,28.471 C258.467,35.409 254.718,38.396 248.033,38.396 C238.817,38.396 237.604,32.775 237.604,24.773 C237.604,17.785 238.615,11.809 248.033,11.809 C254.619,11.809 258.368,14.747 258.368,21.431 L251.225,21.431 L251.225,21.432 Z" id="Shape"></path>
                <path d="M269.246,1.326 L269.246,6.947 L262.103,6.947 L262.103,1.326 L269.246,1.326 Z M269.246,37.891 L262.103,37.891 L262.103,12.317 L269.246,12.317 L269.246,37.891 Z" id="Shape"></path>
                <path d="M293.067,33.131 C293.067,34.702 293.269,36.322 293.418,37.892 L286.787,37.892 L286.481,34.498 L286.382,34.498 C284.863,37.132 282.786,38.398 279.693,38.398 C274.73,38.398 272.91,34.703 272.91,30.246 C272.91,21.788 279.441,21.433 286.076,21.534 L286.076,19.561 C286.076,17.383 285.77,15.812 283.19,15.812 C280.708,15.812 280.506,17.686 280.506,19.711 L273.516,19.711 C273.516,16.623 274.478,14.647 276.15,13.483 C277.768,12.267 280.101,11.811 282.834,11.811 C291.897,11.811 293.065,15.711 293.065,20.37 L293.065,33.131 L293.067,33.131 Z M279.9,29.941 C279.9,31.764 280.202,33.991 282.53,33.991 C286.733,33.991 286.077,28.32 286.077,25.533 C282.529,25.686 279.9,25.383 279.9,29.941 Z" id="Shape"></path>
                <polygon id="Shape" points="304.741 1.326 304.741 37.891 297.598 37.891 297.598 1.326"></polygon>
            </g>
        </g>
    </g>
</svg>