<!-- Generator: Adobe Illustrator 17.0.0, SVG Export Plug-In . SVG Version: 6.00 Build 0)  -->
<!DOCTYPE svg PUBLIC "-//W3C//DTD SVG 1.1//EN" "http://www.w3.org/Graphics/SVG/1.1/DTD/svg11.dtd">
<svg version="1.1" id="Layer_1" xmlns="http://www.w3.org/2000/svg" xmlns:xlink="http://www.w3.org/1999/xlink" x="0px" y="0px"
	 width="555.14px" height="378.071px" viewBox="0 0 555.14 378.071" enable-background="new 0 0 555.14 378.071"
	 xml:space="preserve">
<g>
	<g>
		<polygon fill="#FFFFFF" points="151.103,226.809 154.502,226.971 154.502,254.732 162.567,256.139 162.567,222.098 
			151.103,221.782 		"/>
		<polygon fill="#FFFFFF" points="151.103,164.738 154.502,163.97 154.502,187.718 162.567,186.811 162.567,157.131 
			151.103,159.911 		"/>
		<path fill="#FFFFFF" d="M151.103,130.884l3.4-1.26v25.023c2.716-0.687,5.405-1.367,8.064-2.04v-31.269l-11.464,4.457V130.884z"/>
		<polygon fill="#FFFFFF" points="157.45,108.69 154.63,115.603 151.103,117.091 151.103,121.239 162.567,116.613 162.567,112.253 
			160.524,113.1 		"/>
		<polygon fill="#FFFFFF" points="151.103,197.285 154.502,197.009 154.502,217.702 162.567,217.823 162.567,191.294 
			151.103,192.444 		"/>
		<polygon fill="#FFFFFF" points="116.273,225.296 118.956,225.402 118.956,248.56 127.238,249.994 127.238,221.141 
			116.273,220.839 		"/>
		<path fill="#FFFFFF" d="M116.273,143.829l2.683-0.988v20.841c2.776-0.693,5.533-1.395,8.283-2.101v-26.487l-10.966,4.279V143.829z
			"/>
		<polygon fill="#FFFFFF" points="122.046,123.736 119.278,130.488 116.273,131.766 116.273,135.307 127.238,130.872 
			127.238,127.135 125.057,128.057 		"/>
		<polygon fill="#FFFFFF" points="116.273,172.621 118.956,172.014 118.956,191.732 127.238,190.797 127.238,165.653 
			116.273,168.319 		"/>
		<polygon fill="#FFFFFF" points="116.273,200.26 118.956,200.046 118.956,217.157 127.238,217.272 127.238,194.84 116.273,195.932 
					"/>
		<polygon fill="#FFFFFF" points="134.684,226.095 136.737,226.176 136.737,251.642 144.906,253.07 144.906,221.619 
			134.684,221.338 		"/>
		<path fill="#FFFFFF" d="M134.684,137.004l2.053-0.747v22.907c2.732-0.699,5.476-1.387,8.169-2.073v-28.879l-10.222,3.985V137.004z
			"/>
		<polygon fill="#FFFFFF" points="139.743,116.222 136.946,123.049 134.684,123.998 134.684,127.869 144.906,123.742 
			144.906,119.689 142.799,120.592 		"/>
		<polygon fill="#FFFFFF" points="134.684,198.699 136.737,198.523 136.737,217.432 144.906,217.54 144.906,193.07 134.684,194.094 
					"/>
		<polygon fill="#FFFFFF" points="134.684,168.467 136.737,168.004 136.737,189.732 144.906,188.803 144.906,161.406 
			134.684,163.863 		"/>
		<polygon fill="#FFFFFF" points="68.922,146.3 66.253,152.849 63.658,153.933 63.658,156.539 74.275,152.278 74.275,149.47 
			71.868,150.474 		"/>
		<polygon fill="#FFFFFF" points="63.658,222.965 65.537,223.035 65.537,239.264 74.275,240.779 74.275,219.688 63.658,219.412 		
			"/>
		<polygon fill="#FFFFFF" points="63.658,204.722 65.537,204.575 65.537,216.336 74.275,216.464 74.275,200.145 63.658,201.203 		
			"/>
		<path fill="#FFFFFF" d="M63.658,163.391l1.879-0.693v14.676c2.906-0.747,5.816-1.487,8.737-2.249v-19.366l-10.617,4.141V163.391z"
			/>
		<polygon fill="#FFFFFF" points="63.658,184.562 65.537,184.144 65.537,197.776 74.275,196.8 74.275,178.464 63.658,181.021 		"/>
		<path fill="#FFFFFF" d="M81.417,156.781l1.922-0.693v16.707c2.867-0.732,5.729-1.468,8.577-2.188v-21.729l-10.499,4.086V156.781z"
			/>
		<polygon fill="#FFFFFF" points="81.417,223.747 83.339,223.821 83.339,242.353 91.915,243.855 91.915,220.173 81.417,219.882 		
			"/>
		<polygon fill="#FFFFFF" points="86.627,138.767 83.928,145.384 81.417,146.448 81.417,149.383 91.915,145.142 91.915,142.025 
			89.596,143.002 		"/>
		<polygon fill="#FFFFFF" points="81.417,203.215 83.339,203.027 83.339,216.619 91.915,216.725 91.915,198.369 81.417,199.412 		
			"/>
		<polygon fill="#FFFFFF" points="81.417,180.523 83.339,180.091 83.339,195.77 91.915,194.8 91.915,174.209 81.417,176.726 		"/>
		<path fill="#FFFFFF" d="M98.531,150.453l2.558-0.969v18.761c2.839-0.721,5.685-1.439,8.483-2.153v-24.106l-11.04,4.329V150.453z"
			/>
		<polygon fill="#FFFFFF" points="98.531,176.659 101.089,176.081 101.089,193.763 109.571,192.801 109.571,169.941 98.531,172.614 
					"/>
		<polygon fill="#FFFFFF" points="104.338,131.248 101.6,137.946 98.531,139.246 98.531,142.469 109.571,138.007 109.571,134.58 
			107.333,135.536 		"/>
		<polygon fill="#FFFFFF" points="98.531,224.508 101.089,224.608 101.089,245.443 109.571,246.917 109.571,220.657 98.531,220.354 
					"/>
		<polygon fill="#FFFFFF" points="98.531,201.761 101.089,201.552 101.089,216.874 109.571,217.002 109.571,196.612 98.531,197.71 
					"/>
		<polygon fill="#FFFFFF" points="223.345,148.359 225.981,147.754 225.981,179.641 233.198,178.827 233.198,140.081 
			223.345,142.436 		"/>
		<polygon fill="#FFFFFF" points="228.247,78.613 225.319,85.802 223.345,86.636 223.345,92.056 233.198,88.071 233.198,82.47 
			231.465,83.218 		"/>
		<polygon fill="#FFFFFF" points="223.345,191.166 225.981,190.951 225.981,218.792 233.198,218.921 233.198,184.247 
			223.345,185.221 		"/>
		<path fill="#FFFFFF" d="M223.345,104.039l2.636-0.983v33.519c2.524-0.634,4.921-1.233,7.217-1.805V93.781l-9.853,3.836V104.039z"
			/>
		<polygon fill="#FFFFFF" points="223.345,230.001 225.981,230.121 225.981,267.179 233.198,268.458 233.198,224.016 
			223.345,223.754 		"/>
		<polygon fill="#FFFFFF" points="205.275,192.707 208.082,192.465 208.082,218.517 215.558,218.637 215.558,186.009 
			205.275,187.032 		"/>
		<polygon fill="#FFFFFF" points="205.275,152.445 208.082,151.813 208.082,181.661 215.558,180.82 215.558,144.321 
			205.275,146.812 		"/>
		<path fill="#FFFFFF" d="M205.275,110.757l2.808-1.038v31.364c2.575-0.641,5.056-1.266,7.476-1.886v-38.531l-10.283,3.992V110.757z
			"/>
		<polygon fill="#FFFFFF" points="210.556,86.133 207.635,93.249 205.275,94.257 205.275,99.368 215.558,95.207 215.558,89.909 
			213.713,90.689 		"/>
		<polygon fill="#FFFFFF" points="205.275,229.2 208.082,229.328 208.082,264.063 215.558,265.348 215.558,223.558 205.275,223.256 
					"/>
		<polygon fill="#FFFFFF" points="241.407,144.267 243.864,143.715 243.864,177.609 250.868,176.808 250.868,135.792 
			241.407,138.081 		"/>
		<polygon fill="#FFFFFF" points="245.957,71.101 243.003,78.352 241.407,79.024 241.407,84.766 250.868,80.937 250.868,75.033 
			249.199,75.739 		"/>
		<polygon fill="#FFFFFF" points="241.407,230.795 243.864,230.895 243.864,270.296 250.868,271.513 250.868,224.508 
			241.407,224.245 		"/>
		<path fill="#FFFFFF" d="M241.407,97.3l2.457-0.916v35.706c2.561-0.653,4.903-1.24,7.003-1.758V86.893l-9.46,3.683V97.3z"/>
		<polygon fill="#FFFFFF" points="241.407,189.637 243.864,189.436 243.864,219.068 250.868,219.183 250.868,182.475 
			241.407,183.404 		"/>
		<polygon fill="#FFFFFF" points="187.22,156.539 190.206,155.858 190.206,183.68 197.897,182.812 197.897,148.59 187.22,151.18 		
			"/>
		<path fill="#FFFFFF" d="M187.22,117.467l2.985-1.123v29.255c2.606-0.646,5.171-1.299,7.691-1.938v-36.109l-10.677,4.16V117.467z"
			/>
		<polygon fill="#FFFFFF" points="187.22,194.235 190.206,193.986 190.206,218.247 197.897,218.368 197.897,187.759 187.22,188.843 
					"/>
		<polygon fill="#FFFFFF" points="192.845,93.644 189.978,100.7 187.22,101.857 187.22,106.643 197.897,102.329 197.897,97.368 
			195.999,98.17 		"/>
		<polygon fill="#FFFFFF" points="187.22,228.405 190.206,228.547 190.206,260.96 197.897,262.305 197.897,223.066 187.22,222.777 
					"/>
		<polygon fill="#FFFFFF" points="169.16,195.77 172.319,195.508 172.319,217.984 180.226,218.092 180.226,189.538 169.16,190.64 		
			"/>
		<polygon fill="#FFFFFF" points="175.141,101.178 172.311,108.145 169.16,109.47 169.16,113.948 180.226,109.47 180.226,104.806 
			178.261,105.64 		"/>
		<polygon fill="#FFFFFF" points="169.16,160.638 172.319,159.925 172.319,185.714 180.226,184.804 180.226,152.864 169.16,155.535 
					"/>
		<path fill="#FFFFFF" d="M169.16,124.174l3.16-1.178v27.127c2.664-0.665,5.312-1.339,7.907-1.984v-33.7l-11.066,4.315V124.174z"/>
		<polygon fill="#FFFFFF" points="169.16,227.624 172.319,227.753 172.319,257.831 180.226,259.237 180.226,222.576 169.16,222.279 
					"/>
		<polygon fill="#FFFFFF" points="448.763,205.666 448.763,201.989 438.071,200.778 438.071,220.071 446.056,220.099 
			446.056,205.409 		"/>
		<polygon fill="#FFFFFF" points="448.763,227.571 448.763,223.491 438.071,223.571 438.071,248.452 446.056,247.295 
			446.056,227.651 		"/>
		<polygon fill="#FFFFFF" points="448.763,157.186 448.763,153.099 438.071,149.019 438.071,171.962 446.056,174 446.056,156.215 		
			"/>
		<polygon fill="#FFFFFF" points="448.763,146.3 446.568,145.384 443.907,138.901 440.966,143.09 438.071,141.897 438.071,145.114 
			448.763,149.322 		"/>
		<polygon fill="#FFFFFF" points="448.763,181.917 448.763,178.08 438.071,175.475 438.071,197.084 446.056,198.079 
			446.056,181.305 		"/>
		<polygon fill="#FFFFFF" points="395.325,169.706 395.325,165.074 383.888,162.287 383.888,256.234 391.683,255.116 
			391.683,168.879 		"/>
		<polygon fill="#FFFFFF" points="395.325,124.314 392.835,123.291 390.089,116.532 387.046,120.909 383.888,119.589 
			383.888,123.75 395.325,128.259 		"/>
		<polygon fill="#FFFFFF" points="391.683,136.284 395.325,137.636 395.325,132.702 383.888,128.34 383.888,158.128 
			395.325,161.043 395.325,155.939 391.683,154.965 		"/>
		<polygon fill="#FFFFFF" points="303.372,148.643 303.372,142.698 293.583,140.315 293.583,179.231 300.739,180.106 
			300.739,148.031 		"/>
		<polygon fill="#FFFFFF" points="303.372,191.691 303.372,185.767 293.583,184.684 293.583,219.507 300.739,219.519 
			300.739,191.442 		"/>
		<polygon fill="#FFFFFF" points="303.372,86.482 302.013,85.931 299.111,78.788 295.894,83.4 293.583,82.445 293.583,88.132 
			303.372,92.01 		"/>
		<polygon fill="#FFFFFF" points="303.372,104.059 303.372,97.61 293.583,93.875 293.583,135.093 300.739,136.93 300.739,103.103 		
			"/>
		<polygon fill="#FFFFFF" points="303.372,230.829 303.372,224.549 293.583,224.596 293.583,269.233 300.739,268.203 
			300.739,230.889 		"/>
		<polygon fill="#FFFFFF" points="431.298,177.931 431.298,173.82 420.005,171.079 420.005,194.855 427.946,195.851 
			427.946,177.143 		"/>
		<polygon fill="#FFFFFF" points="431.298,150.817 431.298,146.428 420.005,142.112 420.005,167.348 427.946,169.376 
			427.946,149.611 		"/>
		<polygon fill="#FFFFFF" points="431.298,203.99 431.298,200.025 420.005,198.78 420.005,219.998 427.946,220.024 427.946,203.653 
					"/>
		<polygon fill="#FFFFFF" points="431.298,227.967 431.298,223.613 420.005,223.7 420.005,251.043 427.946,249.892 427.946,228.041 
					"/>
		<polygon fill="#FFFFFF" points="431.298,139.109 428.821,138.101 426.157,131.565 423.214,135.792 420.005,134.465 
			420.005,138.007 431.298,142.463 		"/>
		<polygon fill="#FFFFFF" points="466.843,153.739 464.527,152.783 461.902,146.382 459.007,150.513 456.14,149.322 456.14,152.236 
			466.843,156.472 		"/>
		<polygon fill="#FFFFFF" points="466.843,163.789 466.843,159.992 456.14,155.913 456.14,176.572 464.163,178.611 464.163,162.785 
					"/>
		<polygon fill="#FFFFFF" points="466.843,207.409 466.843,203.996 456.14,202.805 456.14,220.126 464.163,220.173 464.163,207.16 
					"/>
		<polygon fill="#FFFFFF" points="466.843,186.063 466.843,182.482 456.14,179.871 456.14,199.325 464.163,200.314 464.163,185.453 
					"/>
		<polygon fill="#FFFFFF" points="466.843,227.181 466.843,223.35 456.14,223.432 456.14,245.847 464.163,244.675 464.163,227.248 
					"/>
		<polygon fill="#FFFFFF" points="484.46,190.089 484.46,186.771 474.193,184.26 474.193,201.559 482.189,202.555 482.189,189.577 
					"/>
		<polygon fill="#FFFFFF" points="484.46,170.25 484.46,166.717 474.193,162.813 474.193,181.163 482.189,183.223 482.189,169.417 
					"/>
		<polygon fill="#FFFFFF" points="484.46,161.003 481.976,159.959 479.39,153.624 476.53,157.71 474.193,156.769 474.193,159.373 
			484.46,163.419 		"/>
		<polygon fill="#FFFFFF" points="484.46,209.105 484.46,205.968 474.193,204.817 474.193,220.206 482.189,220.241 482.189,208.871 
					"/>
		<polygon fill="#FFFFFF" points="484.46,226.789 484.46,223.228 474.193,223.316 474.193,243.235 482.189,242.104 482.189,226.837 
					"/>
		<polygon fill="#FFFFFF" points="408.398,124.139 405.396,128.447 401.948,127.034 401.948,130.872 413.71,135.516 413.71,131.881 
			411.118,130.818 		"/>
		<polygon fill="#FFFFFF" points="401.948,171.2 406.527,172.243 406.527,252.975 413.71,251.945 413.71,169.55 401.948,166.675 		
			"/>
		<polygon fill="#FFFFFF" points="401.948,140.092 406.527,141.769 406.527,158.942 401.948,157.703 401.948,162.738 
			413.71,165.748 413.71,139.73 401.948,135.22 		"/>
		<polygon fill="#FFFFFF" points="262.965,49.135 261.097,64.154 258.97,67.6 258.97,77.672 262.945,76.049 262.945,76.049 
			262.965,76.049 262.965,76.049 262.965,76.049 266.957,77.624 266.957,67.6 264.833,64.161 		"/>
		<polygon fill="#FFFFFF" points="258.98,133.82 258.98,175.899 262.965,175.455 266.93,175.945 266.93,133.82 262.965,132.863 		
			"/>
		<path fill="#FFFFFF" d="M262.945,82.181l-3.965,1.548v44.563c2.439-0.619,3.82-0.962,3.984-0.996v-0.033l0.011,0.033h0.014l0,0
			l3.941,0.996V84.853h0.027v-1.145l-3.992-1.527H262.945z"/>
		<polygon fill="#FFFFFF" points="262.965,219.365 266.93,219.378 266.93,181.702 262.945,181.262 258.98,181.661 258.98,219.303 
			262.965,219.365 		"/>
		<polyline fill="#FFFFFF" points="262.945,224.824 258.98,224.723 258.98,272.915 263.028,273.629 266.93,273.07 266.93,224.81 
			262.965,224.824 		"/>
		<polygon fill="#FFFFFF" points="321.763,110.791 321.763,104.637 311.626,100.76 311.626,139.71 318.948,141.574 318.948,109.761 
					"/>
		<polygon fill="#FFFFFF" points="321.763,193.463 321.763,187.806 311.626,186.703 311.626,219.554 318.948,219.593 
			318.948,193.179 		"/>
		<polygon fill="#FFFFFF" points="321.763,94.056 320.038,93.329 317.144,86.275 313.962,90.84 311.626,89.883 311.626,95.261 
			321.763,99.254 		"/>
		<polygon fill="#FFFFFF" points="321.763,152.838 321.763,147.175 311.626,144.712 311.626,181.474 318.948,182.368 
			318.948,152.197 		"/>
		<polygon fill="#FFFFFF" points="321.763,230.424 321.763,224.399 311.626,224.481 311.626,266.633 318.948,265.585 
			318.948,230.492 		"/>
		<polygon fill="#FFFFFF" points="284.98,78.91 283.554,78.331 280.622,71.14 277.382,75.793 275.509,75.012 275.509,81.01 
			284.98,84.739 		"/>
		<polygon fill="#FFFFFF" points="284.98,231.266 284.98,224.682 275.509,224.743 275.509,271.831 282.53,270.821 282.53,231.326 		
			"/>
		<polygon fill="#FFFFFF" points="284.98,97.328 284.98,90.59 275.509,86.974 275.509,130.488 282.53,132.272 282.53,96.452 		"/>
		<polygon fill="#FFFFFF" points="284.98,144.409 284.98,138.215 275.509,135.92 275.509,177.01 282.53,177.871 282.53,143.856 		
			"/>
		<polygon fill="#FFFFFF" points="284.98,189.934 284.98,183.721 275.509,182.665 275.509,219.425 282.53,219.452 282.53,189.705 		
			"/>
		<polygon fill="#FFFFFF" points="358.544,196.996 358.544,191.913 347.759,190.715 347.759,219.709 355.374,219.735 
			355.374,196.686 		"/>
		<polygon fill="#FFFFFF" points="358.544,124.207 358.544,118.66 347.759,114.54 347.759,148.906 355.374,150.864 355.374,123.049 
					"/>
		<polygon fill="#FFFFFF" points="358.544,229.611 358.544,224.151 347.759,224.225 347.759,261.424 355.374,260.34 
			355.374,229.699 		"/>
		<polygon fill="#FFFFFF" points="358.544,161.264 358.544,156.114 347.759,153.509 347.759,185.922 355.374,186.865 
			355.374,160.51 		"/>
		<polygon fill="#FFFFFF" points="358.544,109.169 356.337,108.279 353.528,101.353 350.413,105.837 347.759,104.747 
			347.759,109.511 358.544,113.754 		"/>
		<polygon fill="#FFFFFF" points="376.941,165.485 376.941,160.591 365.814,157.885 365.814,188.158 373.542,189.114 
			373.542,164.711 		"/>
		<polygon fill="#FFFFFF" points="376.941,130.931 376.941,125.669 365.814,121.434 365.814,153.522 373.542,155.483 
			373.542,129.713 		"/>
		<polygon fill="#FFFFFF" points="376.941,198.759 376.941,193.96 365.814,192.727 365.814,219.775 373.542,219.815 
			373.542,198.429 		"/>
		<polygon fill="#FFFFFF" points="376.941,229.192 376.941,224.01 365.814,224.084 365.814,258.845 373.542,257.728 
			373.542,229.273 		"/>
		<polygon fill="#FFFFFF" points="376.941,116.748 374.902,115.915 372.089,109.026 368.978,113.469 365.814,112.158 
			365.814,116.634 376.941,121.008 		"/>
		<polygon fill="#FFFFFF" points="340.159,101.615 338.216,100.814 335.386,93.887 332.265,98.363 329.706,97.313 329.706,102.382 
			340.159,106.496 		"/>
		<polygon fill="#FFFFFF" points="340.159,230.021 340.159,224.273 329.706,224.346 329.706,264.036 337.152,262.958 
			337.152,230.089 		"/>
		<polygon fill="#FFFFFF" points="340.159,117.515 340.159,111.632 329.706,107.661 329.706,144.3 337.152,146.198 337.152,116.418 
					"/>
		<polygon fill="#FFFFFF" points="340.159,157.044 340.159,151.646 329.706,149.1 329.706,183.701 337.152,184.61 337.152,156.357 
					"/>
		<polygon fill="#FFFFFF" points="340.159,195.231 340.159,189.867 329.706,188.702 329.706,219.647 337.152,219.661 
			337.152,194.949 		"/>
	</g>
	<g>
		<path fill="#FFFFFF" d="M88.522,294.611v33.86h-5.907l-13.37-29.364h-0.095v29.364h-3.85v-33.86h6.105L84.57,323.59h0.097v-28.979
			H88.522z"/>
		<path fill="#FFFFFF" d="M104.846,325.052h-0.098c-1.172,2.718-3.009,3.883-5.961,3.883c-5.015,0-6.462-3.238-6.462-7.769
			c0-7.189,7.028-7.518,12.423-7.385c0.098-3.144,0.138-6.556-3.989-6.556c-2.577,0-3.938,1.729-3.703,4.227h-4.176
			c0.182-5.298,2.999-7.135,8.017-7.135c6.109,0,7.688,3.143,7.688,7.135v11.39c0,1.886,0.194,3.805,0.48,5.629h-4.22V325.052z
			 M96.169,321.436c0,2.302,1.118,4.362,3.702,4.362c2.35,0,5.248-1.454,4.878-9.102C101.089,316.738,96.169,316.422,96.169,321.436
			z"/>
		<path fill="#FFFFFF" d="M125.193,312.383c0.094-3.892-1.824-4.922-3.288-4.922c-2.949,0-4.969,1.408-4.969,7.884
			c0,7.687,0.983,10.454,4.969,10.454c0.894,0,3.57-0.937,3.422-5.203h4.039c0.142,6.664-4.827,8.34-7.461,8.34
			c-5.005,0-8.99-1.494-8.99-11.962c0-6.934,0.79-12.655,8.99-12.655c4.742,0,7.509,2.772,7.28,8.064H125.193z"/>
		<path fill="#FFFFFF" d="M132.651,294.611h4.312v4.126h-4.312V294.611z M136.737,328.471h-3.855v-23.689h3.855V328.471z"/>
		<path fill="#FFFFFF" d="M139.45,316.973c0-6.934,0.794-12.655,9.003-12.655c8.21,0,9.007,5.722,9.007,12.655
			c0,10.468-3.982,11.962-9.007,11.962C143.438,328.935,139.45,327.441,139.45,316.973z M153.422,315.344
			c0-6.476-2.016-7.884-4.968-7.884c-2.955,0-4.961,1.408-4.961,7.884c0,7.687,0.979,10.454,4.961,10.454
			C152.435,325.799,153.422,323.031,153.422,315.344z"/>
		<path fill="#FFFFFF" d="M173.121,328.471v-16.42c0-2.522-0.885-4.591-4.169-4.591c-4.228,0-4.836,3.758-4.836,6.987v14.023h-3.833
			v-18.755c0-1.643-0.105-3.298-0.239-4.935h4.072v3.05h0.188c1.501-2.666,3.288-3.514,6.338-3.514c5.061,0,6.328,3.042,6.328,7.733
			v16.42H173.121z"/>
		<path fill="#FFFFFF" d="M192.637,325.052h-0.088c-1.181,2.718-3.01,3.883-5.964,3.883c-5.025,0-6.473-3.238-6.473-7.769
			c0-7.189,7.035-7.518,12.437-7.385c0.088-3.144,0.131-6.556-3.999-6.556c-2.578,0-3.931,1.729-3.705,4.227h-4.177
			c0.198-5.298,3.002-7.135,8.026-7.135c6.1,0,7.696,3.143,7.696,7.135v11.39c0,1.886,0.187,3.805,0.471,5.629h-4.225V325.052z
			 M183.959,321.436c0,2.302,1.128,4.362,3.7,4.362c2.356,0,5.257-1.454,4.89-9.102C188.89,316.738,183.959,316.422,183.959,321.436
			z"/>
		<path fill="#FFFFFF" d="M204.356,328.471h-3.84v-33.86h3.84V328.471z"/>
		<path fill="#FFFFFF" d="M219.368,328.471h-4.036v-33.86h6.987l8.543,28.42h0.094l8.62-28.42h7.133v33.86H242.4v-30.11h-0.097
			l-9.479,30.11h-4.077l-9.289-30.11h-0.091V328.471z"/>
		<path fill="#FFFFFF" d="M250.004,316.973c0-6.934,0.784-12.655,8.996-12.655c8.204,0,9.001,5.722,9.001,12.655
			c0,10.468-3.992,11.962-9.001,11.962C253.983,328.935,250.004,327.441,250.004,316.973z M263.968,315.344
			c0-6.476-2.016-7.884-4.969-7.884c-2.965,0-4.977,1.408-4.977,7.884c0,7.687,0.983,10.454,4.977,10.454
			C262.978,325.799,263.968,323.031,263.968,315.344z"/>
		<path fill="#FFFFFF" d="M283.675,328.471v-16.42c0-2.522-0.902-4.591-4.184-4.591c-4.214,0-4.833,3.758-4.833,6.987v14.023h-3.841
			v-18.755c0-1.643-0.097-3.298-0.232-4.935h4.073v3.05h0.188c1.501-2.666,3.282-3.514,6.331-3.514c5.068,0,6.336,3.042,6.336,7.733
			v16.42H283.675z"/>
		<path fill="#FFFFFF" d="M291.402,304.782v-4.543l3.852-1.743v6.286h5.156v2.901h-5.156v14.507c0,1.494,0,3.426,3.514,3.426
			c0.283,0,0.889-0.102,1.736-0.194v2.955c-1.266,0.095-2.529,0.377-3.795,0.377c-3.662,0-5.307-1.494-5.307-4.228v-16.843h-3.889
			v-2.901H291.402z"/>
		<path fill="#FFFFFF" d="M304.489,317.868c0,6.61,1.777,7.931,4.793,7.931c2.625,0,3.984-2.114,4.119-4.511h4.223
			c-0.043,5.258-3.293,7.648-8.262,7.648c-5.016,0-9-1.494-9-11.962c0-6.934,0.801-12.655,9-12.655c6.76,0,8.441,3.701,8.441,11.538
			v2.012H304.489z M313.732,314.961c0-6.887-1.918-7.734-4.733-7.734c-2.438,0-4.471,1.165-4.51,7.734H313.732z"/>
		<path fill="#FFFFFF" d="M340.558,294.611h3.836v33.86h-3.836v-2.821h-0.096c-1.31,2.201-2.955,3.285-5.438,3.285
			c-3.797,0-7.641-1.494-7.641-11.909c0-5.916,0.182-12.708,7.83-12.708c2.246,0,3.889,0.981,5.201,2.86h0.143V294.611z
			 M336.095,307.461c-4.113,0-4.686,3.28-4.686,9.607c0,3.566,0,8.73,4.826,8.73c4.322,0,4.322-5.353,4.322-10.125
			C340.558,312.523,340.357,307.461,336.095,307.461z"/>
		<path fill="#FFFFFF" d="M351.946,317.868c0,6.61,1.789,7.931,4.787,7.931c2.633,0,3.978-2.114,4.133-4.511h4.221
			c-0.053,5.258-3.285,7.648-8.252,7.648c-5.029,0-9.008-1.494-9.008-11.962c0-6.934,0.809-12.655,9.008-12.655
			c6.744,0,8.441,3.701,8.441,11.538v2.012H351.946z M361.185,314.961c0-6.887-1.912-7.734-4.729-7.734
			c-2.436,0-4.455,1.165-4.51,7.734H361.185z"/>
		<path fill="#FFFFFF" d="M376.476,328.471v-33.86h10.039c4.549,0,9.43,1.689,9.43,9.659c0,7.695-5.996,9.284-9.477,9.284H380.8
			v14.917H376.476z M380.8,309.805h4.732c1.775,0,6.004-0.478,6.004-5.77c0-5.165-3.844-5.675-4.771-5.675H380.8V309.805z"/>
		<path fill="#FFFFFF" d="M397.958,294.611h4.314v4.126h-4.314V294.611z M402.03,328.471h-3.85v-23.689h3.85V328.471z"/>
		<path fill="#FFFFFF" d="M409.173,317.868c0,6.61,1.777,7.931,4.777,7.931c2.627,0,3.986-2.114,4.129-4.511h4.219
			c-0.039,5.258-3.277,7.648-8.258,7.648c-5.021,0-9.002-1.494-9.002-11.962c0-6.934,0.803-12.655,9.002-12.655
			c6.758,0,8.455,3.701,8.455,11.538v2.012H409.173z M418.402,314.961c0-6.887-1.918-7.734-4.725-7.734
			c-2.451,0-4.465,1.165-4.504,7.734H418.402z"/>
		<path fill="#FFFFFF" d="M438.105,294.611h3.844v33.86h-3.844v-2.821h-0.088c-1.318,2.201-2.953,3.285-5.438,3.285
			c-3.811,0-7.648-1.494-7.648-11.909c0-5.916,0.176-12.708,7.824-12.708c2.26,0,3.902,0.981,5.209,2.86h0.141V294.611z
			 M433.65,307.461c-4.127,0-4.678,3.28-4.678,9.607c0,3.566,0,8.73,4.812,8.73c4.32,0,4.32-5.353,4.32-10.125
			C438.105,312.523,437.917,307.461,433.65,307.461z"/>
		<path fill="#FFFFFF" d="M457.937,325.052h-0.08c-1.18,2.718-3.01,3.883-5.965,3.883c-5.016,0-6.469-3.238-6.469-7.769
			c0-7.189,7.027-7.518,12.434-7.385c0.08-3.144,0.127-6.556-3.992-6.556c-2.572,0-3.939,1.729-3.703,4.227h-4.174
			c0.176-5.298,2.996-7.135,8.012-7.135c6.105,0,7.701,3.143,7.701,7.135v11.39c0,1.886,0.182,3.805,0.471,5.629h-4.234V325.052z
			 M449.267,321.436c0,2.302,1.125,4.362,3.695,4.362c2.363,0,5.272-1.454,4.895-9.102
			C454.187,316.738,449.267,316.422,449.267,321.436z"/>
		<path fill="#FFFFFF" d="M478.448,294.611h3.844v33.86h-3.844v-2.821h-0.088c-1.334,2.201-2.969,3.285-5.447,3.285
			c-3.803,0-7.646-1.494-7.646-11.909c0-5.916,0.174-12.708,7.822-12.708c2.248,0,3.891,0.981,5.211,2.86h0.149V294.611z
			 M473.991,307.461c-4.133,0-4.699,3.28-4.699,9.607c0,3.566,0,8.73,4.842,8.73c4.315,0,4.315-5.353,4.315-10.125
			C478.448,312.523,478.245,307.461,473.991,307.461z"/>
		<path fill="#FFFFFF" d="M487.657,320.6c-2.113,0-3.824,1.772-3.824,3.932c0,2.174,1.711,3.939,3.824,3.939
			c2.113,0,3.824-1.766,3.824-3.939C491.482,322.372,489.771,320.6,487.657,320.6z M487.657,327.966c-1.859,0-3.32-1.528-3.32-3.435
			c0-1.918,1.461-3.419,3.32-3.419c1.857,0,3.324,1.501,3.324,3.419C490.982,326.438,489.515,327.966,487.657,327.966z
			 M487.638,322.79l-0.055,0.053l-0.922,2.876l-0.949-2.876l-0.049-0.053h-0.504l-0.061,0.065v3.353l0.061,0.046h0.289l0.06-0.046
			v-2.739l0.908,2.754l0.055,0.031h0.35l0.047-0.039l0.891-2.739v2.732l0.047,0.046h0.295l0.061-0.046v-3.353l-0.061-0.065H487.638z
			 M490.29,326.048c0-0.074-0.016-0.147-0.016-0.235c0-1.023-0.006-1.246-0.355-1.367c0.316-0.122,0.389-0.39,0.389-0.787
			c0-0.653-0.213-0.868-0.875-0.868h-0.922l-0.053,0.065v3.353l0.053,0.046h0.305l0.053-0.046v-1.567h0.498
			c0.162,0,0.289,0.039,0.369,0.114c0.143,0.161,0.137,0.41,0.129,0.551v0.074c0.008,0.343,0.027,0.734,0.055,0.835l0.053,0.039
			h0.283l0.061-0.066C490.308,326.149,490.302,326.094,490.29,326.048z M489.292,324.277h-0.424v-1.118h0.553
			c0.33,0,0.471,0.075,0.471,0.499C489.892,324.183,489.702,324.277,489.292,324.277z"/>
	</g>
</g>
</svg>
