<?xml version="1.0" encoding="UTF-8"?>
<svg width="112px" height="507px" viewBox="0 0 112 507" version="1.1" xmlns="http://www.w3.org/2000/svg" xmlns:xlink="http://www.w3.org/1999/xlink">
    <!-- Generator: Sketch 52.6 (67491) - http://www.bohemiancoding.com/sketch -->
    <title>Group</title>
    <desc>Created with Sketch.</desc>
    <g id="Mi-Monte-V2" stroke="none" stroke-width="1" fill="none" fill-rule="evenodd">
        <g id="MiM-02-registro-08-cuenta-creada" transform="translate(-223.000000, -185.000000)">
            <g id="Group" transform="translate(223.000000, 185.000000)">
                <polygon id="Rectangle-4" fill="#DFE0E0" points="54 39 57 39 57 500 54 500"></polygon>
                <circle id="Oval-3" fill="#DFE0E0" cx="56" cy="140" r="6"></circle>
                <circle id="Oval-3" fill="#DFE0E0" cx="56" cy="175" r="6"></circle>
                <circle id="Oval-3" fill="#DFE0E0" cx="55" cy="239" r="10"></circle>
                <circle id="Oval-3" fill="#DFE0E0" cx="56" cy="289" r="6"></circle>
                <circle id="Oval-3" fill="#DFE0E0" cx="56" cy="325" r="6"></circle>
                <circle id="Oval-3" fill="#DFE0E0" cx="56" cy="360" r="6"></circle>
                <circle id="Oval-2" fill="#DFE0E0" cx="56" cy="104" r="6"></circle>
                <g id="gears" transform="translate(18.000000, 0.000000)" fill-rule="nonzero">
                    <ellipse id="Oval" fill="#DFEEF4" cx="37.012987" cy="36.9272237" rx="37.012987" ry="36.9272237"></ellipse>
                    <path d="M40.3299959,73.8544474 C58.5219497,72.2636931 72.9407618,57.5427152 74.025974,39.2376285 L48.8819199,14.1318216 L42.2544717,16.0386466 L38.6714339,12.4610385 L36.8843999,14.8023884 L34.1608803,18.2589421 L28.7025563,22.0954162 L33.455297,26.8409547 L30.0421084,32.3392557 L34.7390043,37.029034 L34.6317996,37.0738155 L43.6312055,45.9076157 L42.7998991,46.7376624 L30.5005856,34.4569871 L29.511872,36.2626926 L25.7254202,32.4819787 L22.33972,37.2202944 L13.7085137,44.480675 L18.8732907,49.6376255 L17.8669267,51.4257073 L40.3299959,73.8544474 Z" id="Shape" fill="#CBDFE7"></path>
                    <path d="M33.1239728,41.4624785 C32.917271,40.1053473 32.4055968,38.8482884 31.6618185,37.7619751 L32.7438098,36.6824685 L30.5563119,34.4999941 L29.5050936,35.5487983 C28.4168606,34.7600952 27.1451506,34.2096251 25.7652996,33.9712473 L25.7652996,32.5202711 L22.6714489,32.5202711 L22.6714489,33.9712473 C21.2918881,34.2096251 20.0201782,34.76024 18.9316548,35.5487983 L17.8804365,34.4999941 L15.6929386,36.6824685 L16.77493,37.7619751 C16.0312968,38.8482884 15.5197678,40.1053473 15.3127756,41.4624785 L13.7085137,41.4624785 L13.7085137,44.5492244 L15.3775151,44.5492244 C15.6322635,45.8559574 16.1705012,47.0607355 16.9261823,48.098678 L15.6930838,49.3289448 L17.8805817,51.5114192 L19.1444532,50.2504501 C20.1844945,50.9589215 21.3810138,51.4540695 22.6714489,51.6769513 L22.6714489,53.491287 L25.7652996,53.491287 L25.7652996,51.6769513 C27.0557346,51.4540695 28.252399,50.9589215 29.2922952,50.2504501 L30.5561667,51.5114192 L32.7436646,49.3289448 L31.5105661,48.098678 C32.2659569,47.0605906 32.8044849,45.8556678 33.0592333,44.5490796 L34.7282347,44.5490796 L34.7282347,41.4624785 L33.1239728,41.4624785 Z M24.2186645,47.3182298 C21.7311296,47.3182298 19.7144801,45.3062114 19.7144801,42.8243889 C19.7144801,40.3425665 21.7311296,38.3305481 24.2186645,38.3305481 C26.7061995,38.3305481 28.722849,40.3425665 28.722849,42.8243889 C28.722849,45.3062114 26.7061995,47.3182298 24.2186645,47.3182298 Z" id="Shape" fill="#E09112"></path>
                    <path d="M34.7282347,44.5489348 L34.7282347,41.4621889 L33.1155126,41.4621889 C32.9077206,40.1050577 32.3933481,38.8479987 31.6456473,37.7616855 L32.7330528,36.6824685 L30.5340189,34.4999941 L29.4772569,35.5487983 C28.3832849,34.7600952 27.1048684,34.2096251 25.7177406,33.9712473 L25.7177406,32.5202711 L24.0660574,32.5202711 L24.0660574,38.3353272 C24.0984519,38.3346031 24.1302628,38.3304033 24.1629491,38.3304033 C26.6636024,38.3304033 28.690887,40.3424217 28.690887,42.8242441 C28.690887,45.3060666 26.6636024,47.318085 24.1629491,47.318085 C24.1302628,47.318085 24.0985978,47.3138851 24.0660574,47.313161 L24.0660574,53.491287 L25.7180324,53.491287 L25.7180324,51.6769513 C27.0152727,51.4540695 28.2182479,50.9589215 29.2636281,50.2504501 L30.5341648,51.5114192 L32.7331988,49.3289448 L31.4935973,48.098678 C32.2529718,47.0605906 32.7943398,45.8556678 33.0504317,44.5490796 L34.7282347,44.5489348 Z" id="Shape" fill="#FF5419"></path>
                    <path d="M52.3135062,49.1993784 C52.1457157,48.0978182 51.7305322,47.077855 51.1268937,46.1961132 L52.0049928,45.3200338 L50.2295852,43.5487098 L49.3763709,44.3999617 C48.4930329,43.759962 47.4609681,43.3132108 46.3412972,43.1196719 L46.3412972,41.9420319 L43.8302597,41.9420319 L43.8302597,43.1196719 C42.7105887,43.3132108 41.6785239,43.759962 40.7951859,44.3999617 L39.9419716,43.5487098 L38.166564,45.3200338 L39.0446632,46.1961132 C38.4410246,47.0777098 38.0258412,48.0978182 37.8580506,49.1993784 L36.5560366,49.1993784 L36.5560366,51.7046403 L37.9104397,51.7046403 C38.117231,52.7651116 38.5542432,53.7429696 39.1673409,54.5852196 L38.166564,55.5836946 L39.9419716,57.3550185 L40.9677788,56.3315708 C41.8116795,56.9068155 42.7827692,57.3084124 43.8302597,57.4894649 L43.8302597,58.9619868 L46.3412972,58.9619868 L46.3412972,57.4894649 C47.3886421,57.3085576 48.3598773,56.9068155 49.203778,56.3315708 L50.2295852,57.3550185 L52.0049928,55.5836946 L51.0042159,54.5852196 C51.6173136,53.7426792 52.0543258,52.7651116 52.2611172,51.7046403 L53.6155203,51.7046403 L53.6155203,49.1993784 L52.3135062,49.1993784 Z M45.0858512,54.1839131 C42.9383357,54.1839131 41.1972721,52.4468541 41.1972721,50.304278 C41.1972721,48.161702 42.9383357,46.424643 45.0858512,46.424643 C47.2333667,46.424643 48.9744303,48.161702 48.9744303,50.304278 C48.9742848,52.4471445 47.2335122,54.1839131 45.0858512,54.1839131 Z" id="Shape" fill="#FFC61B"></path>
                    <path d="M52.0108355,49.1993784 C51.8432979,48.0978182 51.4287404,47.077855 50.8260119,46.1961132 L51.7027872,45.3200338 L49.9300563,43.5487098 L49.0781283,44.3999617 C48.196122,43.759962 47.1656132,43.3132108 46.0476303,43.1196719 L46.0476303,41.9420319 L44.7811448,41.9420319 L44.7811448,46.4258045 C44.7856493,46.4258045 44.7897178,46.4250786 44.7942223,46.4250786 C46.9385002,46.4250786 48.6769389,48.1621376 48.6769389,50.3047136 C48.6769389,52.4472896 46.9385002,54.1843486 44.7942223,54.1843486 C44.7897178,54.1843486 44.7856493,54.1839131 44.7811448,54.1836227 L44.7811448,58.9619868 L46.0476303,58.9619868 L46.0476303,57.4894649 C47.0933962,57.3085576 48.0631672,56.9068155 48.9057956,56.3315708 L49.9300563,57.3550185 L51.7027872,55.5836946 L50.7035191,54.5852196 C51.3156925,53.7426792 51.7520459,52.7651116 51.9585254,51.7046403 L53.3108866,51.7046403 L53.3108866,49.1993784 L52.0108355,49.1993784 Z" id="Shape" fill="#EAA22F"></path>
                    <path d="M52.8625696,28.2117736 C53.3073489,26.5307567 53.3475216,24.8131084 53.0318996,23.1771983 L54.8340548,22.4664076 L53.3935978,18.8307165 L51.6427023,19.5211085 C50.7761819,18.0577245 49.576185,16.7789335 48.0933954,15.8087071 L48.8258629,14.1225187 L45.2306238,12.567772 L44.4981562,14.2539604 C42.7744746,13.8376566 41.0188275,13.8383748 39.3560528,14.2078481 L38.6640459,12.4610385 L35.0198508,13.8978468 L35.732304,15.6957966 C34.3196367,16.5842849 33.0906981,17.7879458 32.1652865,19.2610982 L30.3009285,18.4550662 L28.7425451,22.0419157 L30.681921,22.8807003 C30.318207,24.5270971 30.3356296,26.1976274 30.6895524,27.7835467 L28.635562,28.5936009 L30.076019,32.2290048 L32.1814132,31.3988392 C33.032095,32.7447158 34.1726248,33.9213702 35.5596623,34.8289642 L34.6437539,36.9372025 L38.238993,38.4919493 L39.1549014,36.383711 C40.7671363,36.7730082 42.4075929,36.7990092 43.9736076,36.4983453 L44.8057148,38.5988264 L48.44991,37.1617308 L47.637961,35.1125335 C49.0399732,34.2859593 50.2738074,33.1564228 51.2294565,31.7661577 L53.1688323,32.6049423 L54.7272157,29.0180929 L52.8625696,28.2117736 Z M38.784132,32.3206548 C34.9078281,30.6443784 33.1277031,26.1506532 34.8079003,22.2836822 C36.4880976,18.4167111 40.9926217,16.6408838 44.8687816,18.3168729 C48.7450856,19.9931493 50.5252106,24.4868745 48.8450133,28.3538455 C47.16496,32.2209602 42.660436,33.9970749 38.784132,32.3206548 Z" id="Shape" fill="#FF7F4F"></path>
                    <path d="M53.015034,23.1139714 L54.8340548,22.4002466 L53.3804078,18.7495476 L51.6131264,19.4427895 C50.7384965,17.9733647 49.5272693,16.6892949 48.0306029,15.715352 L48.7699253,14.0222031 L45.1410398,12.4610385 L44.4017174,14.1541874 C43.5157513,13.9412816 42.6213558,13.8384349 41.7350991,13.8361269 L41.7350991,17.6003469 C42.7515765,17.6038088 43.7837502,17.8070501 44.7755206,18.2334386 C48.6881014,19.9166346 50.4848859,24.4289096 48.7889643,28.3118433 C47.5315203,31.1908312 44.7066315,32.9138388 41.7348084,32.9271094 L41.7348084,36.6908966 C42.4556732,36.6891656 43.1711605,36.6238226 43.8716783,36.4896747 L44.7115729,38.5988264 L48.3898726,37.156087 L47.570325,35.0984307 C48.9854581,34.2684445 50.2308392,33.1345338 51.1954318,31.7382413 L53.1529575,32.5804884 L54.7259251,28.9788326 L52.8441193,28.1694734 C53.2933517,26.4816616 53.333755,24.7567787 53.015034,23.1139714 Z" id="Shape" fill="#D35933"></path>
                </g>
                <circle id="Oval" fill="#DFEEF4" cx="56" cy="451" r="56"></circle>
                <g id="ico-repetir" transform="translate(0.000000, 395.000000)">
                    <g id="rotation">
                        <path d="M111.939406,53.444125 C110.603062,23.702875 86.071125,0 56,0 C25.07225,0 0,25.07225 0,56 C0,86.071125 23.702875,110.603063 53.444125,111.939406 L111.939406,53.444125 Z" id="Shape" fill="#DFEEF4" fill-rule="nonzero"></path>
                        <path d="M112,56 C112,55.1431563 111.977688,54.2917812 111.939406,53.444125 L85.848,27.3525 L85.8475625,31.27425 L80.1381875,25.5650937 L26.152,32.869375 L26.152,84.6475 L53.444125,111.939625 C54.2917812,111.977688 55.1431562,112 56,112 C86.92775,112 112,86.92775 112,56 Z" id="Shape" fill="#CBDFE7" fill-rule="nonzero"></path>
                        <path d="M32.0239063,80.2053437 L43.883,71.2339688 C39.4014688,67.6622188 36.5211875,62.1624063 36.5211875,56 C36.5211875,45.26025 45.2595938,36.5218438 55.9993438,36.5218438 L65.7385312,22.0615938 L52.8040625,22.0615938 C35.5009375,23.6775 21.912625,38.2819062 21.912625,56 C21.912625,65.456125 25.7840625,74.024125 32.0239063,80.2053437 Z" id="Shape" fill="#F9A825" fill-rule="nonzero"></path>
                        <path d="M34.9560312,77.9872187 C29.1687812,72.4469375 25.5646562,64.645 25.5646562,56 C25.5646562,39.1901562 39.1897188,25.5653125 55.9993438,25.5653125 L60.8689375,20.0871562 L55.9993438,14.609 C33.1758437,14.6087813 14.608125,33.1762813 14.608125,56 C14.608125,67.10725 19.0065312,77.2054062 26.152,84.6475 L34.9560312,77.9872187 Z" id="Shape" fill="#FBC02D" fill-rule="nonzero"></path>
                        <path d="M79.9760938,31.7946562 L68.117,40.7660313 C72.5985313,44.3377813 75.4788125,49.8375938 75.4788125,56 C75.4788125,66.73975 66.7404062,75.4781563 56.0006562,75.4781563 L46.2614687,89.9384063 L59.1959375,89.9384063 C76.4990625,88.3225 90.0875937,73.7180937 90.0875937,56 C90.087375,46.543875 86.2159375,37.975875 79.9760938,31.7946562 Z" id="Shape" fill="#F9A825" fill-rule="nonzero"></path>
                        <path d="M77.0439688,34.0127813 C82.8312188,39.5530625 86.435125,47.3552188 86.435125,56 C86.435125,72.8098437 72.8100625,86.4346875 56.0004375,86.4346875 L51.1308437,91.9128438 L56.0004375,97.391 C78.8241562,97.391 97.3916563,78.8232813 97.3916563,55.9997812 C97.3916563,44.8925312 92.99325,34.794375 85.8477812,27.3522813 L77.0439688,34.0127813 Z" id="Shape" fill="#FBC02D" fill-rule="nonzero"></path>
                        <polygon id="Shape" fill="#FFEB3B" fill-rule="nonzero" points="55.9995625 7.30428125 55.9995625 25.5653125 68.068875 28.7002187 80.1381875 25.5653125"></polygon>
                        <g id="Group" transform="translate(31.718750, 25.375000)" fill="#FBC02D" fill-rule="nonzero">
                            <polygon id="Shape" points="24.2808125 0.1903125 24.2808125 18.451125 48.4194375 0.1903125"></polygon>
                            <polygon id="Shape" points="24.2808125 79.3207187 24.2808125 61.0596875 12.2112813 57.9247813 0.14175 61.0596875"></polygon>
                        </g>
                        <polygon id="Shape" fill="#FFEB3B" fill-rule="nonzero" points="55.9995625 86.4346875 55.9995625 68.173875 31.8605 86.4346875"></polygon>
                    </g>
                </g>
            </g>
        </g>
    </g>
</svg>