<?xml version="1.0" encoding="UTF-8"?>
<svg width="114px" height="508px" viewBox="0 0 114 508" version="1.1" xmlns="http://www.w3.org/2000/svg" xmlns:xlink="http://www.w3.org/1999/xlink">
    <!-- Generator: Sketch 52.6 (67491) - http://www.bohemiancoding.com/sketch -->
    <title>Group</title>
    <desc>Created with Sketch.</desc>
    <g id="Estilos" stroke="none" stroke-width="1" fill="none" fill-rule="evenodd">
        <g id="MiM-02-registro-07-cuenta-creada" transform="translate(-223.000000, -185.000000)">
            <g id="Group" transform="translate(223.000000, 185.000000)">
                <circle id="Oval-3" fill="#DFE0E0" cx="57" cy="140" r="6"></circle>
                <circle id="Oval-3" fill="#DFE0E0" cx="57" cy="175" r="6"></circle>
                <circle id="Oval-3" fill="#DFE0E0" cx="57" cy="289" r="6"></circle>
                <circle id="Oval-3" fill="#DFE0E0" cx="57" cy="325" r="6"></circle>
                <circle id="Oval-3" fill="#DFE0E0" cx="57" cy="360" r="6"></circle>
                <circle id="Oval-2" fill="#DFE0E0" cx="57" cy="104" r="6"></circle>
                <polygon id="Rectangle-4" fill="#DFE0E0" points="55 39 58 39 58 500 55 500"></polygon>
                <g id="ico-gears" transform="translate(19.000000, 0.000000)">
                    <g id="gears">
                        <ellipse id="Oval" fill="#DFEEF4" fill-rule="nonzero" cx="37.012987" cy="36.9272237" rx="37.012987" ry="36.9272237"></ellipse>
                        <path d="M40.3299959,73.8544474 C58.5219497,72.2636931 72.9407618,57.5427152 74.025974,39.2376285 L48.8819199,14.1318216 L42.2544717,16.0386466 L38.6714339,12.4610385 L36.8843999,14.8023884 L34.1608803,18.2589421 L28.7025563,22.0954162 L33.455297,26.8409547 L30.0421084,32.3392557 L34.7390043,37.029034 L34.6317996,37.0738155 L43.6312055,45.9076157 L42.7998991,46.7376624 L30.5005856,34.4569871 L29.511872,36.2626926 L25.7254202,32.4819787 L22.33972,37.2202944 L13.7085137,44.480675 L18.8732907,49.6376255 L17.8669267,51.4257073 L40.3299959,73.8544474 Z" id="Shape" fill="#CBDFE7" fill-rule="nonzero"></path>
                        <path d="M33.1239728,41.4624785 C32.917271,40.1053473 32.4055968,38.8482884 31.6618185,37.7619751 L32.7438098,36.6824685 L30.5563119,34.4999941 L29.5050936,35.5487983 C28.4168606,34.7600952 27.1451506,34.2096251 25.7652996,33.9712473 L25.7652996,32.5202711 L22.6714489,32.5202711 L22.6714489,33.9712473 C21.2918881,34.2096251 20.0201782,34.76024 18.9316548,35.5487983 L17.8804365,34.4999941 L15.6929386,36.6824685 L16.77493,37.7619751 C16.0312968,38.8482884 15.5197678,40.1053473 15.3127756,41.4624785 L13.7085137,41.4624785 L13.7085137,44.5492244 L15.3775151,44.5492244 C15.6322635,45.8559574 16.1705012,47.0607355 16.9261823,48.098678 L15.6930838,49.3289448 L17.8805817,51.5114192 L19.1444532,50.2504501 C20.1844945,50.9589215 21.3810138,51.4540695 22.6714489,51.6769513 L22.6714489,53.491287 L25.7652996,53.491287 L25.7652996,51.6769513 C27.0557346,51.4540695 28.252399,50.9589215 29.2922952,50.2504501 L30.5561667,51.5114192 L32.7436646,49.3289448 L31.5105661,48.098678 C32.2659569,47.0605906 32.8044849,45.8556678 33.0592333,44.5490796 L34.7282347,44.5490796 L34.7282347,41.4624785 L33.1239728,41.4624785 Z M24.2186645,47.3182298 C21.7311296,47.3182298 19.7144801,45.3062114 19.7144801,42.8243889 C19.7144801,40.3425665 21.7311296,38.3305481 24.2186645,38.3305481 C26.7061995,38.3305481 28.722849,40.3425665 28.722849,42.8243889 C28.722849,45.3062114 26.7061995,47.3182298 24.2186645,47.3182298 Z" id="Shape" fill="#E09112" fill-rule="nonzero"></path>
                        <path d="M34.7282347,44.5489348 L34.7282347,41.4621889 L33.1155126,41.4621889 C32.9077206,40.1050577 32.3933481,38.8479987 31.6456473,37.7616855 L32.7330528,36.6824685 L30.5340189,34.4999941 L29.4772569,35.5487983 C28.3832849,34.7600952 27.1048684,34.2096251 25.7177406,33.9712473 L25.7177406,32.5202711 L24.0660574,32.5202711 L24.0660574,38.3353272 C24.0984519,38.3346031 24.1302628,38.3304033 24.1629491,38.3304033 C26.6636024,38.3304033 28.690887,40.3424217 28.690887,42.8242441 C28.690887,45.3060666 26.6636024,47.318085 24.1629491,47.318085 C24.1302628,47.318085 24.0985978,47.3138851 24.0660574,47.313161 L24.0660574,53.491287 L25.7180324,53.491287 L25.7180324,51.6769513 C27.0152727,51.4540695 28.2182479,50.9589215 29.2636281,50.2504501 L30.5341648,51.5114192 L32.7331988,49.3289448 L31.4935973,48.098678 C32.2529718,47.0605906 32.7943398,45.8556678 33.0504317,44.5490796 L34.7282347,44.5489348 Z" id="Shape" fill="#FF5419" fill-rule="nonzero"></path>
                        <path d="M52.3135062,49.1993784 C52.1457157,48.0978182 51.7305322,47.077855 51.1268937,46.1961132 L52.0049928,45.3200338 L50.2295852,43.5487098 L49.3763709,44.3999617 C48.4930329,43.759962 47.4609681,43.3132108 46.3412972,43.1196719 L46.3412972,41.9420319 L43.8302597,41.9420319 L43.8302597,43.1196719 C42.7105887,43.3132108 41.6785239,43.759962 40.7951859,44.3999617 L39.9419716,43.5487098 L38.166564,45.3200338 L39.0446632,46.1961132 C38.4410246,47.0777098 38.0258412,48.0978182 37.8580506,49.1993784 L36.5560366,49.1993784 L36.5560366,51.7046403 L37.9104397,51.7046403 C38.117231,52.7651116 38.5542432,53.7429696 39.1673409,54.5852196 L38.166564,55.5836946 L39.9419716,57.3550185 L40.9677788,56.3315708 C41.8116795,56.9068155 42.7827692,57.3084124 43.8302597,57.4894649 L43.8302597,58.9619868 L46.3412972,58.9619868 L46.3412972,57.4894649 C47.3886421,57.3085576 48.3598773,56.9068155 49.203778,56.3315708 L50.2295852,57.3550185 L52.0049928,55.5836946 L51.0042159,54.5852196 C51.6173136,53.7426792 52.0543258,52.7651116 52.2611172,51.7046403 L53.6155203,51.7046403 L53.6155203,49.1993784 L52.3135062,49.1993784 Z M45.0858512,54.1839131 C42.9383357,54.1839131 41.1972721,52.4468541 41.1972721,50.304278 C41.1972721,48.161702 42.9383357,46.424643 45.0858512,46.424643 C47.2333667,46.424643 48.9744303,48.161702 48.9744303,50.304278 C48.9742848,52.4471445 47.2335122,54.1839131 45.0858512,54.1839131 Z" id="Shape" fill="#FFC61B" fill-rule="nonzero"></path>
                        <path d="M52.0108355,49.1993784 C51.8432979,48.0978182 51.4287404,47.077855 50.8260119,46.1961132 L51.7027872,45.3200338 L49.9300563,43.5487098 L49.0781283,44.3999617 C48.196122,43.759962 47.1656132,43.3132108 46.0476303,43.1196719 L46.0476303,41.9420319 L44.7811448,41.9420319 L44.7811448,46.4258045 C44.7856493,46.4258045 44.7897178,46.4250786 44.7942223,46.4250786 C46.9385002,46.4250786 48.6769389,48.1621376 48.6769389,50.3047136 C48.6769389,52.4472896 46.9385002,54.1843486 44.7942223,54.1843486 C44.7897178,54.1843486 44.7856493,54.1839131 44.7811448,54.1836227 L44.7811448,58.9619868 L46.0476303,58.9619868 L46.0476303,57.4894649 C47.0933962,57.3085576 48.0631672,56.9068155 48.9057956,56.3315708 L49.9300563,57.3550185 L51.7027872,55.5836946 L50.7035191,54.5852196 C51.3156925,53.7426792 51.7520459,52.7651116 51.9585254,51.7046403 L53.3108866,51.7046403 L53.3108866,49.1993784 L52.0108355,49.1993784 Z" id="Shape" fill="#EAA22F" fill-rule="nonzero"></path>
                        <path d="M52.8625696,28.2117736 C53.3073489,26.5307567 53.3475216,24.8131084 53.0318996,23.1771983 L54.8340548,22.4664076 L53.3935978,18.8307165 L51.6427023,19.5211085 C50.7761819,18.0577245 49.576185,16.7789335 48.0933954,15.8087071 L48.8258629,14.1225187 L45.2306238,12.567772 L44.4981562,14.2539604 C42.7744746,13.8376566 41.0188275,13.8383748 39.3560528,14.2078481 L38.6640459,12.4610385 L35.0198508,13.8978468 L35.732304,15.6957966 C34.3196367,16.5842849 33.0906981,17.7879458 32.1652865,19.2610982 L30.3009285,18.4550662 L28.7425451,22.0419157 L30.681921,22.8807003 C30.318207,24.5270971 30.3356296,26.1976274 30.6895524,27.7835467 L28.635562,28.5936009 L30.076019,32.2290048 L32.1814132,31.3988392 C33.032095,32.7447158 34.1726248,33.9213702 35.5596623,34.8289642 L34.6437539,36.9372025 L38.238993,38.4919493 L39.1549014,36.383711 C40.7671363,36.7730082 42.4075929,36.7990092 43.9736076,36.4983453 L44.8057148,38.5988264 L48.44991,37.1617308 L47.637961,35.1125335 C49.0399732,34.2859593 50.2738074,33.1564228 51.2294565,31.7661577 L53.1688323,32.6049423 L54.7272157,29.0180929 L52.8625696,28.2117736 Z M38.784132,32.3206548 C34.9078281,30.6443784 33.1277031,26.1506532 34.8079003,22.2836822 C36.4880976,18.4167111 40.9926217,16.6408838 44.8687816,18.3168729 C48.7450856,19.9931493 50.5252106,24.4868745 48.8450133,28.3538455 C47.16496,32.2209602 42.660436,33.9970749 38.784132,32.3206548 Z" id="Shape" fill="#FF7F4F" fill-rule="nonzero"></path>
                        <path d="M53.015034,23.1139714 L54.8340548,22.4002466 L53.3804078,18.7495476 L51.6131264,19.4427895 C50.7384965,17.9733647 49.5272693,16.6892949 48.0306029,15.715352 L48.7699253,14.0222031 L45.1410398,12.4610385 L44.4017174,14.1541874 C43.5157513,13.9412816 42.6213558,13.8384349 41.7350991,13.8361269 L41.7350991,17.6003469 C42.7515765,17.6038088 43.7837502,17.8070501 44.7755206,18.2334386 C48.6881014,19.9166346 50.4848859,24.4289096 48.7889643,28.3118433 C47.5315203,31.1908312 44.7066315,32.9138388 41.7348084,32.9271094 L41.7348084,36.6908966 C42.4556732,36.6891656 43.1711605,36.6238226 43.8716783,36.4896747 L44.7115729,38.5988264 L48.3898726,37.156087 L47.570325,35.0984307 C48.9854581,34.2684445 50.2308392,33.1345338 51.1954318,31.7382413 L53.1529575,32.5804884 L54.7259251,28.9788326 L52.8441193,28.1694734 C53.2933517,26.4816616 53.333755,24.7567787 53.015034,23.1139714 Z" id="Shape" fill="#D35933" fill-rule="nonzero"></path>
                    </g>
                </g>
                <g id="ico-check" transform="translate(30.000000, 205.000000)">
                    <g id="Group">
                        <path d="M53.2987013,26.5876011 C53.2987013,41.2714273 41.36728,53.1752022 26.6493506,53.1752022 C11.9314213,53.1752022 0,41.2714273 0,26.5876011 C0,11.9037749 11.9314213,0 26.6493506,0 C41.36728,0 53.2987013,11.9037749 53.2987013,26.5876011 Z" id="Shape" fill="#7ED321" fill-rule="nonzero"></path>
                        <polygon id="Shape" fill="#FFFFFF" fill-rule="nonzero" points="22.865737 37.7823805 12.6233766 27.8806803 17.9736428 22.7083635 22.865737 27.4377471 35.3250585 15.3928217 40.6753247 20.5651384"></polygon>
                    </g>
                </g>
                <g id="ico-creado" transform="translate(0.000000, 390.000000)">
                    <ellipse id="Oval" fill="#DFEEF4" fill-rule="nonzero" cx="57.347561" cy="61.4294118" rx="56.652439" ry="56.5705882"></ellipse>
                    <polygon id="Rectangle-path" fill="#474D56" fill-rule="nonzero" points="35.4512195 89.5411765 57.695122 89.5411765 57.695122 98.5647059 35.4512195 98.5647059"></polygon>
                    <path d="M67.4266009,103.058289 C67.4266009,103.640936 66.9126658,104.117647 66.2845229,104.117647 L26.8615902,104.117647 C26.2334473,104.117647 25.7195122,103.640936 25.7195122,103.058289 L25.7195122,99.6240636 C25.7195122,99.0414168 26.2334473,98.5647059 26.8615902,98.5647059 L66.2847513,98.5647059 C66.9128942,98.5647059 67.4268293,99.0414168 67.4268293,99.6240636 L67.4266009,103.058289 Z" id="Shape" fill="#7F808D" fill-rule="nonzero"></path>
                    <path d="M30.1612189,103.058289 L30.1612189,99.6240636 C30.1612189,99.0414168 30.6648899,98.5647059 31.2804878,98.5647059 L26.8387811,98.5647059 C26.2231832,98.5647059 25.7195122,99.0414168 25.7195122,99.6240636 L25.7195122,103.058289 C25.7195122,103.640936 26.2231832,104.117647 26.8387811,104.117647 L31.2804878,104.117647 C30.6648899,104.117647 30.1612189,103.640936 30.1612189,103.058289 Z" id="Shape" fill="#474D56" fill-rule="nonzero"></path>
                    <path d="M78.5487805,76.3529412 L0,76.3529412 L0,87.2912771 C0,88.5287217 1.036607,89.5411765 2.30357112,89.5411765 L78.5487805,89.5411765 L78.5487805,76.3529412 Z" id="Shape" fill="#7F808D" fill-rule="nonzero"></path>
                    <path d="M4.15990027,87.2912771 L4.15990027,76.3529412 L0,76.3529412 L0,87.2912771 C0,88.5287217 0.943383119,89.5411765 2.09640693,89.5411765 L6.25609756,89.5411765 C5.10328339,89.5411765 4.15990027,88.5287217 4.15990027,87.2912771 Z" id="Shape" fill="#474D56" fill-rule="nonzero"></path>
                    <path d="M89.5508715,24.2941176 L80.3688995,24.2941176 L80.3688995,49.7256493 C79.1791202,49.7303048 78.2123671,50.7153969 78.2123671,51.9262781 L78.2123671,72.5762023 L10.9025583,72.5762023 L10.9025583,24.2941176 L2.20568536,24.2941176 C0.992707708,24.2941176 0,25.2996937 0,26.5291967 L0,77.0470588 L78.3200904,77.0470588 L78.3200904,51.9262781 C78.3200904,50.7126036 79.2944231,49.7251838 80.4920117,49.7251838 L91.7560975,49.7251838 L91.7560975,26.528964 C91.7563272,25.2996937 90.7638492,24.2941176 89.5508715,24.2941176 Z" id="Shape" fill="#DFE0E0" fill-rule="nonzero"></path>
                    <g id="Group" stroke-width="1" fill-rule="evenodd" transform="translate(4.865854, 28.458824)">
                        <path d="M6.54574451,0.107356863 L1.18600862,0.107356863 C0.552333917,0.107356863 0.0338727934,0.627945098 0.0338727934,1.26421961 L0.0338727934,42.4987412 C0.0338727934,43.1350157 0.552333917,43.6556039 1.18600862,43.6556039 L6.54597494,43.6556039 L6.54574451,0.107356863 Z" id="Shape" fill="#293D7C" fill-rule="nonzero"></path>
                        <path d="M82.0825347,0.107356863 L76.2361366,0.107356863 L76.2361366,20.9482392 C76.2773831,20.9459255 76.3179383,20.9419922 76.3596456,20.9419922 L83.2346705,20.9419922 L83.2346705,1.26421961 C83.2346705,0.627945098 82.7162094,0.107356863 82.0825347,0.107356863 Z" id="Shape" fill="#7F808D" fill-rule="nonzero"></path>
                    </g>
                    <path d="M9.30756037,71.0265599 L9.30756037,29.6204989 C9.30756037,28.9815775 9.81123137,28.4588235 10.4268293,28.4588235 L5.98512256,28.4588235 C5.36952466,28.4588235 4.86585366,28.9815775 4.86585366,29.6204989 L4.86585366,71.0265599 C4.86585366,71.6654814 5.36952466,72.1882353 5.98512256,72.1882353 L10.4268293,72.1882353 C9.81123137,72.1882353 9.30756037,71.6654814 9.30756037,71.0265599 Z" id="Shape" fill="#7F808D" fill-rule="nonzero"></path>
                    <ellipse id="Oval" fill="#445EA0" fill-rule="nonzero" cx="46.5731707" cy="83.2941176" rx="2.7804878" ry="2.77647059"></ellipse>
                    <path d="M36.1432527,15.1248968 C36.1432527,14.5599613 36.6105273,14.0973005 37.1815629,14.0973005 L63.9512195,14.0973005 L63.9512195,1.21575423 C63.9512195,0.546927794 63.3988375,0 62.7235745,0 L11.6544743,0 C10.9792112,0 10.4268293,0.546927794 10.4268293,1.21575423 L10.4268293,72.1882353 L36.1432527,72.1882353 L36.1432527,15.1248968 Z" id="Shape" fill="#C3DDF4" fill-rule="nonzero"></path>
                    <path d="M15.9878049,0 L11.5929796,0 C10.9515415,0 10.4268293,0.546927794 10.4268293,1.21575423 L10.4268293,72.1882353 L14.821876,72.1882353 L14.821876,1.21575423 C14.821876,0.546927794 15.3465883,0 15.9878049,0 Z" id="Shape" fill="#AEC1ED" fill-rule="nonzero"></path>
                    <path d="M79.1370295,51.7127772 C79.1370295,50.5121264 80.1198134,49.5351263 81.3292683,49.530741 L81.3292683,14.9096687 C81.3292683,14.3448874 80.8628939,13.8823529 80.2931911,13.8823529 L37.1826514,13.8823529 C36.6127158,13.8823529 36.1463415,14.3448874 36.1463415,14.9096687 L36.1463415,72.1882353 L79.1367967,72.1882353 L79.1367967,51.7127772 L79.1370295,51.7127772 Z" id="Shape" fill="#FFFFFF" fill-rule="nonzero"></path>
                    <path d="M41.7073171,13.8823529 L37.1655637,13.8823529 C36.6050258,13.8823529 36.1463415,14.3448874 36.1463415,14.9096687 L36.1463415,72.1882353 L40.6878659,72.1882353 L40.6878659,14.9096687 C40.6880948,14.3446566 41.1467792,13.8823529 41.7073171,13.8823529 Z" id="Shape" fill="#D9EAFC" fill-rule="nonzero"></path>
                    <path d="M46.1463285,37.4823529 C45.6541509,37.4823529 45.1858765,37.2664323 44.861704,36.8899019 L42.1301411,33.7177429 C41.5088865,32.9963874 41.580596,31.8998901 42.2901785,31.268328 C42.9993058,30.6369973 44.0781354,30.7098965 44.6993901,31.4310206 L46.1463285,33.1114062 L48.4469514,30.4395907 C49.0679784,29.7182352 50.1465803,29.645336 50.8561629,30.2768981 C51.5657455,30.9084602 51.637455,32.0049576 51.0162003,32.726313 L47.4309529,36.8899019 C47.1070081,37.2662009 46.6387337,37.4823529 46.1463285,37.4823529 Z" id="Shape" fill="#7ED321" fill-rule="nonzero"></path>
                    <g id="Group" stroke-width="1" fill-rule="evenodd" transform="translate(53.524390, 28.458824)" fill="#52BBEF">
                        <path d="M20.3467498,3.50983402 L1.92627609,3.50983402 C0.976438521,3.50983402 0.206386724,2.75410874 0.206386724,1.82143975 C0.206386724,0.888770747 0.976438521,0.133045469 1.92627609,0.133045469 L20.3467498,0.133045469 C21.2965874,0.133045469 22.0666392,0.888770747 22.0666392,1.82143975 C22.0666392,2.75388362 21.2965874,3.50983402 20.3467498,3.50983402 Z" id="Shape" fill-rule="nonzero"></path>
                        <path d="M20.3467498,8.13873577 L1.92627609,8.13873577 C0.976438521,8.13873577 0.206386724,7.38301049 0.206386724,6.45034149 C0.206386724,5.5176725 0.976438521,4.76194722 1.92627609,4.76194722 L20.3467498,4.76194722 C21.2965874,4.76194722 22.0666392,5.5176725 22.0666392,6.45034149 C22.0666392,7.38301049 21.2965874,8.13873577 20.3467498,8.13873577 Z" id="Shape" fill-rule="nonzero"></path>
                    </g>
                    <path d="M46.1463285,51.3647059 C45.6541509,51.3647059 45.1858765,51.1487673 44.861704,50.772437 L42.1301411,47.6002456 C41.5088865,46.8788301 41.580596,45.7822415 42.2901785,45.1508583 C42.9997611,44.5192437 44.0783631,44.5923804 44.6993901,45.313333 L46.1463285,46.9938585 L48.4469514,44.3218207 C49.0679784,43.6006366 50.1465803,43.5277313 50.8561629,44.1591145 C51.5657455,44.7907292 51.637455,45.8873177 51.0162003,46.6087332 L47.4309529,50.772437 C47.1070081,51.1487673 46.6387337,51.3647059 46.1463285,51.3647059 Z" id="Shape" fill="#7ED321" fill-rule="nonzero"></path>
                    <g id="Group" stroke-width="1" fill-rule="evenodd" transform="translate(53.524390, 43.729412)" fill="#52BBEF">
                        <path d="M20.3467498,3.53444706 L1.92627609,3.53444706 C0.976438521,3.53444706 0.206386724,2.75772941 0.206386724,1.79915294 C0.206386724,0.840576471 0.976438521,0.0638588235 1.92627609,0.0638588235 L20.3467498,0.0638588235 C21.2965874,0.0638588235 22.0666392,0.840576471 22.0666392,1.79915294 C22.0666392,2.75772941 21.2965874,3.53444706 20.3467498,3.53444706 Z" id="Shape" fill-rule="nonzero"></path>
                        <path d="M20.3467498,8.29216078 L1.92627609,8.29216078 C0.976438521,8.29216078 0.206386724,7.51544314 0.206386724,6.55686667 C0.206386724,5.5982902 0.976438521,4.82157255 1.92627609,4.82157255 L20.3467498,4.82157255 C21.2965874,4.82157255 22.0666392,5.5982902 22.0666392,6.55686667 C22.0666392,7.51521176 21.2965874,8.29216078 20.3467498,8.29216078 Z" id="Shape" fill-rule="nonzero"></path>
                    </g>
                    <path d="M46.1463285,65.9411765 C45.6541509,65.9411765 45.1858765,65.7250152 44.861704,65.3487002 L42.1301411,62.1764062 C41.5088865,61.45502 41.580596,60.3584759 42.2901785,59.7268869 C42.9993058,59.0955294 44.0781354,59.1686632 44.6993901,59.8895865 L46.1463285,61.5700437 L48.4469514,58.8983459 C49.0679784,58.1769597 50.1465803,58.1042888 50.8561629,58.7356463 C51.5657455,59.3672353 51.637455,60.4637793 51.0162003,61.1851655 L47.4309529,65.3487002 C47.1070081,65.7250152 46.6387337,65.9411765 46.1463285,65.9411765 Z" id="Shape" fill="#7ED321" fill-rule="nonzero"></path>
                    <g id="Group" stroke-width="1" fill-rule="evenodd" transform="translate(53.524390, 57.611765)" fill="#52BBEF">
                        <path d="M20.3467498,3.59335326 L1.92627609,3.59335326 C0.976438521,3.59335326 0.206386724,2.83762798 0.206386724,1.90495898 C0.206386724,0.972289984 0.976438521,0.216564706 1.92627609,0.216564706 L20.3467498,0.216564706 C21.2965874,0.216564706 22.0666392,0.972289984 22.0666392,1.90495898 C22.0666392,2.83740286 21.2965874,3.59335326 20.3467498,3.59335326 Z" id="Shape" fill-rule="nonzero"></path>
                        <path d="M13.57566,8.22225501 L1.92604677,8.22225501 C0.976209203,8.22225501 0.206157405,7.46652973 0.206157405,6.53386073 C0.206157405,5.60119173 0.976209203,4.84546645 1.92604677,4.84546645 L13.57566,4.84546645 C14.5254976,4.84546645 15.2955494,5.60119173 15.2955494,6.53386073 C15.2955494,7.46652973 14.5254976,8.22225501 13.57566,8.22225501 Z" id="Shape" fill-rule="nonzero"></path>
                    </g>
                    <g id="Group" stroke-width="1" fill-rule="evenodd" transform="translate(15.292683, 13.882353)" fill="#445EA0">
                        <path d="M15.4185,3.65288877 L1.8587561,3.65288877 C0.89902439,3.65288877 0.12095122,2.87970166 0.12095122,1.92548235 C0.12095122,0.971263048 0.89902439,0.198075936 1.8587561,0.198075936 L15.4187317,0.198075936 C16.3784634,0.198075936 17.1565366,0.971263048 17.1565366,1.92548235 C17.1563049,2.87970166 16.3782317,3.65288877 15.4185,3.65288877 Z" id="Shape" fill-rule="nonzero"></path>
                        <path d="M15.4185,8.45346636 L1.8587561,8.45346636 C0.89902439,8.45346636 0.12095122,7.68027925 0.12095122,6.72605995 C0.12095122,5.77184064 0.89902439,4.99865353 1.8587561,4.99865353 L15.4187317,4.99865353 C16.3784634,4.99865353 17.1565366,5.77184064 17.1565366,6.72605995 C17.1565366,7.68027925 16.3782317,8.45346636 15.4185,8.45346636 Z" id="Shape" fill-rule="nonzero"></path>
                        <path d="M15.4185,13.254044 L1.8587561,13.254044 C0.89902439,13.254044 0.12095122,12.4808568 0.12095122,11.5266375 C0.12095122,10.5724182 0.89902439,9.79923112 1.8587561,9.79923112 L15.4187317,9.79923112 C16.3784634,9.79923112 17.1565366,10.5724182 17.1565366,11.5266375 C17.1565366,12.4808568 16.3782317,13.254044 15.4185,13.254044 Z" id="Shape" fill-rule="nonzero"></path>
                        <path d="M15.4185,22.3498752 L1.8587561,22.3498752 C0.89902439,22.3498752 0.12095122,21.5766881 0.12095122,20.6224688 C0.12095122,19.6682495 0.89902439,18.8950624 1.8587561,18.8950624 L15.4187317,18.8950624 C16.3784634,18.8950624 17.1565366,19.6682495 17.1565366,20.6224688 C17.1563049,21.5766881 16.3782317,22.3498752 15.4185,22.3498752 Z" id="Shape" fill-rule="nonzero"></path>
                        <path d="M15.4185,27.1506831 L1.8587561,27.1506831 C0.89902439,27.1506831 0.12095122,26.377496 0.12095122,25.4232767 C0.12095122,24.4690574 0.89902439,23.6958703 1.8587561,23.6958703 L15.4187317,23.6958703 C16.3784634,23.6958703 17.1565366,24.4690574 17.1565366,25.4232767 C17.1563049,26.3772657 16.3782317,27.1506831 15.4185,27.1506831 Z" id="Shape" fill-rule="nonzero"></path>
                        <path d="M15.4185,31.951491 L1.8587561,31.951491 C0.89902439,31.951491 0.12095122,31.1783039 0.12095122,30.2240846 C0.12095122,29.2698653 0.89902439,28.4966782 1.8587561,28.4966782 L15.4187317,28.4966782 C16.3784634,28.4966782 17.1565366,29.2698653 17.1565366,30.2240846 C17.1563049,31.1780736 16.3782317,31.951491 15.4185,31.951491 Z" id="Shape" fill-rule="nonzero"></path>
                        <path d="M15.4185,41.0473222 L1.8587561,41.0473222 C0.89902439,41.0473222 0.12095122,40.2741351 0.12095122,39.3199158 C0.12095122,38.3656965 0.89902439,37.5925094 1.8587561,37.5925094 L15.4187317,37.5925094 C16.3784634,37.5925094 17.1565366,38.3656965 17.1565366,39.3199158 C17.1563049,40.2739048 16.3782317,41.0473222 15.4185,41.0473222 Z" id="Shape" fill-rule="nonzero"></path>
                        <path d="M15.4185,45.8476695 L1.8587561,45.8476695 C0.89902439,45.8476695 0.12095122,45.0744824 0.12095122,44.1202631 C0.12095122,43.1660438 0.89902439,42.3928567 1.8587561,42.3928567 L15.4187317,42.3928567 C16.3784634,42.3928567 17.1565366,43.1660438 17.1565366,44.1202631 C17.1563049,45.0744824 16.3782317,45.8476695 15.4185,45.8476695 Z" id="Shape" fill-rule="nonzero"></path>
                        <path d="M15.4185,50.6482471 L1.8587561,50.6482471 C0.89902439,50.6482471 0.12095122,49.87506 0.12095122,48.9208407 C0.12095122,47.9666214 0.89902439,47.1934343 1.8587561,47.1934343 L15.4187317,47.1934343 C16.3784634,47.1934343 17.1565366,47.9666214 17.1565366,48.9208407 C17.1563049,49.87506 16.3782317,50.6482471 15.4185,50.6482471 Z" id="Shape" fill-rule="nonzero"></path>
                        <path d="M52.295878,8.17616005 L33.5616463,8.17616005 C32.6019146,8.17616005 31.8238415,7.40297294 31.8238415,6.44875364 C31.8238415,5.49453433 32.6019146,4.72134722 33.5616463,4.72134722 L52.295878,4.72134722 C53.2556098,4.72134722 54.0336829,5.49453433 54.0336829,6.44875364 C54.0336829,7.40297294 53.2556098,8.17616005 52.295878,8.17616005 Z" id="Shape" fill-rule="nonzero"></path>
                    </g>
                    <path d="M107.04878,102.40045 C107.04878,103.726719 105.975534,104.811765 104.663687,104.811765 L80.9338743,104.811765 C79.6220271,104.811765 78.5487805,103.726719 78.5487805,102.40045 L78.5487805,51.6936672 C78.5487805,50.3673982 79.6220271,49.2823529 80.9338743,49.2823529 L104.663687,49.2823529 C105.975534,49.2823529 107.04878,50.3673982 107.04878,51.6936672 L107.04878,102.40045 Z" id="Shape" fill="#AEC1ED" fill-rule="nonzero"></path>
                    <path d="M83.5563291,102.40045 L83.5563291,51.6936672 C83.5563291,50.3673982 84.7437354,49.2823529 86.195122,49.2823529 L81.1875734,49.2823529 C79.7361868,49.2823529 78.5487805,50.3673982 78.5487805,51.6936672 L78.5487805,102.40045 C78.5487805,103.726719 79.7361868,104.811765 81.1875734,104.811765 L86.195122,104.811765 C84.7437354,104.811765 83.5563291,103.726719 83.5563291,102.40045 Z" id="Shape" fill="#85A0DD" fill-rule="nonzero"></path>
                    <path d="M88.2804878,95.0941176 L88.2804878,98.018294 C88.2804878,98.7005852 88.8040231,99.2588235 89.4438996,99.2588235 L96.8487833,99.2588235 C97.4886598,99.2588235 98.0121951,98.7005852 98.0121951,98.018294 L98.0121951,95.0941176 L88.2804878,95.0941176 Z" id="Shape" fill="#445EA0" fill-rule="nonzero"></path>
                    <polygon id="Rectangle-path" fill="#91E0E8" fill-rule="nonzero" points="78.5487805 57.6117647 107.04878 57.6117647 107.04878 95.7882353 78.5487805 95.7882353"></polygon>
                    <polygon id="Rectangle-path" fill="#5DC1D8" fill-rule="nonzero" points="78.5487805 57.6117647 83.4146341 57.6117647 83.4146341 95.7882353 78.5487805 95.7882353"></polygon>
                    <path d="M96.9540421,54.8352941 L88.6435189,54.8352941 C87.6752435,54.8352941 86.8902439,54.0585765 86.8902439,53.1 C86.8902439,52.1414235 87.6752435,51.3647059 88.6435189,51.3647059 L96.9540421,51.3647059 C97.9223174,51.3647059 98.7073171,52.1414235 98.7073171,53.1 C98.7073171,54.0585765 97.9223174,54.8352941 96.9540421,54.8352941 Z" id="Shape" fill="#445EA0" fill-rule="nonzero"></path>
                    <g id="Group" stroke-width="1" fill-rule="evenodd" transform="translate(82.024390, 60.388235)" fill="#EEF6FF">
                        <path d="M22.0118634,9.312729 C22.0118634,9.94347069 21.4850341,10.4595321 20.8411317,10.4595321 L1.39340488,10.4595321 C0.749502439,10.4595321 0.222673171,9.94347069 0.222673171,9.312729 L0.222673171,1.29474066 C0.222673171,0.663998977 0.749502439,0.147937596 1.39340488,0.147937596 L20.8411317,0.147937596 C21.4850341,0.147937596 22.0118634,0.663998977 22.0118634,1.29474066 L22.0118634,9.312729 Z" id="Shape" fill-rule="nonzero"></path>
                        <path d="M16.3466927,16.1323081 L2.01974634,16.1323081 C1.0499122,16.1323081 0.26364878,15.3623446 0.26364878,14.4121035 C0.26364878,13.4618625 1.0499122,12.6918989 2.01974634,12.6918989 L16.3466927,12.6918989 C17.3165268,12.6918989 18.1027902,13.4618625 18.1027902,14.4121035 C18.1027902,15.3621152 17.3165268,16.1323081 16.3466927,16.1323081 Z" id="Shape" fill-rule="nonzero"></path>
                        <path d="M16.3466927,21.2046181 L2.01974634,21.2046181 C1.0499122,21.2046181 0.26364878,20.4346545 0.26364878,19.4844135 C0.26364878,18.5341725 1.0499122,17.7642089 2.01974634,17.7642089 L16.3466927,17.7642089 C17.3165268,17.7642089 18.1027902,18.5341725 18.1027902,19.4844135 C18.1027902,20.4346545 17.3165268,21.2046181 16.3466927,21.2046181 Z" id="Shape" fill-rule="nonzero"></path>
                        <path d="M16.3466927,26.2766987 L2.01974634,26.2766987 C1.0499122,26.2766987 0.26364878,25.5067351 0.26364878,24.5564941 C0.26364878,23.6064825 1.0499122,22.8362895 2.01974634,22.8362895 L16.3466927,22.8362895 C17.3165268,22.8362895 18.1027902,23.6064825 18.1027902,24.5564941 C18.1027902,25.5067351 17.3165268,26.2766987 16.3466927,26.2766987 Z" id="Shape" fill-rule="nonzero"></path>
                    </g>
                    <g id="Group" stroke-width="1" fill-rule="evenodd" transform="translate(82.024390, 60.388235)" fill="#D9EAFC">
                        <path d="M4.48583768,9.312729 L4.48583768,1.29474066 C4.48583768,0.663998977 4.97122456,0.147937596 5.56447519,0.147937596 L1.28401009,0.147937596 C0.690759462,0.147937596 0.205372582,0.663998977 0.205372582,1.29474066 L0.205372582,9.312729 C0.205372582,9.94347069 0.690759462,10.4595321 1.28401009,10.4595321 L5.56447519,10.4595321 C4.97122456,10.4595321 4.48583768,9.94347069 4.48583768,9.312729 Z" id="Shape" fill-rule="nonzero"></path>
                        <path d="M4.52337426,14.4121035 C4.52337426,13.4618625 5.24778722,12.6918989 6.14133053,12.6918989 L1.86086543,12.6918989 C0.967322119,12.6918989 0.242909167,13.4618625 0.242909167,14.4121035 C0.242909167,15.3623446 0.967322119,16.1323081 1.86086543,16.1323081 L6.14133053,16.1323081 C5.24778722,16.1323081 4.52337426,15.3621152 4.52337426,14.4121035 Z" id="Shape" fill-rule="nonzero"></path>
                        <path d="M4.52337426,19.4844135 C4.52337426,18.5341725 5.24778722,17.7642089 6.14133053,17.7642089 L1.86086543,17.7642089 C0.967322119,17.7642089 0.242909167,18.5341725 0.242909167,19.4844135 C0.242909167,20.4346545 0.967322119,21.2046181 1.86086543,21.2046181 L6.14133053,21.2046181 C5.24778722,21.2046181 4.52337426,20.4346545 4.52337426,19.4844135 Z" id="Shape" fill-rule="nonzero"></path>
                        <path d="M4.52337426,24.5564941 C4.52337426,23.6064825 5.24778722,22.8362895 6.14133053,22.8362895 L1.86086543,22.8362895 C0.967322119,22.8362895 0.242909167,23.6064825 0.242909167,24.5564941 C0.242909167,25.5067351 0.967322119,26.2766987 1.86086543,26.2766987 L6.14133053,26.2766987 C5.24778722,26.2766987 4.52337426,25.5067351 4.52337426,24.5564941 Z" id="Shape" fill-rule="nonzero"></path>
                    </g>
                    <path d="M59.7804878,9.25490196 C59.7804878,9.89117647 59.2564168,10.4117647 58.6158856,10.4117647 L16.4572851,10.4117647 C15.8167539,10.4117647 15.2926829,9.89117647 15.2926829,9.25490196 L15.2926829,6.01568627 C15.2926829,5.37941176 15.8167539,4.85882353 16.4572851,4.85882353 L58.6158856,4.85882353 C59.2564168,4.85882353 59.7804878,5.37941176 59.7804878,6.01568627 L59.7804878,9.25490196 Z" id="Shape" fill="#FFFFFF" fill-rule="nonzero"></path>
                </g>
            </g>
        </g>
    </g>
</svg>